<?xml version="1.0" encoding="utf-8" standalone="no"?>
<!DOCTYPE svg PUBLIC "-//W3C//DTD SVG 1.1//EN"
  "http://www.w3.org/Graphics/SVG/1.1/DTD/svg11.dtd">
<svg height="252pt" version="1.1" viewBox="0 0 720 252" width="720pt" xmlns="http://www.w3.org/2000/svg" xmlns:xlink="http://www.w3.org/1999/xlink">
 <metadata>
  <rdf:RDF xmlns:cc="http://creativecommons.org/ns#" xmlns:dc="http://purl.org/dc/elements/1.1/" xmlns:rdf="http://www.w3.org/1999/02/22-rdf-syntax-ns#">
   <cc:Work>
    <dc:type rdf:resource="http://purl.org/dc/dcmitype/StillImage"/>
    <dc:date>2021-04-17T12:56:38.343427</dc:date>
    <dc:format>image/svg+xml</dc:format>
    <dc:creator>
     <cc:Agent>
      <dc:title>Matplotlib v3.4.1, https://matplotlib.org/</dc:title>
     </cc:Agent>
    </dc:creator>
   </cc:Work>
  </rdf:RDF>
 </metadata>
 <defs>
  <style type="text/css">*{stroke-linecap:butt;stroke-linejoin:round;}</style>
 </defs>
 <g id="figure_1">
  <g id="patch_1">
   <path d="M 0 252 
L 720 252 
L 720 0 
L 0 0 
z
" style="fill:none;"/>
  </g>
  <g id="axes_1">
   <g id="patch_2">
    <path d="M 90 220.5 
L 343.636364 220.5 
L 343.636364 30.24 
L 90 30.24 
z
" style="fill:#ffffff;"/>
   </g>
   <g id="matplotlib.axis_1">
    <g id="xtick_1">
     <g id="line2d_1">
      <defs>
       <path d="M 0 0 
L 0 3.5 
" id="mbb5f7a170c" style="stroke:#000000;stroke-width:0.8;"/>
      </defs>
      <g>
       <use style="stroke:#000000;stroke-width:0.8;" x="101.143987" xlink:href="#mbb5f7a170c" y="220.5"/>
      </g>
     </g>
     <g id="text_1">
      <!-- 0 -->
      <g transform="translate(97.962737 235.098437)scale(0.1 -0.1)">
       <defs>
        <path d="M 2034 4250 
Q 1547 4250 1301 3770 
Q 1056 3291 1056 2328 
Q 1056 1369 1301 889 
Q 1547 409 2034 409 
Q 2525 409 2770 889 
Q 3016 1369 3016 2328 
Q 3016 3291 2770 3770 
Q 2525 4250 2034 4250 
z
M 2034 4750 
Q 2819 4750 3233 4129 
Q 3647 3509 3647 2328 
Q 3647 1150 3233 529 
Q 2819 -91 2034 -91 
Q 1250 -91 836 529 
Q 422 1150 422 2328 
Q 422 3509 836 4129 
Q 1250 4750 2034 4750 
z
" id="DejaVuSans-30" transform="scale(0.015625)"/>
       </defs>
       <use xlink:href="#DejaVuSans-30"/>
      </g>
     </g>
    </g>
    <g id="xtick_2">
     <g id="line2d_2">
      <g>
       <use style="stroke:#000000;stroke-width:0.8;" x="139.637895" xlink:href="#mbb5f7a170c" y="220.5"/>
      </g>
     </g>
     <g id="text_2">
      <!-- 5000 -->
      <g transform="translate(126.912895 235.098437)scale(0.1 -0.1)">
       <defs>
        <path d="M 691 4666 
L 3169 4666 
L 3169 4134 
L 1269 4134 
L 1269 2991 
Q 1406 3038 1543 3061 
Q 1681 3084 1819 3084 
Q 2600 3084 3056 2656 
Q 3513 2228 3513 1497 
Q 3513 744 3044 326 
Q 2575 -91 1722 -91 
Q 1428 -91 1123 -41 
Q 819 9 494 109 
L 494 744 
Q 775 591 1075 516 
Q 1375 441 1709 441 
Q 2250 441 2565 725 
Q 2881 1009 2881 1497 
Q 2881 1984 2565 2268 
Q 2250 2553 1709 2553 
Q 1456 2553 1204 2497 
Q 953 2441 691 2322 
L 691 4666 
z
" id="DejaVuSans-35" transform="scale(0.015625)"/>
       </defs>
       <use xlink:href="#DejaVuSans-35"/>
       <use x="63.623047" xlink:href="#DejaVuSans-30"/>
       <use x="127.246094" xlink:href="#DejaVuSans-30"/>
       <use x="190.869141" xlink:href="#DejaVuSans-30"/>
      </g>
     </g>
    </g>
    <g id="xtick_3">
     <g id="line2d_3">
      <g>
       <use style="stroke:#000000;stroke-width:0.8;" x="178.131804" xlink:href="#mbb5f7a170c" y="220.5"/>
      </g>
     </g>
     <g id="text_3">
      <!-- 10000 -->
      <g transform="translate(162.225554 235.098437)scale(0.1 -0.1)">
       <defs>
        <path d="M 794 531 
L 1825 531 
L 1825 4091 
L 703 3866 
L 703 4441 
L 1819 4666 
L 2450 4666 
L 2450 531 
L 3481 531 
L 3481 0 
L 794 0 
L 794 531 
z
" id="DejaVuSans-31" transform="scale(0.015625)"/>
       </defs>
       <use xlink:href="#DejaVuSans-31"/>
       <use x="63.623047" xlink:href="#DejaVuSans-30"/>
       <use x="127.246094" xlink:href="#DejaVuSans-30"/>
       <use x="190.869141" xlink:href="#DejaVuSans-30"/>
       <use x="254.492188" xlink:href="#DejaVuSans-30"/>
      </g>
     </g>
    </g>
    <g id="xtick_4">
     <g id="line2d_4">
      <g>
       <use style="stroke:#000000;stroke-width:0.8;" x="216.625712" xlink:href="#mbb5f7a170c" y="220.5"/>
      </g>
     </g>
     <g id="text_4">
      <!-- 15000 -->
      <g transform="translate(200.719462 235.098437)scale(0.1 -0.1)">
       <use xlink:href="#DejaVuSans-31"/>
       <use x="63.623047" xlink:href="#DejaVuSans-35"/>
       <use x="127.246094" xlink:href="#DejaVuSans-30"/>
       <use x="190.869141" xlink:href="#DejaVuSans-30"/>
       <use x="254.492188" xlink:href="#DejaVuSans-30"/>
      </g>
     </g>
    </g>
    <g id="xtick_5">
     <g id="line2d_5">
      <g>
       <use style="stroke:#000000;stroke-width:0.8;" x="255.119621" xlink:href="#mbb5f7a170c" y="220.5"/>
      </g>
     </g>
     <g id="text_5">
      <!-- 20000 -->
      <g transform="translate(239.213371 235.098437)scale(0.1 -0.1)">
       <defs>
        <path d="M 1228 531 
L 3431 531 
L 3431 0 
L 469 0 
L 469 531 
Q 828 903 1448 1529 
Q 2069 2156 2228 2338 
Q 2531 2678 2651 2914 
Q 2772 3150 2772 3378 
Q 2772 3750 2511 3984 
Q 2250 4219 1831 4219 
Q 1534 4219 1204 4116 
Q 875 4013 500 3803 
L 500 4441 
Q 881 4594 1212 4672 
Q 1544 4750 1819 4750 
Q 2544 4750 2975 4387 
Q 3406 4025 3406 3419 
Q 3406 3131 3298 2873 
Q 3191 2616 2906 2266 
Q 2828 2175 2409 1742 
Q 1991 1309 1228 531 
z
" id="DejaVuSans-32" transform="scale(0.015625)"/>
       </defs>
       <use xlink:href="#DejaVuSans-32"/>
       <use x="63.623047" xlink:href="#DejaVuSans-30"/>
       <use x="127.246094" xlink:href="#DejaVuSans-30"/>
       <use x="190.869141" xlink:href="#DejaVuSans-30"/>
       <use x="254.492188" xlink:href="#DejaVuSans-30"/>
      </g>
     </g>
    </g>
    <g id="xtick_6">
     <g id="line2d_6">
      <g>
       <use style="stroke:#000000;stroke-width:0.8;" x="293.613529" xlink:href="#mbb5f7a170c" y="220.5"/>
      </g>
     </g>
     <g id="text_6">
      <!-- 25000 -->
      <g transform="translate(277.707279 235.098437)scale(0.1 -0.1)">
       <use xlink:href="#DejaVuSans-32"/>
       <use x="63.623047" xlink:href="#DejaVuSans-35"/>
       <use x="127.246094" xlink:href="#DejaVuSans-30"/>
       <use x="190.869141" xlink:href="#DejaVuSans-30"/>
       <use x="254.492188" xlink:href="#DejaVuSans-30"/>
      </g>
     </g>
    </g>
    <g id="xtick_7">
     <g id="line2d_7">
      <g>
       <use style="stroke:#000000;stroke-width:0.8;" x="332.107438" xlink:href="#mbb5f7a170c" y="220.5"/>
      </g>
     </g>
     <g id="text_7">
      <!-- 30000 -->
      <g transform="translate(316.201188 235.098437)scale(0.1 -0.1)">
       <defs>
        <path d="M 2597 2516 
Q 3050 2419 3304 2112 
Q 3559 1806 3559 1356 
Q 3559 666 3084 287 
Q 2609 -91 1734 -91 
Q 1441 -91 1130 -33 
Q 819 25 488 141 
L 488 750 
Q 750 597 1062 519 
Q 1375 441 1716 441 
Q 2309 441 2620 675 
Q 2931 909 2931 1356 
Q 2931 1769 2642 2001 
Q 2353 2234 1838 2234 
L 1294 2234 
L 1294 2753 
L 1863 2753 
Q 2328 2753 2575 2939 
Q 2822 3125 2822 3475 
Q 2822 3834 2567 4026 
Q 2313 4219 1838 4219 
Q 1578 4219 1281 4162 
Q 984 4106 628 3988 
L 628 4550 
Q 988 4650 1302 4700 
Q 1616 4750 1894 4750 
Q 2613 4750 3031 4423 
Q 3450 4097 3450 3541 
Q 3450 3153 3228 2886 
Q 3006 2619 2597 2516 
z
" id="DejaVuSans-33" transform="scale(0.015625)"/>
       </defs>
       <use xlink:href="#DejaVuSans-33"/>
       <use x="63.623047" xlink:href="#DejaVuSans-30"/>
       <use x="127.246094" xlink:href="#DejaVuSans-30"/>
       <use x="190.869141" xlink:href="#DejaVuSans-30"/>
       <use x="254.492188" xlink:href="#DejaVuSans-30"/>
      </g>
     </g>
    </g>
    <g id="text_8">
     <!-- iteration -->
     <g transform="translate(195.695526 248.776563)scale(0.1 -0.1)">
      <defs>
       <path d="M 603 3500 
L 1178 3500 
L 1178 0 
L 603 0 
L 603 3500 
z
M 603 4863 
L 1178 4863 
L 1178 4134 
L 603 4134 
L 603 4863 
z
" id="DejaVuSans-69" transform="scale(0.015625)"/>
       <path d="M 1172 4494 
L 1172 3500 
L 2356 3500 
L 2356 3053 
L 1172 3053 
L 1172 1153 
Q 1172 725 1289 603 
Q 1406 481 1766 481 
L 2356 481 
L 2356 0 
L 1766 0 
Q 1100 0 847 248 
Q 594 497 594 1153 
L 594 3053 
L 172 3053 
L 172 3500 
L 594 3500 
L 594 4494 
L 1172 4494 
z
" id="DejaVuSans-74" transform="scale(0.015625)"/>
       <path d="M 3597 1894 
L 3597 1613 
L 953 1613 
Q 991 1019 1311 708 
Q 1631 397 2203 397 
Q 2534 397 2845 478 
Q 3156 559 3463 722 
L 3463 178 
Q 3153 47 2828 -22 
Q 2503 -91 2169 -91 
Q 1331 -91 842 396 
Q 353 884 353 1716 
Q 353 2575 817 3079 
Q 1281 3584 2069 3584 
Q 2775 3584 3186 3129 
Q 3597 2675 3597 1894 
z
M 3022 2063 
Q 3016 2534 2758 2815 
Q 2500 3097 2075 3097 
Q 1594 3097 1305 2825 
Q 1016 2553 972 2059 
L 3022 2063 
z
" id="DejaVuSans-65" transform="scale(0.015625)"/>
       <path d="M 2631 2963 
Q 2534 3019 2420 3045 
Q 2306 3072 2169 3072 
Q 1681 3072 1420 2755 
Q 1159 2438 1159 1844 
L 1159 0 
L 581 0 
L 581 3500 
L 1159 3500 
L 1159 2956 
Q 1341 3275 1631 3429 
Q 1922 3584 2338 3584 
Q 2397 3584 2469 3576 
Q 2541 3569 2628 3553 
L 2631 2963 
z
" id="DejaVuSans-72" transform="scale(0.015625)"/>
       <path d="M 2194 1759 
Q 1497 1759 1228 1600 
Q 959 1441 959 1056 
Q 959 750 1161 570 
Q 1363 391 1709 391 
Q 2188 391 2477 730 
Q 2766 1069 2766 1631 
L 2766 1759 
L 2194 1759 
z
M 3341 1997 
L 3341 0 
L 2766 0 
L 2766 531 
Q 2569 213 2275 61 
Q 1981 -91 1556 -91 
Q 1019 -91 701 211 
Q 384 513 384 1019 
Q 384 1609 779 1909 
Q 1175 2209 1959 2209 
L 2766 2209 
L 2766 2266 
Q 2766 2663 2505 2880 
Q 2244 3097 1772 3097 
Q 1472 3097 1187 3025 
Q 903 2953 641 2809 
L 641 3341 
Q 956 3463 1253 3523 
Q 1550 3584 1831 3584 
Q 2591 3584 2966 3190 
Q 3341 2797 3341 1997 
z
" id="DejaVuSans-61" transform="scale(0.015625)"/>
       <path d="M 1959 3097 
Q 1497 3097 1228 2736 
Q 959 2375 959 1747 
Q 959 1119 1226 758 
Q 1494 397 1959 397 
Q 2419 397 2687 759 
Q 2956 1122 2956 1747 
Q 2956 2369 2687 2733 
Q 2419 3097 1959 3097 
z
M 1959 3584 
Q 2709 3584 3137 3096 
Q 3566 2609 3566 1747 
Q 3566 888 3137 398 
Q 2709 -91 1959 -91 
Q 1206 -91 779 398 
Q 353 888 353 1747 
Q 353 2609 779 3096 
Q 1206 3584 1959 3584 
z
" id="DejaVuSans-6f" transform="scale(0.015625)"/>
       <path d="M 3513 2113 
L 3513 0 
L 2938 0 
L 2938 2094 
Q 2938 2591 2744 2837 
Q 2550 3084 2163 3084 
Q 1697 3084 1428 2787 
Q 1159 2491 1159 1978 
L 1159 0 
L 581 0 
L 581 3500 
L 1159 3500 
L 1159 2956 
Q 1366 3272 1645 3428 
Q 1925 3584 2291 3584 
Q 2894 3584 3203 3211 
Q 3513 2838 3513 2113 
z
" id="DejaVuSans-6e" transform="scale(0.015625)"/>
      </defs>
      <use xlink:href="#DejaVuSans-69"/>
      <use x="27.783203" xlink:href="#DejaVuSans-74"/>
      <use x="66.992188" xlink:href="#DejaVuSans-65"/>
      <use x="128.515625" xlink:href="#DejaVuSans-72"/>
      <use x="169.628906" xlink:href="#DejaVuSans-61"/>
      <use x="230.908203" xlink:href="#DejaVuSans-74"/>
      <use x="270.117188" xlink:href="#DejaVuSans-69"/>
      <use x="297.900391" xlink:href="#DejaVuSans-6f"/>
      <use x="359.082031" xlink:href="#DejaVuSans-6e"/>
     </g>
    </g>
   </g>
   <g id="matplotlib.axis_2">
    <g id="ytick_1">
     <g id="line2d_8">
      <defs>
       <path d="M 0 0 
L -3.5 0 
" id="mb69a550ceb" style="stroke:#000000;stroke-width:0.8;"/>
      </defs>
      <g>
       <use style="stroke:#000000;stroke-width:0.8;" x="90" xlink:href="#mb69a550ceb" y="216.53625"/>
      </g>
     </g>
     <g id="text_9">
      <!-- 0.60 -->
      <g transform="translate(60.734375 220.335469)scale(0.1 -0.1)">
       <defs>
        <path d="M 684 794 
L 1344 794 
L 1344 0 
L 684 0 
L 684 794 
z
" id="DejaVuSans-2e" transform="scale(0.015625)"/>
        <path d="M 2113 2584 
Q 1688 2584 1439 2293 
Q 1191 2003 1191 1497 
Q 1191 994 1439 701 
Q 1688 409 2113 409 
Q 2538 409 2786 701 
Q 3034 994 3034 1497 
Q 3034 2003 2786 2293 
Q 2538 2584 2113 2584 
z
M 3366 4563 
L 3366 3988 
Q 3128 4100 2886 4159 
Q 2644 4219 2406 4219 
Q 1781 4219 1451 3797 
Q 1122 3375 1075 2522 
Q 1259 2794 1537 2939 
Q 1816 3084 2150 3084 
Q 2853 3084 3261 2657 
Q 3669 2231 3669 1497 
Q 3669 778 3244 343 
Q 2819 -91 2113 -91 
Q 1303 -91 875 529 
Q 447 1150 447 2328 
Q 447 3434 972 4092 
Q 1497 4750 2381 4750 
Q 2619 4750 2861 4703 
Q 3103 4656 3366 4563 
z
" id="DejaVuSans-36" transform="scale(0.015625)"/>
       </defs>
       <use xlink:href="#DejaVuSans-30"/>
       <use x="63.623047" xlink:href="#DejaVuSans-2e"/>
       <use x="95.410156" xlink:href="#DejaVuSans-36"/>
       <use x="159.033203" xlink:href="#DejaVuSans-30"/>
      </g>
     </g>
    </g>
    <g id="ytick_2">
     <g id="line2d_9">
      <g>
       <use style="stroke:#000000;stroke-width:0.8;" x="90" xlink:href="#mb69a550ceb" y="186.672997"/>
      </g>
     </g>
     <g id="text_10">
      <!-- 0.65 -->
      <g transform="translate(60.734375 190.472216)scale(0.1 -0.1)">
       <use xlink:href="#DejaVuSans-30"/>
       <use x="63.623047" xlink:href="#DejaVuSans-2e"/>
       <use x="95.410156" xlink:href="#DejaVuSans-36"/>
       <use x="159.033203" xlink:href="#DejaVuSans-35"/>
      </g>
     </g>
    </g>
    <g id="ytick_3">
     <g id="line2d_10">
      <g>
       <use style="stroke:#000000;stroke-width:0.8;" x="90" xlink:href="#mb69a550ceb" y="156.809744"/>
      </g>
     </g>
     <g id="text_11">
      <!-- 0.70 -->
      <g transform="translate(60.734375 160.608963)scale(0.1 -0.1)">
       <defs>
        <path d="M 525 4666 
L 3525 4666 
L 3525 4397 
L 1831 0 
L 1172 0 
L 2766 4134 
L 525 4134 
L 525 4666 
z
" id="DejaVuSans-37" transform="scale(0.015625)"/>
       </defs>
       <use xlink:href="#DejaVuSans-30"/>
       <use x="63.623047" xlink:href="#DejaVuSans-2e"/>
       <use x="95.410156" xlink:href="#DejaVuSans-37"/>
       <use x="159.033203" xlink:href="#DejaVuSans-30"/>
      </g>
     </g>
    </g>
    <g id="ytick_4">
     <g id="line2d_11">
      <g>
       <use style="stroke:#000000;stroke-width:0.8;" x="90" xlink:href="#mb69a550ceb" y="126.946491"/>
      </g>
     </g>
     <g id="text_12">
      <!-- 0.75 -->
      <g transform="translate(60.734375 130.74571)scale(0.1 -0.1)">
       <use xlink:href="#DejaVuSans-30"/>
       <use x="63.623047" xlink:href="#DejaVuSans-2e"/>
       <use x="95.410156" xlink:href="#DejaVuSans-37"/>
       <use x="159.033203" xlink:href="#DejaVuSans-35"/>
      </g>
     </g>
    </g>
    <g id="ytick_5">
     <g id="line2d_12">
      <g>
       <use style="stroke:#000000;stroke-width:0.8;" x="90" xlink:href="#mb69a550ceb" y="97.083239"/>
      </g>
     </g>
     <g id="text_13">
      <!-- 0.80 -->
      <g transform="translate(60.734375 100.882457)scale(0.1 -0.1)">
       <defs>
        <path d="M 2034 2216 
Q 1584 2216 1326 1975 
Q 1069 1734 1069 1313 
Q 1069 891 1326 650 
Q 1584 409 2034 409 
Q 2484 409 2743 651 
Q 3003 894 3003 1313 
Q 3003 1734 2745 1975 
Q 2488 2216 2034 2216 
z
M 1403 2484 
Q 997 2584 770 2862 
Q 544 3141 544 3541 
Q 544 4100 942 4425 
Q 1341 4750 2034 4750 
Q 2731 4750 3128 4425 
Q 3525 4100 3525 3541 
Q 3525 3141 3298 2862 
Q 3072 2584 2669 2484 
Q 3125 2378 3379 2068 
Q 3634 1759 3634 1313 
Q 3634 634 3220 271 
Q 2806 -91 2034 -91 
Q 1263 -91 848 271 
Q 434 634 434 1313 
Q 434 1759 690 2068 
Q 947 2378 1403 2484 
z
M 1172 3481 
Q 1172 3119 1398 2916 
Q 1625 2713 2034 2713 
Q 2441 2713 2670 2916 
Q 2900 3119 2900 3481 
Q 2900 3844 2670 4047 
Q 2441 4250 2034 4250 
Q 1625 4250 1398 4047 
Q 1172 3844 1172 3481 
z
" id="DejaVuSans-38" transform="scale(0.015625)"/>
       </defs>
       <use xlink:href="#DejaVuSans-30"/>
       <use x="63.623047" xlink:href="#DejaVuSans-2e"/>
       <use x="95.410156" xlink:href="#DejaVuSans-38"/>
       <use x="159.033203" xlink:href="#DejaVuSans-30"/>
      </g>
     </g>
    </g>
    <g id="ytick_6">
     <g id="line2d_13">
      <g>
       <use style="stroke:#000000;stroke-width:0.8;" x="90" xlink:href="#mb69a550ceb" y="67.219986"/>
      </g>
     </g>
     <g id="text_14">
      <!-- 0.85 -->
      <g transform="translate(60.734375 71.019205)scale(0.1 -0.1)">
       <use xlink:href="#DejaVuSans-30"/>
       <use x="63.623047" xlink:href="#DejaVuSans-2e"/>
       <use x="95.410156" xlink:href="#DejaVuSans-38"/>
       <use x="159.033203" xlink:href="#DejaVuSans-35"/>
      </g>
     </g>
    </g>
    <g id="ytick_7">
     <g id="line2d_14">
      <g>
       <use style="stroke:#000000;stroke-width:0.8;" x="90" xlink:href="#mb69a550ceb" y="37.356733"/>
      </g>
     </g>
     <g id="text_15">
      <!-- 0.90 -->
      <g transform="translate(60.734375 41.155952)scale(0.1 -0.1)">
       <defs>
        <path d="M 703 97 
L 703 672 
Q 941 559 1184 500 
Q 1428 441 1663 441 
Q 2288 441 2617 861 
Q 2947 1281 2994 2138 
Q 2813 1869 2534 1725 
Q 2256 1581 1919 1581 
Q 1219 1581 811 2004 
Q 403 2428 403 3163 
Q 403 3881 828 4315 
Q 1253 4750 1959 4750 
Q 2769 4750 3195 4129 
Q 3622 3509 3622 2328 
Q 3622 1225 3098 567 
Q 2575 -91 1691 -91 
Q 1453 -91 1209 -44 
Q 966 3 703 97 
z
M 1959 2075 
Q 2384 2075 2632 2365 
Q 2881 2656 2881 3163 
Q 2881 3666 2632 3958 
Q 2384 4250 1959 4250 
Q 1534 4250 1286 3958 
Q 1038 3666 1038 3163 
Q 1038 2656 1286 2365 
Q 1534 2075 1959 2075 
z
" id="DejaVuSans-39" transform="scale(0.015625)"/>
       </defs>
       <use xlink:href="#DejaVuSans-30"/>
       <use x="63.623047" xlink:href="#DejaVuSans-2e"/>
       <use x="95.410156" xlink:href="#DejaVuSans-39"/>
       <use x="159.033203" xlink:href="#DejaVuSans-30"/>
      </g>
     </g>
    </g>
    <g id="text_16">
     <!-- Acc -->
     <g transform="translate(54.654688 134.20125)rotate(-90)scale(0.1 -0.1)">
      <defs>
       <path d="M 2188 4044 
L 1331 1722 
L 3047 1722 
L 2188 4044 
z
M 1831 4666 
L 2547 4666 
L 4325 0 
L 3669 0 
L 3244 1197 
L 1141 1197 
L 716 0 
L 50 0 
L 1831 4666 
z
" id="DejaVuSans-41" transform="scale(0.015625)"/>
       <path d="M 3122 3366 
L 3122 2828 
Q 2878 2963 2633 3030 
Q 2388 3097 2138 3097 
Q 1578 3097 1268 2742 
Q 959 2388 959 1747 
Q 959 1106 1268 751 
Q 1578 397 2138 397 
Q 2388 397 2633 464 
Q 2878 531 3122 666 
L 3122 134 
Q 2881 22 2623 -34 
Q 2366 -91 2075 -91 
Q 1284 -91 818 406 
Q 353 903 353 1747 
Q 353 2603 823 3093 
Q 1294 3584 2113 3584 
Q 2378 3584 2631 3529 
Q 2884 3475 3122 3366 
z
" id="DejaVuSans-63" transform="scale(0.015625)"/>
      </defs>
      <use xlink:href="#DejaVuSans-41"/>
      <use x="66.658203" xlink:href="#DejaVuSans-63"/>
      <use x="121.638672" xlink:href="#DejaVuSans-63"/>
     </g>
    </g>
   </g>
   <g id="line2d_15">
    <path clip-path="url(#p88bcdc9823)" d="M 101.528926 204.82517 
L 101.913865 204.82517 
L 102.298804 202.482955 
L 103.068682 202.482955 
L 103.453621 207.167386 
L 103.83856 207.167386 
L 104.223499 209.509602 
L 105.763256 209.509602 
L 106.148195 211.851818 
L 106.533134 209.509602 
L 106.918073 211.851818 
L 107.303012 207.167386 
L 107.687951 207.167386 
L 108.07289 202.482955 
L 108.457829 202.482955 
L 109.227707 183.745227 
L 109.612646 179.060795 
L 110.767464 179.060795 
L 111.537342 174.376364 
L 112.30722 157.980852 
L 112.692159 153.29642 
L 113.077098 150.954205 
L 113.462037 146.269773 
L 113.846976 143.927557 
L 114.231915 139.243125 
L 114.616855 132.216477 
L 115.001794 129.874261 
L 115.386733 125.18983 
L 115.771672 125.18983 
L 116.54155 120.505398 
L 116.926489 113.47875 
L 117.696367 108.794318 
L 118.081306 108.794318 
L 118.466245 111.136534 
L 118.851184 106.452102 
L 119.236124 99.425455 
L 119.621063 94.741023 
L 120.006002 99.425455 
L 120.390941 97.083239 
L 120.77588 97.083239 
L 121.160819 94.741023 
L 121.545758 97.083239 
L 121.930697 97.083239 
L 122.315636 92.398807 
L 123.085514 92.398807 
L 123.470454 87.714375 
L 123.855393 87.714375 
L 124.240332 90.056591 
L 124.625271 87.714375 
L 125.395149 87.714375 
L 126.934905 78.345511 
L 127.319844 78.345511 
L 127.704783 80.687727 
L 128.089723 80.687727 
L 128.474662 85.372159 
L 129.24454 85.372159 
L 130.014418 80.687727 
L 130.399357 85.372159 
L 130.784296 87.714375 
L 131.554174 78.345511 
L 132.324052 78.345511 
L 132.708992 80.687727 
L 133.863809 73.66108 
L 134.633687 73.66108 
L 135.018626 68.976648 
L 135.403565 66.634432 
L 136.943322 66.634432 
L 137.328261 64.292216 
L 137.7132 64.292216 
L 138.098139 61.95 
L 138.483078 61.95 
L 139.252956 57.265568 
L 141.562591 57.265568 
L 141.94753 50.23892 
L 142.332469 52.581136 
L 142.717408 52.581136 
L 143.102347 50.23892 
L 147.721616 50.23892 
L 148.106555 52.581136 
L 150.801129 52.581136 
L 151.186068 50.23892 
L 156.190276 50.23892 
L 156.575215 52.581136 
L 160.039667 52.581136 
L 160.424606 50.23892 
L 168.508327 50.23892 
L 168.893266 47.896705 
L 171.587839 47.896705 
L 171.972778 50.23892 
L 276.291271 50.23892 
L 276.67621 47.896705 
L 332.107438 47.896705 
L 332.107438 47.896705 
" style="fill:none;stroke:#1f77b4;stroke-linecap:square;stroke-width:1.5;"/>
   </g>
   <g id="line2d_16">
    <path clip-path="url(#p88bcdc9823)" d="M 101.528926 184.375824 
L 102.683743 184.375824 
L 103.068682 176.71858 
L 103.453621 176.71858 
L 103.83856 184.375824 
L 104.223499 184.375824 
L 104.608438 192.033068 
L 105.378316 192.033068 
L 105.763256 199.690312 
L 106.148195 192.033068 
L 108.07289 192.033068 
L 108.457829 184.375824 
L 110.382525 184.375824 
L 110.767464 176.71858 
L 111.152403 176.71858 
L 111.922281 161.404091 
L 112.30722 161.404091 
L 113.462037 138.432358 
L 114.231915 138.432358 
L 114.616855 130.775114 
L 115.001794 130.775114 
L 115.386733 115.460625 
L 116.54155 115.460625 
L 116.926489 107.803381 
L 118.466245 107.803381 
L 118.851184 100.146136 
L 119.236124 100.146136 
L 119.621063 92.488892 
L 123.470454 92.488892 
L 123.855393 84.831648 
L 128.859601 84.831648 
L 129.24454 77.174403 
L 130.014418 77.174403 
L 130.399357 61.859915 
L 135.018626 61.859915 
L 135.403565 54.20267 
L 136.173443 54.20267 
L 136.558382 46.545426 
L 141.177651 46.545426 
L 141.562591 54.20267 
L 150.801129 54.20267 
L 151.186068 61.859915 
L 164.658936 61.859915 
L 165.043875 54.20267 
L 170.433022 54.20267 
L 170.817961 46.545426 
L 225.094372 46.545426 
L 225.479311 38.888182 
L 332.107438 38.888182 
L 332.107438 38.888182 
" style="fill:none;stroke:#ff7f0e;stroke-linecap:square;stroke-width:1.5;"/>
   </g>
   <g id="line2d_17"/>
   <g id="line2d_18"/>
   <g id="patch_3">
    <path d="M 90 220.5 
L 90 30.24 
" style="fill:none;stroke:#000000;stroke-linecap:square;stroke-linejoin:miter;stroke-width:0.8;"/>
   </g>
   <g id="patch_4">
    <path d="M 343.636364 220.5 
L 343.636364 30.24 
" style="fill:none;stroke:#000000;stroke-linecap:square;stroke-linejoin:miter;stroke-width:0.8;"/>
   </g>
   <g id="patch_5">
    <path d="M 90 220.5 
L 343.636364 220.5 
" style="fill:none;stroke:#000000;stroke-linecap:square;stroke-linejoin:miter;stroke-width:0.8;"/>
   </g>
   <g id="patch_6">
    <path d="M 90 30.24 
L 343.636364 30.24 
" style="fill:none;stroke:#000000;stroke-linecap:square;stroke-linejoin:miter;stroke-width:0.8;"/>
   </g>
   <g id="legend_1">
    <g id="patch_7">
     <path d="M 280.648864 215.5 
L 336.636364 215.5 
Q 338.636364 215.5 338.636364 213.5 
L 338.636364 170.465625 
Q 338.636364 168.465625 336.636364 168.465625 
L 280.648864 168.465625 
Q 278.648864 168.465625 278.648864 170.465625 
L 278.648864 213.5 
Q 278.648864 215.5 280.648864 215.5 
z
" style="fill:#ffffff;opacity:0.8;stroke:#cccccc;stroke-linejoin:miter;"/>
    </g>
    <g id="text_17">
     <!-- Subset -->
     <g transform="translate(291.48402 180.064063)scale(0.1 -0.1)">
      <defs>
       <path d="M 3425 4513 
L 3425 3897 
Q 3066 4069 2747 4153 
Q 2428 4238 2131 4238 
Q 1616 4238 1336 4038 
Q 1056 3838 1056 3469 
Q 1056 3159 1242 3001 
Q 1428 2844 1947 2747 
L 2328 2669 
Q 3034 2534 3370 2195 
Q 3706 1856 3706 1288 
Q 3706 609 3251 259 
Q 2797 -91 1919 -91 
Q 1588 -91 1214 -16 
Q 841 59 441 206 
L 441 856 
Q 825 641 1194 531 
Q 1563 422 1919 422 
Q 2459 422 2753 634 
Q 3047 847 3047 1241 
Q 3047 1584 2836 1778 
Q 2625 1972 2144 2069 
L 1759 2144 
Q 1053 2284 737 2584 
Q 422 2884 422 3419 
Q 422 4038 858 4394 
Q 1294 4750 2059 4750 
Q 2388 4750 2728 4690 
Q 3069 4631 3425 4513 
z
" id="DejaVuSans-53" transform="scale(0.015625)"/>
       <path d="M 544 1381 
L 544 3500 
L 1119 3500 
L 1119 1403 
Q 1119 906 1312 657 
Q 1506 409 1894 409 
Q 2359 409 2629 706 
Q 2900 1003 2900 1516 
L 2900 3500 
L 3475 3500 
L 3475 0 
L 2900 0 
L 2900 538 
Q 2691 219 2414 64 
Q 2138 -91 1772 -91 
Q 1169 -91 856 284 
Q 544 659 544 1381 
z
M 1991 3584 
L 1991 3584 
z
" id="DejaVuSans-75" transform="scale(0.015625)"/>
       <path d="M 3116 1747 
Q 3116 2381 2855 2742 
Q 2594 3103 2138 3103 
Q 1681 3103 1420 2742 
Q 1159 2381 1159 1747 
Q 1159 1113 1420 752 
Q 1681 391 2138 391 
Q 2594 391 2855 752 
Q 3116 1113 3116 1747 
z
M 1159 2969 
Q 1341 3281 1617 3432 
Q 1894 3584 2278 3584 
Q 2916 3584 3314 3078 
Q 3713 2572 3713 1747 
Q 3713 922 3314 415 
Q 2916 -91 2278 -91 
Q 1894 -91 1617 61 
Q 1341 213 1159 525 
L 1159 0 
L 581 0 
L 581 4863 
L 1159 4863 
L 1159 2969 
z
" id="DejaVuSans-62" transform="scale(0.015625)"/>
       <path d="M 2834 3397 
L 2834 2853 
Q 2591 2978 2328 3040 
Q 2066 3103 1784 3103 
Q 1356 3103 1142 2972 
Q 928 2841 928 2578 
Q 928 2378 1081 2264 
Q 1234 2150 1697 2047 
L 1894 2003 
Q 2506 1872 2764 1633 
Q 3022 1394 3022 966 
Q 3022 478 2636 193 
Q 2250 -91 1575 -91 
Q 1294 -91 989 -36 
Q 684 19 347 128 
L 347 722 
Q 666 556 975 473 
Q 1284 391 1588 391 
Q 1994 391 2212 530 
Q 2431 669 2431 922 
Q 2431 1156 2273 1281 
Q 2116 1406 1581 1522 
L 1381 1569 
Q 847 1681 609 1914 
Q 372 2147 372 2553 
Q 372 3047 722 3315 
Q 1072 3584 1716 3584 
Q 2034 3584 2315 3537 
Q 2597 3491 2834 3397 
z
" id="DejaVuSans-73" transform="scale(0.015625)"/>
      </defs>
      <use xlink:href="#DejaVuSans-53"/>
      <use x="63.476562" xlink:href="#DejaVuSans-75"/>
      <use x="126.855469" xlink:href="#DejaVuSans-62"/>
      <use x="190.332031" xlink:href="#DejaVuSans-73"/>
      <use x="242.431641" xlink:href="#DejaVuSans-65"/>
      <use x="303.955078" xlink:href="#DejaVuSans-74"/>
     </g>
    </g>
    <g id="line2d_19">
     <path d="M 282.648864 191.242188 
L 302.648864 191.242188 
" style="fill:none;stroke:#1f77b4;stroke-linecap:square;stroke-width:1.5;"/>
    </g>
    <g id="line2d_20"/>
    <g id="text_18">
     <!-- Train -->
     <g transform="translate(310.648864 194.742188)scale(0.1 -0.1)">
      <defs>
       <path d="M -19 4666 
L 3928 4666 
L 3928 4134 
L 2272 4134 
L 2272 0 
L 1638 0 
L 1638 4134 
L -19 4134 
L -19 4666 
z
" id="DejaVuSans-54" transform="scale(0.015625)"/>
      </defs>
      <use xlink:href="#DejaVuSans-54"/>
      <use x="46.333984" xlink:href="#DejaVuSans-72"/>
      <use x="87.447266" xlink:href="#DejaVuSans-61"/>
      <use x="148.726562" xlink:href="#DejaVuSans-69"/>
      <use x="176.509766" xlink:href="#DejaVuSans-6e"/>
     </g>
    </g>
    <g id="line2d_21">
     <path d="M 282.648864 205.920313 
L 302.648864 205.920313 
" style="fill:none;stroke:#ff7f0e;stroke-linecap:square;stroke-width:1.5;"/>
    </g>
    <g id="line2d_22"/>
    <g id="text_19">
     <!-- Test -->
     <g transform="translate(310.648864 209.420313)scale(0.1 -0.1)">
      <use xlink:href="#DejaVuSans-54"/>
      <use x="44.083984" xlink:href="#DejaVuSans-65"/>
      <use x="105.607422" xlink:href="#DejaVuSans-73"/>
      <use x="157.707031" xlink:href="#DejaVuSans-74"/>
     </g>
    </g>
   </g>
  </g>
  <g id="axes_2">
   <g id="patch_8">
    <path d="M 394.363636 220.5 
L 648 220.5 
L 648 30.24 
L 394.363636 30.24 
z
" style="fill:#ffffff;"/>
   </g>
   <g id="PolyCollection_1">
    <defs>
     <path d="M 405.892562 -213.111818 
L 405.892562 -205.783162 
L 406.277501 -204.094534 
L 406.66244 -202.386874 
L 407.047379 -200.66029 
L 407.432318 -198.915015 
L 407.817257 -197.151405 
L 408.202196 -195.369934 
L 408.587136 -193.571187 
L 408.972075 -191.755856 
L 409.357014 -189.92473 
L 409.741953 -188.078688 
L 410.126892 -186.218693 
L 410.511831 -184.345785 
L 410.89677 -182.461068 
L 411.281709 -180.565708 
L 411.666648 -178.66092 
L 412.051587 -176.747963 
L 412.436526 -174.828132 
L 412.821466 -172.902748 
L 413.206405 -170.973152 
L 413.591344 -169.040698 
L 413.976283 -167.106746 
L 414.361222 -165.172654 
L 414.746161 -163.239775 
L 415.1311 -161.309445 
L 415.516039 -159.382986 
L 415.900978 -157.461693 
L 416.285917 -155.546835 
L 416.670856 -153.639646 
L 417.055795 -151.741328 
L 417.440735 -149.853039 
L 417.825674 -147.975899 
L 418.210613 -146.110979 
L 418.595552 -144.259307 
L 418.980491 -142.421861 
L 419.36543 -140.599567 
L 419.750369 -138.793304 
L 420.135308 -137.003896 
L 420.520247 -135.232117 
L 420.905186 -133.47869 
L 421.290125 -131.744283 
L 421.675065 -130.029515 
L 422.060004 -128.334955 
L 422.444943 -126.661118 
L 422.829882 -125.008476 
L 423.214821 -123.377448 
L 423.59976 -121.76841 
L 423.984699 -120.18169 
L 424.369638 -118.617576 
L 424.754577 -117.07631 
L 425.139516 -115.558096 
L 425.524455 -114.063099 
L 425.909394 -112.591446 
L 426.294334 -111.14323 
L 426.679273 -109.718509 
L 427.064212 -108.31731 
L 427.449151 -106.93963 
L 427.83409 -105.585436 
L 428.219029 -104.254671 
L 428.603968 -102.947251 
L 428.988907 -101.663068 
L 429.373846 -100.401994 
L 429.758785 -99.163879 
L 430.143724 -97.948556 
L 430.528663 -96.755838 
L 430.913603 -95.585524 
L 431.298542 -94.437398 
L 431.683481 -93.311231 
L 432.06842 -92.20678 
L 432.453359 -91.123793 
L 432.838298 -90.062007 
L 433.223237 -89.021151 
L 433.608176 -88.000946 
L 433.993115 -87.001105 
L 434.378054 -86.021338 
L 434.762993 -85.061346 
L 435.147933 -84.120829 
L 435.532872 -83.199482 
L 435.917811 -82.296998 
L 436.30275 -81.413066 
L 436.687689 -80.547377 
L 437.072628 -79.699617 
L 437.457567 -78.869475 
L 437.842506 -78.056638 
L 438.227445 -77.260794 
L 438.612384 -76.481634 
L 438.997323 -75.718846 
L 439.382262 -74.972125 
L 439.767202 -74.241164 
L 440.152141 -73.525661 
L 440.53708 -72.825314 
L 440.922019 -72.139827 
L 441.306958 -71.468906 
L 441.691897 -70.812258 
L 442.076836 -70.169597 
L 442.461775 -69.540639 
L 442.846714 -68.925104 
L 443.231653 -68.322715 
L 443.616592 -67.733201 
L 444.001531 -67.156294 
L 444.386471 -66.591729 
L 444.77141 -66.039248 
L 445.156349 -65.498596 
L 445.541288 -64.969522 
L 445.926227 -64.451778 
L 446.311166 -63.945124 
L 446.696105 -63.449322 
L 447.081044 -62.964139 
L 447.465983 -62.489346 
L 447.850922 -62.024718 
L 448.235861 -61.570036 
L 448.620801 -61.125084 
L 449.00574 -60.689651 
L 449.390679 -60.263529 
L 449.775618 -59.846516 
L 450.160557 -59.438414 
L 450.545496 -59.039028 
L 450.930435 -58.648167 
L 451.315374 -58.265646 
L 451.700313 -57.891282 
L 452.085252 -57.524897 
L 452.470191 -57.166315 
L 452.85513 -56.815368 
L 453.24007 -56.471886 
L 453.625009 -56.135709 
L 454.009948 -55.806674 
L 454.394887 -55.484628 
L 454.779826 -55.169417 
L 455.164765 -54.860891 
L 455.549704 -54.558906 
L 455.934643 -54.263319 
L 456.319582 -53.973989 
L 456.704521 -53.690783 
L 457.08946 -53.413565 
L 457.474399 -53.142207 
L 457.859339 -52.876582 
L 458.244278 -52.616565 
L 458.629217 -52.362035 
L 459.014156 -52.112874 
L 459.399095 -51.868966 
L 459.784034 -51.630197 
L 460.168973 -51.396459 
L 460.553912 -51.167642 
L 460.938851 -50.943641 
L 461.32379 -50.724354 
L 461.708729 -50.50968 
L 462.093669 -50.29952 
L 462.478608 -50.093778 
L 462.863547 -49.892361 
L 463.248486 -49.695177 
L 463.633425 -49.502137 
L 464.018364 -49.313153 
L 464.403303 -49.128139 
L 464.788242 -48.947012 
L 465.173181 -48.769691 
L 465.55812 -48.596096 
L 465.943059 -48.426149 
L 466.327998 -48.259774 
L 466.712938 -48.096896 
L 467.097877 -47.937444 
L 467.482816 -47.781345 
L 467.867755 -47.628531 
L 468.252694 -47.478934 
L 468.637633 -47.332488 
L 469.022572 -47.189127 
L 469.407511 -47.048788 
L 469.79245 -46.911411 
L 470.177389 -46.776933 
L 470.562328 -46.645297 
L 470.947267 -46.516444 
L 471.332207 -46.390318 
L 471.717146 -46.266864 
L 472.102085 -46.146027 
L 472.487024 -46.027755 
L 472.871963 -45.911996 
L 473.256902 -45.798701 
L 473.641841 -45.687818 
L 474.02678 -45.579301 
L 474.411719 -45.473102 
L 474.796658 -45.369175 
L 475.181597 -45.267475 
L 475.566537 -45.167957 
L 475.951476 -45.070579 
L 476.336415 -44.975298 
L 476.721354 -44.882073 
L 477.106293 -44.790864 
L 477.491232 -44.70163 
L 477.876171 -44.614334 
L 478.26111 -44.528937 
L 478.646049 -44.445403 
L 479.030988 -44.363694 
L 479.415927 -44.283776 
L 479.800866 -44.205615 
L 480.185806 -44.129175 
L 480.570745 -44.054423 
L 480.955684 -43.981328 
L 481.340623 -43.909858 
L 481.725562 -43.83998 
L 482.110501 -43.771665 
L 482.49544 -43.704883 
L 482.880379 -43.639604 
L 483.265318 -43.5758 
L 483.650257 -43.513443 
L 484.035196 -43.452504 
L 484.420135 -43.392959 
L 484.805075 -43.334779 
L 485.190014 -43.277939 
L 485.574953 -43.222415 
L 485.959892 -43.16818 
L 486.344831 -43.115212 
L 486.72977 -43.063486 
L 487.114709 -43.012978 
L 487.499648 -42.963667 
L 487.884587 -42.91553 
L 488.269526 -42.868544 
L 488.654465 -42.822689 
L 489.039405 -42.777944 
L 489.424344 -42.734287 
L 489.809283 -42.691699 
L 490.194222 -42.65016 
L 490.579161 -42.609651 
L 490.9641 -42.570152 
L 491.349039 -42.531646 
L 491.733978 -42.494113 
L 492.118917 -42.457536 
L 492.503856 -42.421897 
L 492.888795 -42.387179 
L 493.273734 -42.353366 
L 493.658674 -42.320441 
L 494.043613 -42.288387 
L 494.428552 -42.257189 
L 494.813491 -42.226831 
L 495.19843 -42.197298 
L 495.583369 -42.168575 
L 495.968308 -42.140647 
L 496.353247 -42.1135 
L 496.738186 -42.087119 
L 497.123125 -42.061492 
L 497.508064 -42.036604 
L 497.893003 -42.012441 
L 498.277943 -41.988992 
L 498.662882 -41.96594 
L 499.047821 -41.924903 
L 499.43276 -41.884605 
L 499.817699 -41.845032 
L 500.202638 -41.806174 
L 500.587577 -41.768018 
L 500.972516 -41.730553 
L 501.357455 -41.693769 
L 501.742394 -41.657655 
L 502.127333 -41.622198 
L 502.512273 -41.58739 
L 502.897212 -41.55322 
L 503.282151 -41.519677 
L 503.66709 -41.486752 
L 504.052029 -41.454435 
L 504.436968 -41.422716 
L 504.821907 -41.391586 
L 505.206846 -41.361035 
L 505.591785 -41.331055 
L 505.976724 -41.301636 
L 506.361663 -41.27277 
L 506.746602 -41.244447 
L 507.131542 -41.21666 
L 507.516481 -41.1894 
L 507.90142 -41.162659 
L 508.286359 -41.136429 
L 508.671298 -41.110701 
L 509.056237 -41.085469 
L 509.441176 -41.060724 
L 509.826115 -41.036459 
L 510.211054 -41.012666 
L 510.595993 -40.989339 
L 510.980932 -40.96647 
L 511.365871 -40.944051 
L 511.750811 -40.922077 
L 512.13575 -40.900541 
L 512.520689 -40.879435 
L 512.905628 -40.858753 
L 513.290567 -40.838489 
L 513.675506 -40.818636 
L 514.060445 -40.799188 
L 514.445384 -40.780139 
L 514.830323 -40.761483 
L 515.215262 -40.743214 
L 515.600201 -40.725326 
L 515.985141 -40.707813 
L 516.37008 -40.69067 
L 516.755019 -40.673891 
L 517.139958 -40.657472 
L 517.524897 -40.641405 
L 517.909836 -40.625686 
L 518.294775 -40.610311 
L 518.679714 -40.595273 
L 519.064653 -40.580568 
L 519.449592 -40.56619 
L 519.834531 -40.552136 
L 520.21947 -40.538399 
L 520.60441 -40.524976 
L 520.989349 -40.511862 
L 521.374288 -40.499052 
L 521.759227 -40.486541 
L 522.144166 -40.474326 
L 522.529105 -40.462402 
L 522.914044 -40.450764 
L 523.298983 -40.439409 
L 523.683922 -40.428332 
L 524.068861 -40.417529 
L 524.4538 -40.406996 
L 524.838739 -40.39673 
L 525.223679 -40.386726 
L 525.608618 -40.37698 
L 525.993557 -40.367489 
L 526.378496 -40.358249 
L 526.763435 -40.349257 
L 527.148374 -40.340508 
L 527.533313 -40.332 
L 527.918252 -40.323728 
L 528.303191 -40.315689 
L 528.68813 -40.30788 
L 529.073069 -40.300298 
L 529.458009 -40.29294 
L 529.842948 -40.285801 
L 530.227887 -40.278879 
L 530.612826 -40.272171 
L 530.997765 -40.265673 
L 531.382704 -40.259383 
L 531.767643 -40.253298 
L 532.152582 -40.247415 
L 532.537521 -40.24173 
L 532.92246 -40.236241 
L 533.307399 -40.230945 
L 533.692338 -40.22584 
L 534.077278 -40.220922 
L 534.462217 -40.216189 
L 534.847156 -40.211639 
L 535.232095 -40.207268 
L 535.617034 -40.203074 
L 536.001973 -40.199055 
L 536.386912 -40.195208 
L 536.771851 -40.19153 
L 537.15679 -40.18802 
L 537.541729 -40.184674 
L 537.926668 -40.181491 
L 538.311608 -40.178468 
L 538.696547 -40.175602 
L 539.081486 -40.172893 
L 539.466425 -40.170337 
L 539.851364 -40.167931 
L 540.236303 -40.165675 
L 540.621242 -40.163566 
L 541.006181 -40.161602 
L 541.39112 -40.15978 
L 541.776059 -40.1581 
L 542.160998 -40.156557 
L 542.545937 -40.155152 
L 542.930877 -40.153881 
L 543.315816 -40.152744 
L 543.700755 -40.151737 
L 544.085694 -40.15086 
L 544.470633 -40.150109 
L 544.855572 -40.149485 
L 545.240511 -40.148984 
L 545.62545 -40.148605 
L 546.010389 -40.148346 
L 546.395328 -40.148205 
L 546.780267 -40.148182 
L 547.165206 -40.148273 
L 547.550146 -40.148479 
L 547.935085 -40.148796 
L 548.320024 -40.149223 
L 548.704963 -40.149759 
L 549.089902 -40.150403 
L 549.474841 -40.151152 
L 549.85978 -40.152005 
L 550.244719 -40.152961 
L 550.629658 -40.154018 
L 551.014597 -40.155175 
L 551.399536 -40.15643 
L 551.784476 -40.157783 
L 552.169415 -40.159231 
L 552.554354 -40.160773 
L 552.939293 -40.162408 
L 553.324232 -40.164134 
L 553.709171 -40.165951 
L 554.09411 -40.167857 
L 554.479049 -40.16985 
L 554.863988 -40.17193 
L 555.248927 -40.174095 
L 555.633866 -40.176344 
L 556.018805 -40.178675 
L 556.403745 -40.181089 
L 556.788684 -40.183582 
L 557.173623 -40.186155 
L 557.558562 -40.188806 
L 557.943501 -40.191534 
L 558.32844 -40.194338 
L 558.713379 -40.197216 
L 559.098318 -40.200169 
L 559.483257 -40.203194 
L 559.868196 -40.20629 
L 560.253135 -40.209457 
L 560.638074 -40.212694 
L 561.023014 -40.215999 
L 561.407953 -40.219371 
L 561.792892 -40.22281 
L 562.177831 -40.226315 
L 562.56277 -40.229884 
L 562.947709 -40.233517 
L 563.332648 -40.237213 
L 563.717587 -40.24097 
L 564.102526 -40.244789 
L 564.487465 -40.248667 
L 564.872404 -40.252605 
L 565.257344 -40.2566 
L 565.642283 -40.260654 
L 566.027222 -40.264763 
L 566.412161 -40.268929 
L 566.7971 -40.273149 
L 567.182039 -40.277424 
L 567.566978 -40.281751 
L 567.951917 -40.286131 
L 568.336856 -40.290563 
L 568.721795 -40.295046 
L 569.106734 -40.299579 
L 569.491673 -40.304161 
L 569.876613 -40.308792 
L 570.261552 -40.313471 
L 570.646491 -40.318197 
L 571.03143 -40.32297 
L 571.416369 -40.327788 
L 571.801308 -40.332651 
L 572.186247 -40.337559 
L 572.571186 -40.342511 
L 572.956125 -40.347505 
L 573.341064 -40.352542 
L 573.726003 -40.357621 
L 574.110942 -40.362741 
L 574.495882 -40.367901 
L 574.880821 -40.373101 
L 575.26576 -40.378341 
L 575.650699 -40.383619 
L 576.035638 -40.388935 
L 576.420577 -40.394288 
L 576.805516 -40.399678 
L 577.190455 -40.405105 
L 577.575394 -40.410567 
L 577.960333 -40.416064 
L 578.345272 -40.421595 
L 578.730212 -40.427161 
L 579.115151 -40.43276 
L 579.50009 -40.438392 
L 579.885029 -40.444057 
L 580.269968 -40.449753 
L 580.654907 -40.45548 
L 581.039846 -40.461239 
L 581.424785 -40.467027 
L 581.809724 -40.472846 
L 582.194663 -40.478694 
L 582.579602 -40.48457 
L 582.964541 -40.490475 
L 583.349481 -40.496408 
L 583.73442 -40.502368 
L 584.119359 -40.508356 
L 584.504298 -40.51437 
L 584.889237 -40.520409 
L 585.274176 -40.526475 
L 585.659115 -40.532565 
L 586.044054 -40.538681 
L 586.428993 -40.54482 
L 586.813932 -40.550984 
L 587.198871 -40.557171 
L 587.58381 -40.563381 
L 587.96875 -40.569614 
L 588.353689 -40.575868 
L 588.738628 -40.582145 
L 589.123567 -40.588443 
L 589.508506 -40.594763 
L 589.893445 -40.601103 
L 590.278384 -40.607463 
L 590.663323 -40.613843 
L 591.048262 -40.620243 
L 591.433201 -40.626662 
L 591.81814 -40.6331 
L 592.20308 -40.639556 
L 592.588019 -40.646031 
L 592.972958 -40.652523 
L 593.357897 -40.659033 
L 593.742836 -40.66556 
L 594.127775 -40.672103 
L 594.512714 -40.678663 
L 594.897653 -40.68524 
L 595.282592 -40.691832 
L 595.667531 -40.698439 
L 596.05247 -40.705062 
L 596.437409 -40.711699 
L 596.822349 -40.718352 
L 597.207288 -40.725018 
L 597.592227 -40.731698 
L 597.977166 -40.738392 
L 598.362105 -40.7451 
L 598.747044 -40.75182 
L 599.131983 -40.758554 
L 599.516922 -40.7653 
L 599.901861 -40.772058 
L 600.2868 -40.778828 
L 600.671739 -40.78561 
L 601.056678 -40.792403 
L 601.441618 -40.799207 
L 601.826557 -40.806023 
L 602.211496 -40.812849 
L 602.596435 -40.819685 
L 602.981374 -40.826532 
L 603.366313 -40.833388 
L 603.751252 -40.840254 
L 604.136191 -40.84713 
L 604.52113 -40.854014 
L 604.906069 -40.860908 
L 605.291008 -40.867811 
L 605.675948 -40.874721 
L 606.060887 -40.881641 
L 606.445826 -40.888568 
L 606.830765 -40.895503 
L 607.215704 -40.902445 
L 607.600643 -40.909395 
L 607.985582 -40.916353 
L 608.370521 -40.923317 
L 608.75546 -40.930288 
L 609.140399 -40.937265 
L 609.525338 -40.944249 
L 609.910277 -40.951239 
L 610.295217 -40.958234 
L 610.680156 -40.965236 
L 611.065095 -40.972243 
L 611.450034 -40.979255 
L 611.834973 -40.986273 
L 612.219912 -40.993296 
L 612.604851 -41.000323 
L 612.98979 -41.007355 
L 613.374729 -41.014391 
L 613.759668 -41.021432 
L 614.144607 -41.028477 
L 614.529546 -41.035526 
L 614.914486 -41.042578 
L 615.299425 -41.049634 
L 615.684364 -41.056693 
L 616.069303 -41.063756 
L 616.454242 -41.070822 
L 616.839181 -41.07789 
L 617.22412 -41.084962 
L 617.609059 -41.092036 
L 617.993998 -41.099112 
L 618.378937 -41.106191 
L 618.763876 -41.113272 
L 619.148816 -41.120354 
L 619.533755 -41.127439 
L 619.918694 -41.134525 
L 620.303633 -41.141613 
L 620.688572 -41.148702 
L 621.073511 -41.155793 
L 621.45845 -41.162885 
L 621.843389 -41.169977 
L 622.228328 -41.177071 
L 622.613267 -41.184165 
L 622.998206 -41.19126 
L 623.383145 -41.198355 
L 623.768085 -41.205451 
L 624.153024 -41.212546 
L 624.537963 -41.219642 
L 624.922902 -41.226738 
L 625.307841 -41.233834 
L 625.69278 -41.240929 
L 626.077719 -41.248024 
L 626.462658 -41.255118 
L 626.847597 -41.262212 
L 627.232536 -41.269305 
L 627.617475 -41.276397 
L 628.002414 -41.283488 
L 628.387354 -41.290578 
L 628.772293 -41.297667 
L 629.157232 -41.304755 
L 629.542171 -41.311841 
L 629.92711 -41.318925 
L 630.312049 -41.326008 
L 630.696988 -41.333089 
L 631.081927 -41.340168 
L 631.466866 -41.347246 
L 631.851805 -41.354321 
L 632.236744 -41.361394 
L 632.621684 -41.368465 
L 633.006623 -41.375534 
L 633.391562 -41.3826 
L 633.776501 -41.389664 
L 634.16144 -41.396725 
L 634.546379 -41.403783 
L 634.931318 -41.410838 
L 635.316257 -41.417891 
L 635.701196 -41.424941 
L 636.086135 -41.431987 
L 636.471074 -41.439031 
L 636.471074 -45.114779 
L 636.471074 -45.114779 
L 636.086135 -45.102939 
L 635.701196 -45.09108 
L 635.316257 -45.079201 
L 634.931318 -45.067303 
L 634.546379 -45.055384 
L 634.16144 -45.043446 
L 633.776501 -45.031487 
L 633.391562 -45.019509 
L 633.006623 -45.007511 
L 632.621684 -44.995494 
L 632.236744 -44.983456 
L 631.851805 -44.971399 
L 631.466866 -44.959322 
L 631.081927 -44.947226 
L 630.696988 -44.93511 
L 630.312049 -44.922974 
L 629.92711 -44.910818 
L 629.542171 -44.898643 
L 629.157232 -44.886449 
L 628.772293 -44.874235 
L 628.387354 -44.862001 
L 628.002414 -44.849748 
L 627.617475 -44.837475 
L 627.232536 -44.825183 
L 626.847597 -44.812871 
L 626.462658 -44.80054 
L 626.077719 -44.78819 
L 625.69278 -44.775821 
L 625.307841 -44.763432 
L 624.922902 -44.751024 
L 624.537963 -44.738596 
L 624.153024 -44.72615 
L 623.768085 -44.713684 
L 623.383145 -44.7012 
L 622.998206 -44.688696 
L 622.613267 -44.676173 
L 622.228328 -44.663631 
L 621.843389 -44.651071 
L 621.45845 -44.638491 
L 621.073511 -44.625893 
L 620.688572 -44.613276 
L 620.303633 -44.60064 
L 619.918694 -44.587985 
L 619.533755 -44.575312 
L 619.148816 -44.562621 
L 618.763876 -44.54991 
L 618.378937 -44.537182 
L 617.993998 -44.524435 
L 617.609059 -44.511669 
L 617.22412 -44.498885 
L 616.839181 -44.486083 
L 616.454242 -44.473263 
L 616.069303 -44.460425 
L 615.684364 -44.447569 
L 615.299425 -44.434695 
L 614.914486 -44.421802 
L 614.529546 -44.408893 
L 614.144607 -44.395965 
L 613.759668 -44.383019 
L 613.374729 -44.370056 
L 612.98979 -44.357076 
L 612.604851 -44.344078 
L 612.219912 -44.331063 
L 611.834973 -44.31803 
L 611.450034 -44.30498 
L 611.065095 -44.291913 
L 610.680156 -44.278829 
L 610.295217 -44.265728 
L 609.910277 -44.252611 
L 609.525338 -44.239476 
L 609.140399 -44.226325 
L 608.75546 -44.213157 
L 608.370521 -44.199973 
L 607.985582 -44.186772 
L 607.600643 -44.173555 
L 607.215704 -44.160322 
L 606.830765 -44.147073 
L 606.445826 -44.133808 
L 606.060887 -44.120527 
L 605.675948 -44.107231 
L 605.291008 -44.093919 
L 604.906069 -44.080591 
L 604.52113 -44.067248 
L 604.136191 -44.05389 
L 603.751252 -44.040516 
L 603.366313 -44.027128 
L 602.981374 -44.013725 
L 602.596435 -44.000306 
L 602.211496 -43.986874 
L 601.826557 -43.973427 
L 601.441618 -43.959965 
L 601.056678 -43.94649 
L 600.671739 -43.933 
L 600.2868 -43.919497 
L 599.901861 -43.905979 
L 599.516922 -43.892448 
L 599.131983 -43.878904 
L 598.747044 -43.865346 
L 598.362105 -43.851776 
L 597.977166 -43.838192 
L 597.592227 -43.824596 
L 597.207288 -43.810986 
L 596.822349 -43.797365 
L 596.437409 -43.783731 
L 596.05247 -43.770085 
L 595.667531 -43.756427 
L 595.282592 -43.742758 
L 594.897653 -43.729077 
L 594.512714 -43.715384 
L 594.127775 -43.701681 
L 593.742836 -43.687966 
L 593.357897 -43.674241 
L 592.972958 -43.660505 
L 592.588019 -43.646759 
L 592.20308 -43.633003 
L 591.81814 -43.619236 
L 591.433201 -43.605461 
L 591.048262 -43.591675 
L 590.663323 -43.577881 
L 590.278384 -43.564077 
L 589.893445 -43.550265 
L 589.508506 -43.536444 
L 589.123567 -43.522615 
L 588.738628 -43.508777 
L 588.353689 -43.494932 
L 587.96875 -43.48108 
L 587.58381 -43.46722 
L 587.198871 -43.453353 
L 586.813932 -43.43948 
L 586.428993 -43.425599 
L 586.044054 -43.411713 
L 585.659115 -43.397821 
L 585.274176 -43.383923 
L 584.889237 -43.37002 
L 584.504298 -43.356112 
L 584.119359 -43.342199 
L 583.73442 -43.328282 
L 583.349481 -43.314361 
L 582.964541 -43.300435 
L 582.579602 -43.286507 
L 582.194663 -43.272575 
L 581.809724 -43.25864 
L 581.424785 -43.244703 
L 581.039846 -43.230764 
L 580.654907 -43.216823 
L 580.269968 -43.202881 
L 579.885029 -43.188937 
L 579.50009 -43.174993 
L 579.115151 -43.161049 
L 578.730212 -43.147104 
L 578.345272 -43.13316 
L 577.960333 -43.119217 
L 577.575394 -43.105275 
L 577.190455 -43.091335 
L 576.805516 -43.077396 
L 576.420577 -43.063461 
L 576.035638 -43.049528 
L 575.650699 -43.035598 
L 575.26576 -43.021672 
L 574.880821 -43.007751 
L 574.495882 -42.993834 
L 574.110942 -42.979922 
L 573.726003 -42.966016 
L 573.341064 -42.952115 
L 572.956125 -42.938222 
L 572.571186 -42.924335 
L 572.186247 -42.910456 
L 571.801308 -42.896585 
L 571.416369 -42.882722 
L 571.03143 -42.868868 
L 570.646491 -42.855024 
L 570.261552 -42.841191 
L 569.876613 -42.827367 
L 569.491673 -42.813556 
L 569.106734 -42.799755 
L 568.721795 -42.785968 
L 568.336856 -42.772193 
L 567.951917 -42.758432 
L 567.566978 -42.744685 
L 567.182039 -42.730952 
L 566.7971 -42.717235 
L 566.412161 -42.703534 
L 566.027222 -42.68985 
L 565.642283 -42.676183 
L 565.257344 -42.662534 
L 564.872404 -42.648904 
L 564.487465 -42.635292 
L 564.102526 -42.621701 
L 563.717587 -42.608131 
L 563.332648 -42.594582 
L 562.947709 -42.581055 
L 562.56277 -42.567552 
L 562.177831 -42.554071 
L 561.792892 -42.540616 
L 561.407953 -42.527185 
L 561.023014 -42.51378 
L 560.638074 -42.500402 
L 560.253135 -42.487052 
L 559.868196 -42.47373 
L 559.483257 -42.460438 
L 559.098318 -42.447175 
L 558.713379 -42.433944 
L 558.32844 -42.420744 
L 557.943501 -42.407577 
L 557.558562 -42.394444 
L 557.173623 -42.381345 
L 556.788684 -42.368282 
L 556.403745 -42.355255 
L 556.018805 -42.342265 
L 555.633866 -42.329314 
L 555.248927 -42.316403 
L 554.863988 -42.303532 
L 554.479049 -42.290702 
L 554.09411 -42.277915 
L 553.709171 -42.265171 
L 553.324232 -42.252472 
L 552.939293 -42.239819 
L 552.554354 -42.227212 
L 552.169415 -42.214653 
L 551.784476 -42.202144 
L 551.399536 -42.189685 
L 551.014597 -42.177277 
L 550.629658 -42.164922 
L 550.244719 -42.152621 
L 549.85978 -42.140375 
L 549.474841 -42.128186 
L 549.089902 -42.116054 
L 548.704963 -42.103981 
L 548.320024 -42.091969 
L 547.935085 -42.080018 
L 547.550146 -42.06813 
L 547.165206 -42.056307 
L 546.780267 -42.044549 
L 546.395328 -42.032859 
L 546.010389 -42.021238 
L 545.62545 -42.009687 
L 545.240511 -41.998207 
L 544.855572 -41.986801 
L 544.470633 -41.97547 
L 544.085694 -41.964215 
L 543.700755 -41.953038 
L 543.315816 -41.941941 
L 542.930877 -41.930926 
L 542.545937 -41.919993 
L 542.160998 -41.909145 
L 541.776059 -41.898383 
L 541.39112 -41.88771 
L 541.006181 -41.877126 
L 540.621242 -41.866635 
L 540.236303 -41.856237 
L 539.851364 -41.845935 
L 539.466425 -41.83573 
L 539.081486 -41.825625 
L 538.696547 -41.815621 
L 538.311608 -41.805721 
L 537.926668 -41.795927 
L 537.541729 -41.786239 
L 537.15679 -41.776662 
L 536.771851 -41.767197 
L 536.386912 -41.757845 
L 536.001973 -41.74861 
L 535.617034 -41.739494 
L 535.232095 -41.730498 
L 534.847156 -41.721625 
L 534.462217 -41.712878 
L 534.077278 -41.704259 
L 533.692338 -41.695771 
L 533.307399 -41.687415 
L 532.92246 -41.679195 
L 532.537521 -41.671113 
L 532.152582 -41.663171 
L 531.767643 -41.655373 
L 531.382704 -41.64772 
L 530.997765 -41.640217 
L 530.612826 -41.632865 
L 530.227887 -41.625667 
L 529.842948 -41.618627 
L 529.458009 -41.611747 
L 529.073069 -41.60503 
L 528.68813 -41.598479 
L 528.303191 -41.592098 
L 527.918252 -41.585889 
L 527.533313 -41.579856 
L 527.148374 -41.574002 
L 526.763435 -41.56833 
L 526.378496 -41.562843 
L 525.993557 -41.557546 
L 525.608618 -41.552441 
L 525.223679 -41.547533 
L 524.838739 -41.542824 
L 524.4538 -41.538318 
L 524.068861 -41.534019 
L 523.683922 -41.529931 
L 523.298983 -41.526058 
L 522.914044 -41.522403 
L 522.529105 -41.518971 
L 522.144166 -41.515765 
L 521.759227 -41.51279 
L 521.374288 -41.51005 
L 520.989349 -41.507549 
L 520.60441 -41.505292 
L 520.21947 -41.503282 
L 519.834531 -41.501525 
L 519.449592 -41.500025 
L 519.064653 -41.498786 
L 518.679714 -41.497814 
L 518.294775 -41.497113 
L 517.909836 -41.496688 
L 517.524897 -41.496544 
L 517.139958 -41.496686 
L 516.755019 -41.49712 
L 516.37008 -41.497849 
L 515.985141 -41.498881 
L 515.600201 -41.50022 
L 515.215262 -41.501872 
L 514.830323 -41.503842 
L 514.445384 -41.506136 
L 514.060445 -41.50876 
L 513.675506 -41.51172 
L 513.290567 -41.515022 
L 512.905628 -41.518672 
L 512.520689 -41.522676 
L 512.13575 -41.527041 
L 511.750811 -41.531774 
L 511.365871 -41.536879 
L 510.980932 -41.542366 
L 510.595993 -41.54824 
L 510.211054 -41.554508 
L 509.826115 -41.561177 
L 509.441176 -41.568255 
L 509.056237 -41.575749 
L 508.671298 -41.583666 
L 508.286359 -41.592015 
L 507.90142 -41.600802 
L 507.516481 -41.610036 
L 507.131542 -41.619724 
L 506.746602 -41.629876 
L 506.361663 -41.640499 
L 505.976724 -41.651601 
L 505.591785 -41.663192 
L 505.206846 -41.67528 
L 504.821907 -41.687875 
L 504.436968 -41.700984 
L 504.052029 -41.714619 
L 503.66709 -41.728787 
L 503.282151 -41.743499 
L 502.897212 -41.758765 
L 502.512273 -41.774595 
L 502.127333 -41.790999 
L 501.742394 -41.807986 
L 501.357455 -41.825569 
L 500.972516 -41.843758 
L 500.587577 -41.862563 
L 500.202638 -41.881997 
L 499.817699 -41.902069 
L 499.43276 -41.922793 
L 499.047821 -41.94418 
L 498.662882 -41.966242 
L 498.277943 -42.007727 
L 497.893003 -42.050276 
L 497.508064 -42.093601 
L 497.123125 -42.137713 
L 496.738186 -42.182627 
L 496.353247 -42.228356 
L 495.968308 -42.274912 
L 495.583369 -42.322311 
L 495.19843 -42.370566 
L 494.813491 -42.419692 
L 494.428552 -42.469703 
L 494.043613 -42.520615 
L 493.658674 -42.572442 
L 493.273734 -42.6252 
L 492.888795 -42.678905 
L 492.503856 -42.733574 
L 492.118917 -42.789222 
L 491.733978 -42.845867 
L 491.349039 -42.903526 
L 490.9641 -42.962216 
L 490.579161 -43.021954 
L 490.194222 -43.08276 
L 489.809283 -43.144652 
L 489.424344 -43.207648 
L 489.039405 -43.271768 
L 488.654465 -43.337031 
L 488.269526 -43.403458 
L 487.884587 -43.471069 
L 487.499648 -43.539885 
L 487.114709 -43.609927 
L 486.72977 -43.681217 
L 486.344831 -43.753777 
L 485.959892 -43.82763 
L 485.574953 -43.902799 
L 485.190014 -43.979307 
L 484.805075 -44.057178 
L 484.420135 -44.136438 
L 484.035196 -44.21711 
L 483.650257 -44.299221 
L 483.265318 -44.382796 
L 482.880379 -44.467863 
L 482.49544 -44.554448 
L 482.110501 -44.642579 
L 481.725562 -44.732284 
L 481.340623 -44.823594 
L 480.955684 -44.916536 
L 480.570745 -45.011141 
L 480.185806 -45.107441 
L 479.800866 -45.205466 
L 479.415927 -45.305249 
L 479.030988 -45.406822 
L 478.646049 -45.510219 
L 478.26111 -45.615475 
L 477.876171 -45.722624 
L 477.491232 -45.831703 
L 477.106293 -45.942747 
L 476.721354 -46.055794 
L 476.336415 -46.170882 
L 475.951476 -46.288051 
L 475.566537 -46.40734 
L 475.181597 -46.52879 
L 474.796658 -46.652442 
L 474.411719 -46.77834 
L 474.02678 -46.906526 
L 473.641841 -47.037045 
L 473.256902 -47.169943 
L 472.871963 -47.305266 
L 472.487024 -47.443062 
L 472.102085 -47.583379 
L 471.717146 -47.726268 
L 471.332207 -47.871778 
L 470.947267 -48.019962 
L 470.562328 -48.170873 
L 470.177389 -48.324565 
L 469.79245 -48.481095 
L 469.407511 -48.640519 
L 469.022572 -48.802895 
L 468.637633 -48.968283 
L 468.252694 -49.136743 
L 467.867755 -49.308339 
L 467.482816 -49.483134 
L 467.097877 -49.661192 
L 466.712938 -49.842582 
L 466.327998 -50.027371 
L 465.943059 -50.215629 
L 465.55812 -50.407427 
L 465.173181 -50.60284 
L 464.788242 -50.801942 
L 464.403303 -51.004809 
L 464.018364 -51.211521 
L 463.633425 -51.422156 
L 463.248486 -51.636799 
L 462.863547 -51.855533 
L 462.478608 -52.078444 
L 462.093669 -52.30562 
L 461.708729 -52.537153 
L 461.32379 -52.773133 
L 460.938851 -53.013656 
L 460.553912 -53.258819 
L 460.168973 -53.508721 
L 459.784034 -53.763463 
L 459.399095 -54.02315 
L 459.014156 -54.287888 
L 458.629217 -54.557786 
L 458.244278 -54.832955 
L 457.859339 -55.11351 
L 457.474399 -55.399568 
L 457.08946 -55.691248 
L 456.704521 -55.988673 
L 456.319582 -56.291968 
L 455.934643 -56.601261 
L 455.549704 -56.916685 
L 455.164765 -57.238373 
L 454.779826 -57.566464 
L 454.394887 -57.901098 
L 454.009948 -58.242419 
L 453.625009 -58.590575 
L 453.24007 -58.945717 
L 452.85513 -59.308 
L 452.470191 -59.677582 
L 452.085252 -60.054623 
L 451.700313 -60.439291 
L 451.315374 -60.831754 
L 450.930435 -61.232185 
L 450.545496 -61.640761 
L 450.160557 -62.057663 
L 449.775618 -62.483076 
L 449.390679 -62.917189 
L 449.00574 -63.360196 
L 448.620801 -63.812293 
L 448.235861 -64.273683 
L 447.850922 -64.744572 
L 447.465983 -65.22517 
L 447.081044 -65.715691 
L 446.696105 -66.216356 
L 446.311166 -66.727387 
L 445.926227 -67.249014 
L 445.541288 -67.781469 
L 445.156349 -68.32499 
L 444.77141 -68.879818 
L 444.386471 -69.4462 
L 444.001531 -70.024388 
L 443.616592 -70.614636 
L 443.231653 -71.217206 
L 442.846714 -71.832361 
L 442.461775 -72.460373 
L 442.076836 -73.101513 
L 441.691897 -73.75606 
L 441.306958 -74.424296 
L 440.922019 -75.106508 
L 440.53708 -75.802985 
L 440.152141 -76.514023 
L 439.767202 -77.23992 
L 439.382262 -77.980977 
L 438.997323 -78.737498 
L 438.612384 -79.509793 
L 438.227445 -80.298172 
L 437.842506 -81.102949 
L 437.457567 -81.92444 
L 437.072628 -82.762963 
L 436.687689 -83.618838 
L 436.30275 -84.492386 
L 435.917811 -85.383928 
L 435.532872 -86.293786 
L 435.147933 -87.222284 
L 434.762993 -88.169741 
L 434.378054 -89.136479 
L 433.993115 -90.122814 
L 433.608176 -91.129064 
L 433.223237 -92.155541 
L 432.838298 -93.202552 
L 432.453359 -94.270402 
L 432.06842 -95.359389 
L 431.683481 -96.469803 
L 431.298542 -97.601929 
L 430.913603 -98.756041 
L 430.528663 -99.932405 
L 430.143724 -101.131276 
L 429.758785 -102.352896 
L 429.373846 -103.597495 
L 428.988907 -104.865287 
L 428.603968 -106.156471 
L 428.219029 -107.47123 
L 427.83409 -108.809725 
L 427.449151 -110.1721 
L 427.064212 -111.558474 
L 426.679273 -112.968946 
L 426.294334 -114.403588 
L 425.909394 -115.862445 
L 425.524455 -117.345534 
L 425.139516 -118.852841 
L 424.754577 -120.384323 
L 424.369638 -121.9399 
L 423.984699 -123.519459 
L 423.59976 -125.122848 
L 423.214821 -126.749877 
L 422.829882 -128.400317 
L 422.444943 -130.073895 
L 422.060004 -131.770296 
L 421.675065 -133.489158 
L 421.290125 -135.230076 
L 420.905186 -136.992596 
L 420.520247 -138.776213 
L 420.135308 -140.580378 
L 419.750369 -142.404487 
L 419.36543 -144.247888 
L 418.980491 -146.109879 
L 418.595552 -147.989705 
L 418.210613 -149.886563 
L 417.825674 -151.799598 
L 417.440735 -153.727909 
L 417.055795 -155.670544 
L 416.670856 -157.626509 
L 416.285917 -159.594763 
L 415.900978 -161.574225 
L 415.516039 -163.563777 
L 415.1311 -165.562264 
L 414.746161 -167.5685 
L 414.361222 -169.581273 
L 413.976283 -171.599347 
L 413.591344 -173.62147 
L 413.206405 -175.646378 
L 412.821466 -177.6728 
L 412.436526 -179.699466 
L 412.051587 -181.725114 
L 411.666648 -183.748496 
L 411.281709 -185.768383 
L 410.89677 -187.783579 
L 410.511831 -189.792922 
L 410.126892 -191.795298 
L 409.741953 -193.789643 
L 409.357014 -195.774956 
L 408.972075 -197.750305 
L 408.587136 -199.714838 
L 408.202196 -201.667785 
L 407.817257 -203.608472 
L 407.432318 -205.536325 
L 407.047379 -207.450877 
L 406.66244 -209.351779 
L 406.277501 -211.238797 
L 405.892562 -213.111818 
z
" id="mf02bd8d7fa" style="stroke:#1f77b4;stroke-opacity:0.2;"/>
    </defs>
    <g clip-path="url(#p5d7afcdd22)">
     <use style="fill:#1f77b4;fill-opacity:0.2;stroke:#1f77b4;stroke-opacity:0.2;" x="0" xlink:href="#mf02bd8d7fa" y="252"/>
    </g>
   </g>
   <g id="matplotlib.axis_3">
    <g id="xtick_8">
     <g id="line2d_23">
      <g>
       <use style="stroke:#000000;stroke-width:0.8;" x="405.507623" xlink:href="#mbb5f7a170c" y="220.5"/>
      </g>
     </g>
     <g id="text_20">
      <!-- 0 -->
      <g transform="translate(402.326373 235.098437)scale(0.1 -0.1)">
       <use xlink:href="#DejaVuSans-30"/>
      </g>
     </g>
    </g>
    <g id="xtick_9">
     <g id="line2d_24">
      <g>
       <use style="stroke:#000000;stroke-width:0.8;" x="444.001531" xlink:href="#mbb5f7a170c" y="220.5"/>
      </g>
     </g>
     <g id="text_21">
      <!-- 5000 -->
      <g transform="translate(431.276531 235.098437)scale(0.1 -0.1)">
       <use xlink:href="#DejaVuSans-35"/>
       <use x="63.623047" xlink:href="#DejaVuSans-30"/>
       <use x="127.246094" xlink:href="#DejaVuSans-30"/>
       <use x="190.869141" xlink:href="#DejaVuSans-30"/>
      </g>
     </g>
    </g>
    <g id="xtick_10">
     <g id="line2d_25">
      <g>
       <use style="stroke:#000000;stroke-width:0.8;" x="482.49544" xlink:href="#mbb5f7a170c" y="220.5"/>
      </g>
     </g>
     <g id="text_22">
      <!-- 10000 -->
      <g transform="translate(466.58919 235.098437)scale(0.1 -0.1)">
       <use xlink:href="#DejaVuSans-31"/>
       <use x="63.623047" xlink:href="#DejaVuSans-30"/>
       <use x="127.246094" xlink:href="#DejaVuSans-30"/>
       <use x="190.869141" xlink:href="#DejaVuSans-30"/>
       <use x="254.492188" xlink:href="#DejaVuSans-30"/>
      </g>
     </g>
    </g>
    <g id="xtick_11">
     <g id="line2d_26">
      <g>
       <use style="stroke:#000000;stroke-width:0.8;" x="520.989349" xlink:href="#mbb5f7a170c" y="220.5"/>
      </g>
     </g>
     <g id="text_23">
      <!-- 15000 -->
      <g transform="translate(505.083099 235.098437)scale(0.1 -0.1)">
       <use xlink:href="#DejaVuSans-31"/>
       <use x="63.623047" xlink:href="#DejaVuSans-35"/>
       <use x="127.246094" xlink:href="#DejaVuSans-30"/>
       <use x="190.869141" xlink:href="#DejaVuSans-30"/>
       <use x="254.492188" xlink:href="#DejaVuSans-30"/>
      </g>
     </g>
    </g>
    <g id="xtick_12">
     <g id="line2d_27">
      <g>
       <use style="stroke:#000000;stroke-width:0.8;" x="559.483257" xlink:href="#mbb5f7a170c" y="220.5"/>
      </g>
     </g>
     <g id="text_24">
      <!-- 20000 -->
      <g transform="translate(543.577007 235.098437)scale(0.1 -0.1)">
       <use xlink:href="#DejaVuSans-32"/>
       <use x="63.623047" xlink:href="#DejaVuSans-30"/>
       <use x="127.246094" xlink:href="#DejaVuSans-30"/>
       <use x="190.869141" xlink:href="#DejaVuSans-30"/>
       <use x="254.492188" xlink:href="#DejaVuSans-30"/>
      </g>
     </g>
    </g>
    <g id="xtick_13">
     <g id="line2d_28">
      <g>
       <use style="stroke:#000000;stroke-width:0.8;" x="597.977166" xlink:href="#mbb5f7a170c" y="220.5"/>
      </g>
     </g>
     <g id="text_25">
      <!-- 25000 -->
      <g transform="translate(582.070916 235.098437)scale(0.1 -0.1)">
       <use xlink:href="#DejaVuSans-32"/>
       <use x="63.623047" xlink:href="#DejaVuSans-35"/>
       <use x="127.246094" xlink:href="#DejaVuSans-30"/>
       <use x="190.869141" xlink:href="#DejaVuSans-30"/>
       <use x="254.492188" xlink:href="#DejaVuSans-30"/>
      </g>
     </g>
    </g>
    <g id="xtick_14">
     <g id="line2d_29">
      <g>
       <use style="stroke:#000000;stroke-width:0.8;" x="636.471074" xlink:href="#mbb5f7a170c" y="220.5"/>
      </g>
     </g>
     <g id="text_26">
      <!-- 30000 -->
      <g transform="translate(620.564824 235.098437)scale(0.1 -0.1)">
       <use xlink:href="#DejaVuSans-33"/>
       <use x="63.623047" xlink:href="#DejaVuSans-30"/>
       <use x="127.246094" xlink:href="#DejaVuSans-30"/>
       <use x="190.869141" xlink:href="#DejaVuSans-30"/>
       <use x="254.492188" xlink:href="#DejaVuSans-30"/>
      </g>
     </g>
    </g>
    <g id="text_27">
     <!-- iteration -->
     <g transform="translate(500.059162 248.776563)scale(0.1 -0.1)">
      <use xlink:href="#DejaVuSans-69"/>
      <use x="27.783203" xlink:href="#DejaVuSans-74"/>
      <use x="66.992188" xlink:href="#DejaVuSans-65"/>
      <use x="128.515625" xlink:href="#DejaVuSans-72"/>
      <use x="169.628906" xlink:href="#DejaVuSans-61"/>
      <use x="230.908203" xlink:href="#DejaVuSans-74"/>
      <use x="270.117188" xlink:href="#DejaVuSans-69"/>
      <use x="297.900391" xlink:href="#DejaVuSans-6f"/>
      <use x="359.082031" xlink:href="#DejaVuSans-6e"/>
     </g>
    </g>
   </g>
   <g id="matplotlib.axis_4">
    <g id="ytick_8">
     <g id="line2d_30">
      <g>
       <use style="stroke:#000000;stroke-width:0.8;" x="394.363636" xlink:href="#mb69a550ceb" y="208.515214"/>
      </g>
     </g>
     <g id="text_28">
      <!-- 0.3 -->
      <g transform="translate(371.460511 212.314432)scale(0.1 -0.1)">
       <use xlink:href="#DejaVuSans-30"/>
       <use x="63.623047" xlink:href="#DejaVuSans-2e"/>
       <use x="95.410156" xlink:href="#DejaVuSans-33"/>
      </g>
     </g>
    </g>
    <g id="ytick_9">
     <g id="line2d_31">
      <g>
       <use style="stroke:#000000;stroke-width:0.8;" x="394.363636" xlink:href="#mb69a550ceb" y="171.803099"/>
      </g>
     </g>
     <g id="text_29">
      <!-- 0.4 -->
      <g transform="translate(371.460511 175.602318)scale(0.1 -0.1)">
       <defs>
        <path d="M 2419 4116 
L 825 1625 
L 2419 1625 
L 2419 4116 
z
M 2253 4666 
L 3047 4666 
L 3047 1625 
L 3713 1625 
L 3713 1100 
L 3047 1100 
L 3047 0 
L 2419 0 
L 2419 1100 
L 313 1100 
L 313 1709 
L 2253 4666 
z
" id="DejaVuSans-34" transform="scale(0.015625)"/>
       </defs>
       <use xlink:href="#DejaVuSans-30"/>
       <use x="63.623047" xlink:href="#DejaVuSans-2e"/>
       <use x="95.410156" xlink:href="#DejaVuSans-34"/>
      </g>
     </g>
    </g>
    <g id="ytick_10">
     <g id="line2d_32">
      <g>
       <use style="stroke:#000000;stroke-width:0.8;" x="394.363636" xlink:href="#mb69a550ceb" y="135.090985"/>
      </g>
     </g>
     <g id="text_30">
      <!-- 0.5 -->
      <g transform="translate(371.460511 138.890204)scale(0.1 -0.1)">
       <use xlink:href="#DejaVuSans-30"/>
       <use x="63.623047" xlink:href="#DejaVuSans-2e"/>
       <use x="95.410156" xlink:href="#DejaVuSans-35"/>
      </g>
     </g>
    </g>
    <g id="ytick_11">
     <g id="line2d_33">
      <g>
       <use style="stroke:#000000;stroke-width:0.8;" x="394.363636" xlink:href="#mb69a550ceb" y="98.378871"/>
      </g>
     </g>
     <g id="text_31">
      <!-- 0.6 -->
      <g transform="translate(371.460511 102.178089)scale(0.1 -0.1)">
       <use xlink:href="#DejaVuSans-30"/>
       <use x="63.623047" xlink:href="#DejaVuSans-2e"/>
       <use x="95.410156" xlink:href="#DejaVuSans-36"/>
      </g>
     </g>
    </g>
    <g id="ytick_12">
     <g id="line2d_34">
      <g>
       <use style="stroke:#000000;stroke-width:0.8;" x="394.363636" xlink:href="#mb69a550ceb" y="61.666756"/>
      </g>
     </g>
     <g id="text_32">
      <!-- 0.7 -->
      <g transform="translate(371.460511 65.465975)scale(0.1 -0.1)">
       <use xlink:href="#DejaVuSans-30"/>
       <use x="63.623047" xlink:href="#DejaVuSans-2e"/>
       <use x="95.410156" xlink:href="#DejaVuSans-37"/>
      </g>
     </g>
    </g>
    <g id="text_33">
     <!-- Loss -->
     <g transform="translate(365.380824 136.337187)rotate(-90)scale(0.1 -0.1)">
      <defs>
       <path d="M 628 4666 
L 1259 4666 
L 1259 531 
L 3531 531 
L 3531 0 
L 628 0 
L 628 4666 
z
" id="DejaVuSans-4c" transform="scale(0.015625)"/>
      </defs>
      <use xlink:href="#DejaVuSans-4c"/>
      <use x="53.962891" xlink:href="#DejaVuSans-6f"/>
      <use x="115.144531" xlink:href="#DejaVuSans-73"/>
      <use x="167.244141" xlink:href="#DejaVuSans-73"/>
     </g>
    </g>
   </g>
   <g id="line2d_35">
    <path clip-path="url(#p5d7afcdd22)" d="M 405.892562 42.55251 
L 408.972075 57.246919 
L 413.206405 78.690235 
L 418.595552 105.875494 
L 421.675065 120.240663 
L 424.369638 131.721262 
L 426.679273 140.656272 
L 428.988907 148.735823 
L 431.298542 155.980337 
L 433.608176 162.434995 
L 435.917811 168.159537 
L 438.227445 173.220517 
L 440.53708 177.68585 
L 442.846714 181.621267 
L 445.156349 185.088207 
L 447.465983 188.142742 
L 449.775618 190.835204 
L 452.085252 193.21024 
L 454.779826 195.63206 
L 457.474399 197.729112 
L 460.168973 199.54741 
L 463.248486 201.334012 
L 466.327998 202.856428 
L 469.79245 204.303747 
L 473.256902 205.515678 
L 477.106293 206.633195 
L 481.340623 207.633274 
L 485.959892 208.502095 
L 491.349039 209.282414 
L 497.508064 209.934898 
L 504.436968 210.43815 
L 512.520689 210.798945 
L 522.529105 211.009314 
L 534.847156 211.033368 
L 551.399536 210.826942 
L 576.805516 210.261463 
L 636.471074 208.723095 
L 636.471074 208.723095 
" style="fill:none;stroke:#1f77b4;stroke-linecap:square;stroke-width:1.5;"/>
   </g>
   <g id="patch_9">
    <path d="M 394.363636 220.5 
L 394.363636 30.24 
" style="fill:none;stroke:#000000;stroke-linecap:square;stroke-linejoin:miter;stroke-width:0.8;"/>
   </g>
   <g id="patch_10">
    <path d="M 648 220.5 
L 648 30.24 
" style="fill:none;stroke:#000000;stroke-linecap:square;stroke-linejoin:miter;stroke-width:0.8;"/>
   </g>
   <g id="patch_11">
    <path d="M 394.363636 220.5 
L 648 220.5 
" style="fill:none;stroke:#000000;stroke-linecap:square;stroke-linejoin:miter;stroke-width:0.8;"/>
   </g>
   <g id="patch_12">
    <path d="M 394.363636 30.24 
L 648 30.24 
" style="fill:none;stroke:#000000;stroke-linecap:square;stroke-linejoin:miter;stroke-width:0.8;"/>
   </g>
  </g>
  <g id="text_34">
   <!-- Logistic Regression penguin classification accuracy/loss -->
   <g transform="translate(192.853125 14.158125)scale(0.12 -0.12)">
    <defs>
     <path d="M 2906 1791 
Q 2906 2416 2648 2759 
Q 2391 3103 1925 3103 
Q 1463 3103 1205 2759 
Q 947 2416 947 1791 
Q 947 1169 1205 825 
Q 1463 481 1925 481 
Q 2391 481 2648 825 
Q 2906 1169 2906 1791 
z
M 3481 434 
Q 3481 -459 3084 -895 
Q 2688 -1331 1869 -1331 
Q 1566 -1331 1297 -1286 
Q 1028 -1241 775 -1147 
L 775 -588 
Q 1028 -725 1275 -790 
Q 1522 -856 1778 -856 
Q 2344 -856 2625 -561 
Q 2906 -266 2906 331 
L 2906 616 
Q 2728 306 2450 153 
Q 2172 0 1784 0 
Q 1141 0 747 490 
Q 353 981 353 1791 
Q 353 2603 747 3093 
Q 1141 3584 1784 3584 
Q 2172 3584 2450 3431 
Q 2728 3278 2906 2969 
L 2906 3500 
L 3481 3500 
L 3481 434 
z
" id="DejaVuSans-67" transform="scale(0.015625)"/>
     <path id="DejaVuSans-20" transform="scale(0.015625)"/>
     <path d="M 2841 2188 
Q 3044 2119 3236 1894 
Q 3428 1669 3622 1275 
L 4263 0 
L 3584 0 
L 2988 1197 
Q 2756 1666 2539 1819 
Q 2322 1972 1947 1972 
L 1259 1972 
L 1259 0 
L 628 0 
L 628 4666 
L 2053 4666 
Q 2853 4666 3247 4331 
Q 3641 3997 3641 3322 
Q 3641 2881 3436 2590 
Q 3231 2300 2841 2188 
z
M 1259 4147 
L 1259 2491 
L 2053 2491 
Q 2509 2491 2742 2702 
Q 2975 2913 2975 3322 
Q 2975 3731 2742 3939 
Q 2509 4147 2053 4147 
L 1259 4147 
z
" id="DejaVuSans-52" transform="scale(0.015625)"/>
     <path d="M 1159 525 
L 1159 -1331 
L 581 -1331 
L 581 3500 
L 1159 3500 
L 1159 2969 
Q 1341 3281 1617 3432 
Q 1894 3584 2278 3584 
Q 2916 3584 3314 3078 
Q 3713 2572 3713 1747 
Q 3713 922 3314 415 
Q 2916 -91 2278 -91 
Q 1894 -91 1617 61 
Q 1341 213 1159 525 
z
M 3116 1747 
Q 3116 2381 2855 2742 
Q 2594 3103 2138 3103 
Q 1681 3103 1420 2742 
Q 1159 2381 1159 1747 
Q 1159 1113 1420 752 
Q 1681 391 2138 391 
Q 2594 391 2855 752 
Q 3116 1113 3116 1747 
z
" id="DejaVuSans-70" transform="scale(0.015625)"/>
     <path d="M 603 4863 
L 1178 4863 
L 1178 0 
L 603 0 
L 603 4863 
z
" id="DejaVuSans-6c" transform="scale(0.015625)"/>
     <path d="M 2375 4863 
L 2375 4384 
L 1825 4384 
Q 1516 4384 1395 4259 
Q 1275 4134 1275 3809 
L 1275 3500 
L 2222 3500 
L 2222 3053 
L 1275 3053 
L 1275 0 
L 697 0 
L 697 3053 
L 147 3053 
L 147 3500 
L 697 3500 
L 697 3744 
Q 697 4328 969 4595 
Q 1241 4863 1831 4863 
L 2375 4863 
z
" id="DejaVuSans-66" transform="scale(0.015625)"/>
     <path d="M 2059 -325 
Q 1816 -950 1584 -1140 
Q 1353 -1331 966 -1331 
L 506 -1331 
L 506 -850 
L 844 -850 
Q 1081 -850 1212 -737 
Q 1344 -625 1503 -206 
L 1606 56 
L 191 3500 
L 800 3500 
L 1894 763 
L 2988 3500 
L 3597 3500 
L 2059 -325 
z
" id="DejaVuSans-79" transform="scale(0.015625)"/>
     <path d="M 1625 4666 
L 2156 4666 
L 531 -594 
L 0 -594 
L 1625 4666 
z
" id="DejaVuSans-2f" transform="scale(0.015625)"/>
    </defs>
    <use xlink:href="#DejaVuSans-4c"/>
    <use x="53.962891" xlink:href="#DejaVuSans-6f"/>
    <use x="115.144531" xlink:href="#DejaVuSans-67"/>
    <use x="178.621094" xlink:href="#DejaVuSans-69"/>
    <use x="206.404297" xlink:href="#DejaVuSans-73"/>
    <use x="258.503906" xlink:href="#DejaVuSans-74"/>
    <use x="297.712891" xlink:href="#DejaVuSans-69"/>
    <use x="325.496094" xlink:href="#DejaVuSans-63"/>
    <use x="380.476562" xlink:href="#DejaVuSans-20"/>
    <use x="412.263672" xlink:href="#DejaVuSans-52"/>
    <use x="477.246094" xlink:href="#DejaVuSans-65"/>
    <use x="538.769531" xlink:href="#DejaVuSans-67"/>
    <use x="602.246094" xlink:href="#DejaVuSans-72"/>
    <use x="641.109375" xlink:href="#DejaVuSans-65"/>
    <use x="702.632812" xlink:href="#DejaVuSans-73"/>
    <use x="754.732422" xlink:href="#DejaVuSans-73"/>
    <use x="806.832031" xlink:href="#DejaVuSans-69"/>
    <use x="834.615234" xlink:href="#DejaVuSans-6f"/>
    <use x="895.796875" xlink:href="#DejaVuSans-6e"/>
    <use x="959.175781" xlink:href="#DejaVuSans-20"/>
    <use x="990.962891" xlink:href="#DejaVuSans-70"/>
    <use x="1054.439453" xlink:href="#DejaVuSans-65"/>
    <use x="1115.962891" xlink:href="#DejaVuSans-6e"/>
    <use x="1179.341797" xlink:href="#DejaVuSans-67"/>
    <use x="1242.818359" xlink:href="#DejaVuSans-75"/>
    <use x="1306.197266" xlink:href="#DejaVuSans-69"/>
    <use x="1333.980469" xlink:href="#DejaVuSans-6e"/>
    <use x="1397.359375" xlink:href="#DejaVuSans-20"/>
    <use x="1429.146484" xlink:href="#DejaVuSans-63"/>
    <use x="1484.126953" xlink:href="#DejaVuSans-6c"/>
    <use x="1511.910156" xlink:href="#DejaVuSans-61"/>
    <use x="1573.189453" xlink:href="#DejaVuSans-73"/>
    <use x="1625.289062" xlink:href="#DejaVuSans-73"/>
    <use x="1677.388672" xlink:href="#DejaVuSans-69"/>
    <use x="1705.171875" xlink:href="#DejaVuSans-66"/>
    <use x="1740.376953" xlink:href="#DejaVuSans-69"/>
    <use x="1768.160156" xlink:href="#DejaVuSans-63"/>
    <use x="1823.140625" xlink:href="#DejaVuSans-61"/>
    <use x="1884.419922" xlink:href="#DejaVuSans-74"/>
    <use x="1923.628906" xlink:href="#DejaVuSans-69"/>
    <use x="1951.412109" xlink:href="#DejaVuSans-6f"/>
    <use x="2012.59375" xlink:href="#DejaVuSans-6e"/>
    <use x="2075.972656" xlink:href="#DejaVuSans-20"/>
    <use x="2107.759766" xlink:href="#DejaVuSans-61"/>
    <use x="2169.039062" xlink:href="#DejaVuSans-63"/>
    <use x="2224.019531" xlink:href="#DejaVuSans-63"/>
    <use x="2279" xlink:href="#DejaVuSans-75"/>
    <use x="2342.378906" xlink:href="#DejaVuSans-72"/>
    <use x="2383.492188" xlink:href="#DejaVuSans-61"/>
    <use x="2444.771484" xlink:href="#DejaVuSans-63"/>
    <use x="2499.751953" xlink:href="#DejaVuSans-79"/>
    <use x="2558.931641" xlink:href="#DejaVuSans-2f"/>
    <use x="2592.623047" xlink:href="#DejaVuSans-6c"/>
    <use x="2620.40625" xlink:href="#DejaVuSans-6f"/>
    <use x="2681.587891" xlink:href="#DejaVuSans-73"/>
    <use x="2733.6875" xlink:href="#DejaVuSans-73"/>
   </g>
  </g>
 </g>
 <defs>
  <clipPath id="p88bcdc9823">
   <rect height="190.26" width="253.636364" x="90" y="30.24"/>
  </clipPath>
  <clipPath id="p5d7afcdd22">
   <rect height="190.26" width="253.636364" x="394.363636" y="30.24"/>
  </clipPath>
 </defs>
</svg>
