<?xml version="1.0" encoding="utf-8" standalone="no"?>
<!DOCTYPE svg PUBLIC "-//W3C//DTD SVG 1.1//EN"
  "http://www.w3.org/Graphics/SVG/1.1/DTD/svg11.dtd">
<svg height="252pt" version="1.1" viewBox="0 0 720 252" width="720pt" xmlns="http://www.w3.org/2000/svg" xmlns:xlink="http://www.w3.org/1999/xlink">
 <metadata>
  <rdf:RDF xmlns:cc="http://creativecommons.org/ns#" xmlns:dc="http://purl.org/dc/elements/1.1/" xmlns:rdf="http://www.w3.org/1999/02/22-rdf-syntax-ns#">
   <cc:Work>
    <dc:type rdf:resource="http://purl.org/dc/dcmitype/StillImage"/>
    <dc:date>2021-04-17T13:14:25.292912</dc:date>
    <dc:format>image/svg+xml</dc:format>
    <dc:creator>
     <cc:Agent>
      <dc:title>Matplotlib v3.4.1, https://matplotlib.org/</dc:title>
     </cc:Agent>
    </dc:creator>
   </cc:Work>
  </rdf:RDF>
 </metadata>
 <defs>
  <style type="text/css">*{stroke-linecap:butt;stroke-linejoin:round;}</style>
 </defs>
 <g id="figure_1">
  <g id="patch_1">
   <path d="M 0 252 
L 720 252 
L 720 0 
L 0 0 
z
" style="fill:none;"/>
  </g>
  <g id="axes_1">
   <g id="patch_2">
    <path d="M 90 220.5 
L 343.636364 220.5 
L 343.636364 30.24 
L 90 30.24 
z
" style="fill:#ffffff;"/>
   </g>
   <g id="matplotlib.axis_1">
    <g id="xtick_1">
     <g id="line2d_1">
      <defs>
       <path d="M 0 0 
L 0 3.5 
" id="m8a43df7d1e" style="stroke:#000000;stroke-width:0.8;"/>
      </defs>
      <g>
       <use style="stroke:#000000;stroke-width:0.8;" x="99.981419" xlink:href="#m8a43df7d1e" y="220.5"/>
      </g>
     </g>
     <g id="text_1">
      <!-- 0 -->
      <g transform="translate(96.800169 235.098437)scale(0.1 -0.1)">
       <defs>
        <path d="M 2034 4250 
Q 1547 4250 1301 3770 
Q 1056 3291 1056 2328 
Q 1056 1369 1301 889 
Q 1547 409 2034 409 
Q 2525 409 2770 889 
Q 3016 1369 3016 2328 
Q 3016 3291 2770 3770 
Q 2525 4250 2034 4250 
z
M 2034 4750 
Q 2819 4750 3233 4129 
Q 3647 3509 3647 2328 
Q 3647 1150 3233 529 
Q 2819 -91 2034 -91 
Q 1250 -91 836 529 
Q 422 1150 422 2328 
Q 422 3509 836 4129 
Q 1250 4750 2034 4750 
z
" id="DejaVuSans-30" transform="scale(0.015625)"/>
       </defs>
       <use xlink:href="#DejaVuSans-30"/>
      </g>
     </g>
    </g>
    <g id="xtick_2">
     <g id="line2d_2">
      <g>
       <use style="stroke:#000000;stroke-width:0.8;" x="148.341006" xlink:href="#m8a43df7d1e" y="220.5"/>
      </g>
     </g>
     <g id="text_2">
      <!-- 500 -->
      <g transform="translate(138.797256 235.098437)scale(0.1 -0.1)">
       <defs>
        <path d="M 691 4666 
L 3169 4666 
L 3169 4134 
L 1269 4134 
L 1269 2991 
Q 1406 3038 1543 3061 
Q 1681 3084 1819 3084 
Q 2600 3084 3056 2656 
Q 3513 2228 3513 1497 
Q 3513 744 3044 326 
Q 2575 -91 1722 -91 
Q 1428 -91 1123 -41 
Q 819 9 494 109 
L 494 744 
Q 775 591 1075 516 
Q 1375 441 1709 441 
Q 2250 441 2565 725 
Q 2881 1009 2881 1497 
Q 2881 1984 2565 2268 
Q 2250 2553 1709 2553 
Q 1456 2553 1204 2497 
Q 953 2441 691 2322 
L 691 4666 
z
" id="DejaVuSans-35" transform="scale(0.015625)"/>
       </defs>
       <use xlink:href="#DejaVuSans-35"/>
       <use x="63.623047" xlink:href="#DejaVuSans-30"/>
       <use x="127.246094" xlink:href="#DejaVuSans-30"/>
      </g>
     </g>
    </g>
    <g id="xtick_3">
     <g id="line2d_3">
      <g>
       <use style="stroke:#000000;stroke-width:0.8;" x="196.700593" xlink:href="#m8a43df7d1e" y="220.5"/>
      </g>
     </g>
     <g id="text_3">
      <!-- 1000 -->
      <g transform="translate(183.975593 235.098437)scale(0.1 -0.1)">
       <defs>
        <path d="M 794 531 
L 1825 531 
L 1825 4091 
L 703 3866 
L 703 4441 
L 1819 4666 
L 2450 4666 
L 2450 531 
L 3481 531 
L 3481 0 
L 794 0 
L 794 531 
z
" id="DejaVuSans-31" transform="scale(0.015625)"/>
       </defs>
       <use xlink:href="#DejaVuSans-31"/>
       <use x="63.623047" xlink:href="#DejaVuSans-30"/>
       <use x="127.246094" xlink:href="#DejaVuSans-30"/>
       <use x="190.869141" xlink:href="#DejaVuSans-30"/>
      </g>
     </g>
    </g>
    <g id="xtick_4">
     <g id="line2d_4">
      <g>
       <use style="stroke:#000000;stroke-width:0.8;" x="245.060181" xlink:href="#m8a43df7d1e" y="220.5"/>
      </g>
     </g>
     <g id="text_4">
      <!-- 1500 -->
      <g transform="translate(232.335181 235.098437)scale(0.1 -0.1)">
       <use xlink:href="#DejaVuSans-31"/>
       <use x="63.623047" xlink:href="#DejaVuSans-35"/>
       <use x="127.246094" xlink:href="#DejaVuSans-30"/>
       <use x="190.869141" xlink:href="#DejaVuSans-30"/>
      </g>
     </g>
    </g>
    <g id="xtick_5">
     <g id="line2d_5">
      <g>
       <use style="stroke:#000000;stroke-width:0.8;" x="293.419768" xlink:href="#m8a43df7d1e" y="220.5"/>
      </g>
     </g>
     <g id="text_5">
      <!-- 2000 -->
      <g transform="translate(280.694768 235.098437)scale(0.1 -0.1)">
       <defs>
        <path d="M 1228 531 
L 3431 531 
L 3431 0 
L 469 0 
L 469 531 
Q 828 903 1448 1529 
Q 2069 2156 2228 2338 
Q 2531 2678 2651 2914 
Q 2772 3150 2772 3378 
Q 2772 3750 2511 3984 
Q 2250 4219 1831 4219 
Q 1534 4219 1204 4116 
Q 875 4013 500 3803 
L 500 4441 
Q 881 4594 1212 4672 
Q 1544 4750 1819 4750 
Q 2544 4750 2975 4387 
Q 3406 4025 3406 3419 
Q 3406 3131 3298 2873 
Q 3191 2616 2906 2266 
Q 2828 2175 2409 1742 
Q 1991 1309 1228 531 
z
" id="DejaVuSans-32" transform="scale(0.015625)"/>
       </defs>
       <use xlink:href="#DejaVuSans-32"/>
       <use x="63.623047" xlink:href="#DejaVuSans-30"/>
       <use x="127.246094" xlink:href="#DejaVuSans-30"/>
       <use x="190.869141" xlink:href="#DejaVuSans-30"/>
      </g>
     </g>
    </g>
    <g id="xtick_6">
     <g id="line2d_6">
      <g>
       <use style="stroke:#000000;stroke-width:0.8;" x="341.779355" xlink:href="#m8a43df7d1e" y="220.5"/>
      </g>
     </g>
     <g id="text_6">
      <!-- 2500 -->
      <g transform="translate(329.054355 235.098437)scale(0.1 -0.1)">
       <use xlink:href="#DejaVuSans-32"/>
       <use x="63.623047" xlink:href="#DejaVuSans-35"/>
       <use x="127.246094" xlink:href="#DejaVuSans-30"/>
       <use x="190.869141" xlink:href="#DejaVuSans-30"/>
      </g>
     </g>
    </g>
    <g id="text_7">
     <!-- Iteration -->
     <g transform="translate(195.609588 248.776563)scale(0.1 -0.1)">
      <defs>
       <path d="M 628 4666 
L 1259 4666 
L 1259 0 
L 628 0 
L 628 4666 
z
" id="DejaVuSans-49" transform="scale(0.015625)"/>
       <path d="M 1172 4494 
L 1172 3500 
L 2356 3500 
L 2356 3053 
L 1172 3053 
L 1172 1153 
Q 1172 725 1289 603 
Q 1406 481 1766 481 
L 2356 481 
L 2356 0 
L 1766 0 
Q 1100 0 847 248 
Q 594 497 594 1153 
L 594 3053 
L 172 3053 
L 172 3500 
L 594 3500 
L 594 4494 
L 1172 4494 
z
" id="DejaVuSans-74" transform="scale(0.015625)"/>
       <path d="M 3597 1894 
L 3597 1613 
L 953 1613 
Q 991 1019 1311 708 
Q 1631 397 2203 397 
Q 2534 397 2845 478 
Q 3156 559 3463 722 
L 3463 178 
Q 3153 47 2828 -22 
Q 2503 -91 2169 -91 
Q 1331 -91 842 396 
Q 353 884 353 1716 
Q 353 2575 817 3079 
Q 1281 3584 2069 3584 
Q 2775 3584 3186 3129 
Q 3597 2675 3597 1894 
z
M 3022 2063 
Q 3016 2534 2758 2815 
Q 2500 3097 2075 3097 
Q 1594 3097 1305 2825 
Q 1016 2553 972 2059 
L 3022 2063 
z
" id="DejaVuSans-65" transform="scale(0.015625)"/>
       <path d="M 2631 2963 
Q 2534 3019 2420 3045 
Q 2306 3072 2169 3072 
Q 1681 3072 1420 2755 
Q 1159 2438 1159 1844 
L 1159 0 
L 581 0 
L 581 3500 
L 1159 3500 
L 1159 2956 
Q 1341 3275 1631 3429 
Q 1922 3584 2338 3584 
Q 2397 3584 2469 3576 
Q 2541 3569 2628 3553 
L 2631 2963 
z
" id="DejaVuSans-72" transform="scale(0.015625)"/>
       <path d="M 2194 1759 
Q 1497 1759 1228 1600 
Q 959 1441 959 1056 
Q 959 750 1161 570 
Q 1363 391 1709 391 
Q 2188 391 2477 730 
Q 2766 1069 2766 1631 
L 2766 1759 
L 2194 1759 
z
M 3341 1997 
L 3341 0 
L 2766 0 
L 2766 531 
Q 2569 213 2275 61 
Q 1981 -91 1556 -91 
Q 1019 -91 701 211 
Q 384 513 384 1019 
Q 384 1609 779 1909 
Q 1175 2209 1959 2209 
L 2766 2209 
L 2766 2266 
Q 2766 2663 2505 2880 
Q 2244 3097 1772 3097 
Q 1472 3097 1187 3025 
Q 903 2953 641 2809 
L 641 3341 
Q 956 3463 1253 3523 
Q 1550 3584 1831 3584 
Q 2591 3584 2966 3190 
Q 3341 2797 3341 1997 
z
" id="DejaVuSans-61" transform="scale(0.015625)"/>
       <path d="M 603 3500 
L 1178 3500 
L 1178 0 
L 603 0 
L 603 3500 
z
M 603 4863 
L 1178 4863 
L 1178 4134 
L 603 4134 
L 603 4863 
z
" id="DejaVuSans-69" transform="scale(0.015625)"/>
       <path d="M 1959 3097 
Q 1497 3097 1228 2736 
Q 959 2375 959 1747 
Q 959 1119 1226 758 
Q 1494 397 1959 397 
Q 2419 397 2687 759 
Q 2956 1122 2956 1747 
Q 2956 2369 2687 2733 
Q 2419 3097 1959 3097 
z
M 1959 3584 
Q 2709 3584 3137 3096 
Q 3566 2609 3566 1747 
Q 3566 888 3137 398 
Q 2709 -91 1959 -91 
Q 1206 -91 779 398 
Q 353 888 353 1747 
Q 353 2609 779 3096 
Q 1206 3584 1959 3584 
z
" id="DejaVuSans-6f" transform="scale(0.015625)"/>
       <path d="M 3513 2113 
L 3513 0 
L 2938 0 
L 2938 2094 
Q 2938 2591 2744 2837 
Q 2550 3084 2163 3084 
Q 1697 3084 1428 2787 
Q 1159 2491 1159 1978 
L 1159 0 
L 581 0 
L 581 3500 
L 1159 3500 
L 1159 2956 
Q 1366 3272 1645 3428 
Q 1925 3584 2291 3584 
Q 2894 3584 3203 3211 
Q 3513 2838 3513 2113 
z
" id="DejaVuSans-6e" transform="scale(0.015625)"/>
      </defs>
      <use xlink:href="#DejaVuSans-49"/>
      <use x="29.492188" xlink:href="#DejaVuSans-74"/>
      <use x="68.701172" xlink:href="#DejaVuSans-65"/>
      <use x="130.224609" xlink:href="#DejaVuSans-72"/>
      <use x="171.337891" xlink:href="#DejaVuSans-61"/>
      <use x="232.617188" xlink:href="#DejaVuSans-74"/>
      <use x="271.826172" xlink:href="#DejaVuSans-69"/>
      <use x="299.609375" xlink:href="#DejaVuSans-6f"/>
      <use x="360.791016" xlink:href="#DejaVuSans-6e"/>
     </g>
    </g>
   </g>
   <g id="matplotlib.axis_2">
    <g id="ytick_1">
     <g id="line2d_7">
      <defs>
       <path d="M 0 0 
L -3.5 0 
" id="ma621ccfbc7" style="stroke:#000000;stroke-width:0.8;"/>
      </defs>
      <g>
       <use style="stroke:#000000;stroke-width:0.8;" x="90" xlink:href="#ma621ccfbc7" y="204.164545"/>
      </g>
     </g>
     <g id="text_8">
      <!-- 0.800 -->
      <g transform="translate(54.371875 207.963764)scale(0.1 -0.1)">
       <defs>
        <path d="M 684 794 
L 1344 794 
L 1344 0 
L 684 0 
L 684 794 
z
" id="DejaVuSans-2e" transform="scale(0.015625)"/>
        <path d="M 2034 2216 
Q 1584 2216 1326 1975 
Q 1069 1734 1069 1313 
Q 1069 891 1326 650 
Q 1584 409 2034 409 
Q 2484 409 2743 651 
Q 3003 894 3003 1313 
Q 3003 1734 2745 1975 
Q 2488 2216 2034 2216 
z
M 1403 2484 
Q 997 2584 770 2862 
Q 544 3141 544 3541 
Q 544 4100 942 4425 
Q 1341 4750 2034 4750 
Q 2731 4750 3128 4425 
Q 3525 4100 3525 3541 
Q 3525 3141 3298 2862 
Q 3072 2584 2669 2484 
Q 3125 2378 3379 2068 
Q 3634 1759 3634 1313 
Q 3634 634 3220 271 
Q 2806 -91 2034 -91 
Q 1263 -91 848 271 
Q 434 634 434 1313 
Q 434 1759 690 2068 
Q 947 2378 1403 2484 
z
M 1172 3481 
Q 1172 3119 1398 2916 
Q 1625 2713 2034 2713 
Q 2441 2713 2670 2916 
Q 2900 3119 2900 3481 
Q 2900 3844 2670 4047 
Q 2441 4250 2034 4250 
Q 1625 4250 1398 4047 
Q 1172 3844 1172 3481 
z
" id="DejaVuSans-38" transform="scale(0.015625)"/>
       </defs>
       <use xlink:href="#DejaVuSans-30"/>
       <use x="63.623047" xlink:href="#DejaVuSans-2e"/>
       <use x="95.410156" xlink:href="#DejaVuSans-38"/>
       <use x="159.033203" xlink:href="#DejaVuSans-30"/>
       <use x="222.65625" xlink:href="#DejaVuSans-30"/>
      </g>
     </g>
    </g>
    <g id="ytick_2">
     <g id="line2d_8">
      <g>
       <use style="stroke:#000000;stroke-width:0.8;" x="90" xlink:href="#ma621ccfbc7" y="179.661364"/>
      </g>
     </g>
     <g id="text_9">
      <!-- 0.825 -->
      <g transform="translate(54.371875 183.460582)scale(0.1 -0.1)">
       <use xlink:href="#DejaVuSans-30"/>
       <use x="63.623047" xlink:href="#DejaVuSans-2e"/>
       <use x="95.410156" xlink:href="#DejaVuSans-38"/>
       <use x="159.033203" xlink:href="#DejaVuSans-32"/>
       <use x="222.65625" xlink:href="#DejaVuSans-35"/>
      </g>
     </g>
    </g>
    <g id="ytick_3">
     <g id="line2d_9">
      <g>
       <use style="stroke:#000000;stroke-width:0.8;" x="90" xlink:href="#ma621ccfbc7" y="155.158182"/>
      </g>
     </g>
     <g id="text_10">
      <!-- 0.850 -->
      <g transform="translate(54.371875 158.957401)scale(0.1 -0.1)">
       <use xlink:href="#DejaVuSans-30"/>
       <use x="63.623047" xlink:href="#DejaVuSans-2e"/>
       <use x="95.410156" xlink:href="#DejaVuSans-38"/>
       <use x="159.033203" xlink:href="#DejaVuSans-35"/>
       <use x="222.65625" xlink:href="#DejaVuSans-30"/>
      </g>
     </g>
    </g>
    <g id="ytick_4">
     <g id="line2d_10">
      <g>
       <use style="stroke:#000000;stroke-width:0.8;" x="90" xlink:href="#ma621ccfbc7" y="130.655"/>
      </g>
     </g>
     <g id="text_11">
      <!-- 0.875 -->
      <g transform="translate(54.371875 134.454219)scale(0.1 -0.1)">
       <defs>
        <path d="M 525 4666 
L 3525 4666 
L 3525 4397 
L 1831 0 
L 1172 0 
L 2766 4134 
L 525 4134 
L 525 4666 
z
" id="DejaVuSans-37" transform="scale(0.015625)"/>
       </defs>
       <use xlink:href="#DejaVuSans-30"/>
       <use x="63.623047" xlink:href="#DejaVuSans-2e"/>
       <use x="95.410156" xlink:href="#DejaVuSans-38"/>
       <use x="159.033203" xlink:href="#DejaVuSans-37"/>
       <use x="222.65625" xlink:href="#DejaVuSans-35"/>
      </g>
     </g>
    </g>
    <g id="ytick_5">
     <g id="line2d_11">
      <g>
       <use style="stroke:#000000;stroke-width:0.8;" x="90" xlink:href="#ma621ccfbc7" y="106.151818"/>
      </g>
     </g>
     <g id="text_12">
      <!-- 0.900 -->
      <g transform="translate(54.371875 109.951037)scale(0.1 -0.1)">
       <defs>
        <path d="M 703 97 
L 703 672 
Q 941 559 1184 500 
Q 1428 441 1663 441 
Q 2288 441 2617 861 
Q 2947 1281 2994 2138 
Q 2813 1869 2534 1725 
Q 2256 1581 1919 1581 
Q 1219 1581 811 2004 
Q 403 2428 403 3163 
Q 403 3881 828 4315 
Q 1253 4750 1959 4750 
Q 2769 4750 3195 4129 
Q 3622 3509 3622 2328 
Q 3622 1225 3098 567 
Q 2575 -91 1691 -91 
Q 1453 -91 1209 -44 
Q 966 3 703 97 
z
M 1959 2075 
Q 2384 2075 2632 2365 
Q 2881 2656 2881 3163 
Q 2881 3666 2632 3958 
Q 2384 4250 1959 4250 
Q 1534 4250 1286 3958 
Q 1038 3666 1038 3163 
Q 1038 2656 1286 2365 
Q 1534 2075 1959 2075 
z
" id="DejaVuSans-39" transform="scale(0.015625)"/>
       </defs>
       <use xlink:href="#DejaVuSans-30"/>
       <use x="63.623047" xlink:href="#DejaVuSans-2e"/>
       <use x="95.410156" xlink:href="#DejaVuSans-39"/>
       <use x="159.033203" xlink:href="#DejaVuSans-30"/>
       <use x="222.65625" xlink:href="#DejaVuSans-30"/>
      </g>
     </g>
    </g>
    <g id="ytick_6">
     <g id="line2d_12">
      <g>
       <use style="stroke:#000000;stroke-width:0.8;" x="90" xlink:href="#ma621ccfbc7" y="81.648636"/>
      </g>
     </g>
     <g id="text_13">
      <!-- 0.925 -->
      <g transform="translate(54.371875 85.447855)scale(0.1 -0.1)">
       <use xlink:href="#DejaVuSans-30"/>
       <use x="63.623047" xlink:href="#DejaVuSans-2e"/>
       <use x="95.410156" xlink:href="#DejaVuSans-39"/>
       <use x="159.033203" xlink:href="#DejaVuSans-32"/>
       <use x="222.65625" xlink:href="#DejaVuSans-35"/>
      </g>
     </g>
    </g>
    <g id="ytick_7">
     <g id="line2d_13">
      <g>
       <use style="stroke:#000000;stroke-width:0.8;" x="90" xlink:href="#ma621ccfbc7" y="57.145455"/>
      </g>
     </g>
     <g id="text_14">
      <!-- 0.950 -->
      <g transform="translate(54.371875 60.944673)scale(0.1 -0.1)">
       <use xlink:href="#DejaVuSans-30"/>
       <use x="63.623047" xlink:href="#DejaVuSans-2e"/>
       <use x="95.410156" xlink:href="#DejaVuSans-39"/>
       <use x="159.033203" xlink:href="#DejaVuSans-35"/>
       <use x="222.65625" xlink:href="#DejaVuSans-30"/>
      </g>
     </g>
    </g>
    <g id="ytick_8">
     <g id="line2d_14">
      <g>
       <use style="stroke:#000000;stroke-width:0.8;" x="90" xlink:href="#ma621ccfbc7" y="32.642273"/>
      </g>
     </g>
     <g id="text_15">
      <!-- 0.975 -->
      <g transform="translate(54.371875 36.441491)scale(0.1 -0.1)">
       <use xlink:href="#DejaVuSans-30"/>
       <use x="63.623047" xlink:href="#DejaVuSans-2e"/>
       <use x="95.410156" xlink:href="#DejaVuSans-39"/>
       <use x="159.033203" xlink:href="#DejaVuSans-37"/>
       <use x="222.65625" xlink:href="#DejaVuSans-35"/>
      </g>
     </g>
    </g>
    <g id="text_16">
     <!-- Acc -->
     <g transform="translate(48.292188 134.20125)rotate(-90)scale(0.1 -0.1)">
      <defs>
       <path d="M 2188 4044 
L 1331 1722 
L 3047 1722 
L 2188 4044 
z
M 1831 4666 
L 2547 4666 
L 4325 0 
L 3669 0 
L 3244 1197 
L 1141 1197 
L 716 0 
L 50 0 
L 1831 4666 
z
" id="DejaVuSans-41" transform="scale(0.015625)"/>
       <path d="M 3122 3366 
L 3122 2828 
Q 2878 2963 2633 3030 
Q 2388 3097 2138 3097 
Q 1578 3097 1268 2742 
Q 959 2388 959 1747 
Q 959 1106 1268 751 
Q 1578 397 2138 397 
Q 2388 397 2633 464 
Q 2878 531 3122 666 
L 3122 134 
Q 2881 22 2623 -34 
Q 2366 -91 2075 -91 
Q 1284 -91 818 406 
Q 353 903 353 1747 
Q 353 2603 823 3093 
Q 1294 3584 2113 3584 
Q 2378 3584 2631 3529 
Q 2884 3475 3122 3366 
z
" id="DejaVuSans-63" transform="scale(0.015625)"/>
      </defs>
      <use xlink:href="#DejaVuSans-41"/>
      <use x="66.658203" xlink:href="#DejaVuSans-63"/>
      <use x="121.638672" xlink:href="#DejaVuSans-63"/>
     </g>
    </g>
   </g>
   <g id="line2d_15">
    <path clip-path="url(#p3b7be8a9b4)" d="M 101.528926 211.851818 
L 141.764102 211.851818 
L 143.311609 181.102727 
L 144.859116 134.979091 
L 146.406623 81.168182 
L 147.954129 69.637273 
L 149.501636 65.793636 
L 151.049143 42.731818 
L 152.59665 42.731818 
L 154.144157 38.888182 
L 155.691663 42.731818 
L 175.809252 42.731818 
L 177.356759 38.888182 
L 237.709524 38.888182 
L 239.25703 42.731818 
L 253.184591 42.731818 
L 254.732098 38.888182 
L 256.279605 42.731818 
L 332.107438 42.731818 
L 332.107438 42.731818 
" style="fill:none;stroke:#1f77b4;stroke-linecap:square;stroke-width:1.5;"/>
   </g>
   <g id="line2d_16">
    <path clip-path="url(#p3b7be8a9b4)" d="M 101.528926 196.625105 
L 141.764102 196.625105 
L 143.311609 171.493636 
L 144.859116 133.796434 
L 146.406623 133.796434 
L 151.049143 96.099231 
L 152.59665 96.099231 
L 155.691663 70.967762 
L 169.619225 70.967762 
L 171.166731 58.402028 
L 332.107438 58.402028 
L 332.107438 58.402028 
" style="fill:none;stroke:#ff7f0e;stroke-linecap:square;stroke-width:1.5;"/>
   </g>
   <g id="line2d_17"/>
   <g id="line2d_18"/>
   <g id="patch_3">
    <path d="M 90 220.5 
L 90 30.24 
" style="fill:none;stroke:#000000;stroke-linecap:square;stroke-linejoin:miter;stroke-width:0.8;"/>
   </g>
   <g id="patch_4">
    <path d="M 343.636364 220.5 
L 343.636364 30.24 
" style="fill:none;stroke:#000000;stroke-linecap:square;stroke-linejoin:miter;stroke-width:0.8;"/>
   </g>
   <g id="patch_5">
    <path d="M 90 220.5 
L 343.636364 220.5 
" style="fill:none;stroke:#000000;stroke-linecap:square;stroke-linejoin:miter;stroke-width:0.8;"/>
   </g>
   <g id="patch_6">
    <path d="M 90 30.24 
L 343.636364 30.24 
" style="fill:none;stroke:#000000;stroke-linecap:square;stroke-linejoin:miter;stroke-width:0.8;"/>
   </g>
   <g id="legend_1">
    <g id="patch_7">
     <path d="M 280.648864 215.5 
L 336.636364 215.5 
Q 338.636364 215.5 338.636364 213.5 
L 338.636364 170.465625 
Q 338.636364 168.465625 336.636364 168.465625 
L 280.648864 168.465625 
Q 278.648864 168.465625 278.648864 170.465625 
L 278.648864 213.5 
Q 278.648864 215.5 280.648864 215.5 
z
" style="fill:#ffffff;opacity:0.8;stroke:#cccccc;stroke-linejoin:miter;"/>
    </g>
    <g id="text_17">
     <!-- Subset -->
     <g transform="translate(291.48402 180.064063)scale(0.1 -0.1)">
      <defs>
       <path d="M 3425 4513 
L 3425 3897 
Q 3066 4069 2747 4153 
Q 2428 4238 2131 4238 
Q 1616 4238 1336 4038 
Q 1056 3838 1056 3469 
Q 1056 3159 1242 3001 
Q 1428 2844 1947 2747 
L 2328 2669 
Q 3034 2534 3370 2195 
Q 3706 1856 3706 1288 
Q 3706 609 3251 259 
Q 2797 -91 1919 -91 
Q 1588 -91 1214 -16 
Q 841 59 441 206 
L 441 856 
Q 825 641 1194 531 
Q 1563 422 1919 422 
Q 2459 422 2753 634 
Q 3047 847 3047 1241 
Q 3047 1584 2836 1778 
Q 2625 1972 2144 2069 
L 1759 2144 
Q 1053 2284 737 2584 
Q 422 2884 422 3419 
Q 422 4038 858 4394 
Q 1294 4750 2059 4750 
Q 2388 4750 2728 4690 
Q 3069 4631 3425 4513 
z
" id="DejaVuSans-53" transform="scale(0.015625)"/>
       <path d="M 544 1381 
L 544 3500 
L 1119 3500 
L 1119 1403 
Q 1119 906 1312 657 
Q 1506 409 1894 409 
Q 2359 409 2629 706 
Q 2900 1003 2900 1516 
L 2900 3500 
L 3475 3500 
L 3475 0 
L 2900 0 
L 2900 538 
Q 2691 219 2414 64 
Q 2138 -91 1772 -91 
Q 1169 -91 856 284 
Q 544 659 544 1381 
z
M 1991 3584 
L 1991 3584 
z
" id="DejaVuSans-75" transform="scale(0.015625)"/>
       <path d="M 3116 1747 
Q 3116 2381 2855 2742 
Q 2594 3103 2138 3103 
Q 1681 3103 1420 2742 
Q 1159 2381 1159 1747 
Q 1159 1113 1420 752 
Q 1681 391 2138 391 
Q 2594 391 2855 752 
Q 3116 1113 3116 1747 
z
M 1159 2969 
Q 1341 3281 1617 3432 
Q 1894 3584 2278 3584 
Q 2916 3584 3314 3078 
Q 3713 2572 3713 1747 
Q 3713 922 3314 415 
Q 2916 -91 2278 -91 
Q 1894 -91 1617 61 
Q 1341 213 1159 525 
L 1159 0 
L 581 0 
L 581 4863 
L 1159 4863 
L 1159 2969 
z
" id="DejaVuSans-62" transform="scale(0.015625)"/>
       <path d="M 2834 3397 
L 2834 2853 
Q 2591 2978 2328 3040 
Q 2066 3103 1784 3103 
Q 1356 3103 1142 2972 
Q 928 2841 928 2578 
Q 928 2378 1081 2264 
Q 1234 2150 1697 2047 
L 1894 2003 
Q 2506 1872 2764 1633 
Q 3022 1394 3022 966 
Q 3022 478 2636 193 
Q 2250 -91 1575 -91 
Q 1294 -91 989 -36 
Q 684 19 347 128 
L 347 722 
Q 666 556 975 473 
Q 1284 391 1588 391 
Q 1994 391 2212 530 
Q 2431 669 2431 922 
Q 2431 1156 2273 1281 
Q 2116 1406 1581 1522 
L 1381 1569 
Q 847 1681 609 1914 
Q 372 2147 372 2553 
Q 372 3047 722 3315 
Q 1072 3584 1716 3584 
Q 2034 3584 2315 3537 
Q 2597 3491 2834 3397 
z
" id="DejaVuSans-73" transform="scale(0.015625)"/>
      </defs>
      <use xlink:href="#DejaVuSans-53"/>
      <use x="63.476562" xlink:href="#DejaVuSans-75"/>
      <use x="126.855469" xlink:href="#DejaVuSans-62"/>
      <use x="190.332031" xlink:href="#DejaVuSans-73"/>
      <use x="242.431641" xlink:href="#DejaVuSans-65"/>
      <use x="303.955078" xlink:href="#DejaVuSans-74"/>
     </g>
    </g>
    <g id="line2d_19">
     <path d="M 282.648864 191.242188 
L 302.648864 191.242188 
" style="fill:none;stroke:#1f77b4;stroke-linecap:square;stroke-width:1.5;"/>
    </g>
    <g id="line2d_20"/>
    <g id="text_18">
     <!-- Train -->
     <g transform="translate(310.648864 194.742188)scale(0.1 -0.1)">
      <defs>
       <path d="M -19 4666 
L 3928 4666 
L 3928 4134 
L 2272 4134 
L 2272 0 
L 1638 0 
L 1638 4134 
L -19 4134 
L -19 4666 
z
" id="DejaVuSans-54" transform="scale(0.015625)"/>
      </defs>
      <use xlink:href="#DejaVuSans-54"/>
      <use x="46.333984" xlink:href="#DejaVuSans-72"/>
      <use x="87.447266" xlink:href="#DejaVuSans-61"/>
      <use x="148.726562" xlink:href="#DejaVuSans-69"/>
      <use x="176.509766" xlink:href="#DejaVuSans-6e"/>
     </g>
    </g>
    <g id="line2d_21">
     <path d="M 282.648864 205.920313 
L 302.648864 205.920313 
" style="fill:none;stroke:#ff7f0e;stroke-linecap:square;stroke-width:1.5;"/>
    </g>
    <g id="line2d_22"/>
    <g id="text_19">
     <!-- Test -->
     <g transform="translate(310.648864 209.420313)scale(0.1 -0.1)">
      <use xlink:href="#DejaVuSans-54"/>
      <use x="44.083984" xlink:href="#DejaVuSans-65"/>
      <use x="105.607422" xlink:href="#DejaVuSans-73"/>
      <use x="157.707031" xlink:href="#DejaVuSans-74"/>
     </g>
    </g>
   </g>
  </g>
  <g id="axes_2">
   <g id="patch_8">
    <path d="M 394.363636 220.5 
L 648 220.5 
L 648 30.24 
L 394.363636 30.24 
z
" style="fill:#ffffff;"/>
   </g>
   <g id="PolyCollection_1">
    <defs>
     <path d="M 405.892562 -213.111818 
L 405.892562 -213.111818 
L 407.440069 -209.376053 
L 408.987576 -208.194389 
L 410.535082 -207.074781 
L 412.082589 -205.924672 
L 413.630096 -204.771831 
L 415.177603 -203.547175 
L 416.72511 -202.270725 
L 418.272616 -200.938143 
L 419.820123 -199.484905 
L 421.36763 -197.915643 
L 422.915137 -196.296999 
L 424.462644 -194.744796 
L 426.01015 -193.011211 
L 427.557657 -191.094017 
L 429.105164 -189.098215 
L 430.652671 -186.786146 
L 432.200177 -184.237298 
L 433.747684 -181.406365 
L 435.295191 -178.215862 
L 436.842698 -174.547831 
L 438.390205 -170.32637 
L 439.937711 -165.65063 
L 441.485218 -160.298259 
L 443.032725 -154.217587 
L 444.580232 -147.400114 
L 446.127739 -139.866621 
L 447.675245 -131.677144 
L 449.222752 -123.187069 
L 450.770259 -114.537416 
L 452.317766 -105.857273 
L 453.865273 -97.658013 
L 455.412779 -90.064244 
L 456.960286 -83.229616 
L 458.507793 -77.41446 
L 460.0553 -72.09789 
L 461.602807 -67.641033 
L 463.150313 -63.838923 
L 464.69782 -60.593271 
L 466.245327 -57.814214 
L 467.792834 -55.472797 
L 469.340341 -53.617262 
L 470.887847 -51.979304 
L 472.435354 -50.509113 
L 473.982861 -49.253452 
L 475.530368 -48.175304 
L 477.077875 -47.258302 
L 478.625381 -46.454016 
L 480.172888 -45.757542 
L 481.720395 -45.151396 
L 483.267902 -44.624355 
L 484.815409 -44.162791 
L 486.362915 -43.758503 
L 487.910422 -43.403106 
L 489.457929 -43.091686 
L 491.005436 -42.816369 
L 492.552942 -42.573564 
L 494.100449 -42.357704 
L 495.647956 -42.166399 
L 497.195463 -41.996451 
L 498.74297 -41.84086 
L 500.290476 -41.705955 
L 501.837983 -41.585404 
L 503.38549 -41.477143 
L 504.932997 -41.380215 
L 506.480504 -41.296308 
L 508.02801 -41.217682 
L 509.575517 -41.146569 
L 511.123024 -41.083714 
L 512.670531 -41.026039 
L 514.218038 -40.973192 
L 515.765544 -40.925663 
L 517.313051 -40.882004 
L 518.860558 -40.842459 
L 520.408065 -40.80618 
L 521.955572 -40.773353 
L 523.503078 -40.742706 
L 525.050585 -40.719375 
L 526.598092 -40.692823 
L 528.145599 -40.668882 
L 529.693106 -40.646612 
L 531.240612 -40.626002 
L 532.788119 -40.60734 
L 534.335626 -40.589388 
L 535.883133 -40.572889 
L 537.43064 -40.558105 
L 538.978146 -40.543318 
L 540.525653 -40.529371 
L 542.07316 -40.516756 
L 543.620667 -40.504213 
L 545.168173 -40.492302 
L 546.71568 -40.481226 
L 548.263187 -40.470865 
L 549.810694 -40.461198 
L 551.358201 -40.451366 
L 552.905707 -40.441611 
L 554.453214 -40.432567 
L 556.000721 -40.423895 
L 557.548228 -40.415505 
L 559.095735 -40.407339 
L 560.643241 -40.399521 
L 562.190748 -40.392055 
L 563.738255 -40.384772 
L 565.285762 -40.377671 
L 566.833269 -40.370777 
L 568.380775 -40.364678 
L 569.928282 -40.358242 
L 571.475789 -40.351764 
L 573.023296 -40.345408 
L 574.570803 -40.339265 
L 576.118309 -40.333195 
L 577.665816 -40.327242 
L 579.213323 -40.321309 
L 580.76083 -40.315535 
L 582.308337 -40.310365 
L 583.855843 -40.304794 
L 585.40335 -40.299068 
L 586.950857 -40.293799 
L 588.498364 -40.288137 
L 590.045871 -40.282822 
L 591.593377 -40.277531 
L 593.140884 -40.272506 
L 594.688391 -40.267285 
L 596.235898 -40.262291 
L 597.783405 -40.257143 
L 599.330911 -40.252296 
L 600.878418 -40.247615 
L 602.425925 -40.243516 
L 603.973432 -40.238851 
L 605.520938 -40.234193 
L 607.068445 -40.229608 
L 608.615952 -40.225013 
L 610.163459 -40.220435 
L 611.710966 -40.215832 
L 613.258472 -40.211359 
L 614.805979 -40.206979 
L 616.353486 -40.202587 
L 617.900993 -40.198248 
L 619.4485 -40.193963 
L 620.996006 -40.189728 
L 622.543513 -40.185489 
L 624.09102 -40.181281 
L 625.638527 -40.177013 
L 627.186034 -40.172909 
L 628.73354 -40.168769 
L 630.281047 -40.164136 
L 631.828554 -40.160151 
L 633.376061 -40.156339 
L 634.923568 -40.152202 
L 636.471074 -40.148182 
L 636.471074 -40.148182 
L 636.471074 -40.148182 
L 634.923568 -40.152202 
L 633.376061 -40.156339 
L 631.828554 -40.160151 
L 630.281047 -40.164136 
L 628.73354 -40.168769 
L 627.186034 -40.172909 
L 625.638527 -40.177013 
L 624.09102 -40.181281 
L 622.543513 -40.185489 
L 620.996006 -40.189728 
L 619.4485 -40.193963 
L 617.900993 -40.198248 
L 616.353486 -40.202587 
L 614.805979 -40.206979 
L 613.258472 -40.211359 
L 611.710966 -40.215832 
L 610.163459 -40.220435 
L 608.615952 -40.225013 
L 607.068445 -40.229608 
L 605.520938 -40.234193 
L 603.973432 -40.238851 
L 602.425925 -40.243516 
L 600.878418 -40.247615 
L 599.330911 -40.252296 
L 597.783405 -40.257143 
L 596.235898 -40.262291 
L 594.688391 -40.267285 
L 593.140884 -40.272506 
L 591.593377 -40.277531 
L 590.045871 -40.282822 
L 588.498364 -40.288137 
L 586.950857 -40.293799 
L 585.40335 -40.299068 
L 583.855843 -40.304794 
L 582.308337 -40.310365 
L 580.76083 -40.315535 
L 579.213323 -40.321309 
L 577.665816 -40.327242 
L 576.118309 -40.333195 
L 574.570803 -40.339265 
L 573.023296 -40.345408 
L 571.475789 -40.351764 
L 569.928282 -40.358242 
L 568.380775 -40.364678 
L 566.833269 -40.370777 
L 565.285762 -40.377671 
L 563.738255 -40.384772 
L 562.190748 -40.392055 
L 560.643241 -40.399521 
L 559.095735 -40.407339 
L 557.548228 -40.415505 
L 556.000721 -40.423895 
L 554.453214 -40.432567 
L 552.905707 -40.441611 
L 551.358201 -40.451366 
L 549.810694 -40.461198 
L 548.263187 -40.470865 
L 546.71568 -40.481226 
L 545.168173 -40.492302 
L 543.620667 -40.504213 
L 542.07316 -40.516756 
L 540.525653 -40.529371 
L 538.978146 -40.543318 
L 537.43064 -40.558105 
L 535.883133 -40.572889 
L 534.335626 -40.589388 
L 532.788119 -40.60734 
L 531.240612 -40.626002 
L 529.693106 -40.646612 
L 528.145599 -40.668882 
L 526.598092 -40.692823 
L 525.050585 -40.719375 
L 523.503078 -40.742706 
L 521.955572 -40.773353 
L 520.408065 -40.80618 
L 518.860558 -40.842459 
L 517.313051 -40.882004 
L 515.765544 -40.925663 
L 514.218038 -40.973192 
L 512.670531 -41.026039 
L 511.123024 -41.083714 
L 509.575517 -41.146569 
L 508.02801 -41.217682 
L 506.480504 -41.296308 
L 504.932997 -41.380215 
L 503.38549 -41.477143 
L 501.837983 -41.585404 
L 500.290476 -41.705955 
L 498.74297 -41.84086 
L 497.195463 -41.996451 
L 495.647956 -42.166399 
L 494.100449 -42.357704 
L 492.552942 -42.573564 
L 491.005436 -42.816369 
L 489.457929 -43.091686 
L 487.910422 -43.403106 
L 486.362915 -43.758503 
L 484.815409 -44.162791 
L 483.267902 -44.624355 
L 481.720395 -45.151396 
L 480.172888 -45.757542 
L 478.625381 -46.454016 
L 477.077875 -47.258302 
L 475.530368 -48.175304 
L 473.982861 -49.253452 
L 472.435354 -50.509113 
L 470.887847 -51.979304 
L 469.340341 -53.617262 
L 467.792834 -55.472797 
L 466.245327 -57.814214 
L 464.69782 -60.593271 
L 463.150313 -63.838923 
L 461.602807 -67.641033 
L 460.0553 -72.09789 
L 458.507793 -77.41446 
L 456.960286 -83.229616 
L 455.412779 -90.064244 
L 453.865273 -97.658013 
L 452.317766 -105.857273 
L 450.770259 -114.537416 
L 449.222752 -123.187069 
L 447.675245 -131.677144 
L 446.127739 -139.866621 
L 444.580232 -147.400114 
L 443.032725 -154.217587 
L 441.485218 -160.298259 
L 439.937711 -165.65063 
L 438.390205 -170.32637 
L 436.842698 -174.547831 
L 435.295191 -178.215862 
L 433.747684 -181.406365 
L 432.200177 -184.237298 
L 430.652671 -186.786146 
L 429.105164 -189.098215 
L 427.557657 -191.094017 
L 426.01015 -193.011211 
L 424.462644 -194.744796 
L 422.915137 -196.296999 
L 421.36763 -197.915643 
L 419.820123 -199.484905 
L 418.272616 -200.938143 
L 416.72511 -202.270725 
L 415.177603 -203.547175 
L 413.630096 -204.771831 
L 412.082589 -205.924672 
L 410.535082 -207.074781 
L 408.987576 -208.194389 
L 407.440069 -209.376053 
L 405.892562 -213.111818 
z
" id="m2153595c28" style="stroke:#1f77b4;stroke-opacity:0.2;"/>
    </defs>
    <g clip-path="url(#p58813d69e0)">
     <use style="fill:#1f77b4;fill-opacity:0.2;stroke:#1f77b4;stroke-opacity:0.2;" x="0" xlink:href="#m2153595c28" y="252"/>
    </g>
   </g>
   <g id="matplotlib.axis_3">
    <g id="xtick_7">
     <g id="line2d_23">
      <g>
       <use style="stroke:#000000;stroke-width:0.8;" x="404.345055" xlink:href="#m8a43df7d1e" y="220.5"/>
      </g>
     </g>
     <g id="text_20">
      <!-- 0 -->
      <g transform="translate(401.163805 235.098437)scale(0.1 -0.1)">
       <use xlink:href="#DejaVuSans-30"/>
      </g>
     </g>
    </g>
    <g id="xtick_8">
     <g id="line2d_24">
      <g>
       <use style="stroke:#000000;stroke-width:0.8;" x="452.704643" xlink:href="#m8a43df7d1e" y="220.5"/>
      </g>
     </g>
     <g id="text_21">
      <!-- 500 -->
      <g transform="translate(443.160893 235.098437)scale(0.1 -0.1)">
       <use xlink:href="#DejaVuSans-35"/>
       <use x="63.623047" xlink:href="#DejaVuSans-30"/>
       <use x="127.246094" xlink:href="#DejaVuSans-30"/>
      </g>
     </g>
    </g>
    <g id="xtick_9">
     <g id="line2d_25">
      <g>
       <use style="stroke:#000000;stroke-width:0.8;" x="501.06423" xlink:href="#m8a43df7d1e" y="220.5"/>
      </g>
     </g>
     <g id="text_22">
      <!-- 1000 -->
      <g transform="translate(488.33923 235.098437)scale(0.1 -0.1)">
       <use xlink:href="#DejaVuSans-31"/>
       <use x="63.623047" xlink:href="#DejaVuSans-30"/>
       <use x="127.246094" xlink:href="#DejaVuSans-30"/>
       <use x="190.869141" xlink:href="#DejaVuSans-30"/>
      </g>
     </g>
    </g>
    <g id="xtick_10">
     <g id="line2d_26">
      <g>
       <use style="stroke:#000000;stroke-width:0.8;" x="549.423817" xlink:href="#m8a43df7d1e" y="220.5"/>
      </g>
     </g>
     <g id="text_23">
      <!-- 1500 -->
      <g transform="translate(536.698817 235.098437)scale(0.1 -0.1)">
       <use xlink:href="#DejaVuSans-31"/>
       <use x="63.623047" xlink:href="#DejaVuSans-35"/>
       <use x="127.246094" xlink:href="#DejaVuSans-30"/>
       <use x="190.869141" xlink:href="#DejaVuSans-30"/>
      </g>
     </g>
    </g>
    <g id="xtick_11">
     <g id="line2d_27">
      <g>
       <use style="stroke:#000000;stroke-width:0.8;" x="597.783405" xlink:href="#m8a43df7d1e" y="220.5"/>
      </g>
     </g>
     <g id="text_24">
      <!-- 2000 -->
      <g transform="translate(585.058405 235.098437)scale(0.1 -0.1)">
       <use xlink:href="#DejaVuSans-32"/>
       <use x="63.623047" xlink:href="#DejaVuSans-30"/>
       <use x="127.246094" xlink:href="#DejaVuSans-30"/>
       <use x="190.869141" xlink:href="#DejaVuSans-30"/>
      </g>
     </g>
    </g>
    <g id="xtick_12">
     <g id="line2d_28">
      <g>
       <use style="stroke:#000000;stroke-width:0.8;" x="646.142992" xlink:href="#m8a43df7d1e" y="220.5"/>
      </g>
     </g>
     <g id="text_25">
      <!-- 2500 -->
      <g transform="translate(633.417992 235.098437)scale(0.1 -0.1)">
       <use xlink:href="#DejaVuSans-32"/>
       <use x="63.623047" xlink:href="#DejaVuSans-35"/>
       <use x="127.246094" xlink:href="#DejaVuSans-30"/>
       <use x="190.869141" xlink:href="#DejaVuSans-30"/>
      </g>
     </g>
    </g>
    <g id="text_26">
     <!-- Iteration -->
     <g transform="translate(499.973224 248.776563)scale(0.1 -0.1)">
      <use xlink:href="#DejaVuSans-49"/>
      <use x="29.492188" xlink:href="#DejaVuSans-74"/>
      <use x="68.701172" xlink:href="#DejaVuSans-65"/>
      <use x="130.224609" xlink:href="#DejaVuSans-72"/>
      <use x="171.337891" xlink:href="#DejaVuSans-61"/>
      <use x="232.617188" xlink:href="#DejaVuSans-74"/>
      <use x="271.826172" xlink:href="#DejaVuSans-69"/>
      <use x="299.609375" xlink:href="#DejaVuSans-6f"/>
      <use x="360.791016" xlink:href="#DejaVuSans-6e"/>
     </g>
    </g>
   </g>
   <g id="matplotlib.axis_4">
    <g id="ytick_9">
     <g id="line2d_29">
      <g>
       <use style="stroke:#000000;stroke-width:0.8;" x="394.363636" xlink:href="#ma621ccfbc7" y="215.258091"/>
      </g>
     </g>
     <g id="text_27">
      <!-- 0.1 -->
      <g transform="translate(371.460511 219.05731)scale(0.1 -0.1)">
       <use xlink:href="#DejaVuSans-30"/>
       <use x="63.623047" xlink:href="#DejaVuSans-2e"/>
       <use x="95.410156" xlink:href="#DejaVuSans-31"/>
      </g>
     </g>
    </g>
    <g id="ytick_10">
     <g id="line2d_30">
      <g>
       <use style="stroke:#000000;stroke-width:0.8;" x="394.363636" xlink:href="#ma621ccfbc7" y="173.095782"/>
      </g>
     </g>
     <g id="text_28">
      <!-- 0.2 -->
      <g transform="translate(371.460511 176.895001)scale(0.1 -0.1)">
       <use xlink:href="#DejaVuSans-30"/>
       <use x="63.623047" xlink:href="#DejaVuSans-2e"/>
       <use x="95.410156" xlink:href="#DejaVuSans-32"/>
      </g>
     </g>
    </g>
    <g id="ytick_11">
     <g id="line2d_31">
      <g>
       <use style="stroke:#000000;stroke-width:0.8;" x="394.363636" xlink:href="#ma621ccfbc7" y="130.933473"/>
      </g>
     </g>
     <g id="text_29">
      <!-- 0.3 -->
      <g transform="translate(371.460511 134.732691)scale(0.1 -0.1)">
       <defs>
        <path d="M 2597 2516 
Q 3050 2419 3304 2112 
Q 3559 1806 3559 1356 
Q 3559 666 3084 287 
Q 2609 -91 1734 -91 
Q 1441 -91 1130 -33 
Q 819 25 488 141 
L 488 750 
Q 750 597 1062 519 
Q 1375 441 1716 441 
Q 2309 441 2620 675 
Q 2931 909 2931 1356 
Q 2931 1769 2642 2001 
Q 2353 2234 1838 2234 
L 1294 2234 
L 1294 2753 
L 1863 2753 
Q 2328 2753 2575 2939 
Q 2822 3125 2822 3475 
Q 2822 3834 2567 4026 
Q 2313 4219 1838 4219 
Q 1578 4219 1281 4162 
Q 984 4106 628 3988 
L 628 4550 
Q 988 4650 1302 4700 
Q 1616 4750 1894 4750 
Q 2613 4750 3031 4423 
Q 3450 4097 3450 3541 
Q 3450 3153 3228 2886 
Q 3006 2619 2597 2516 
z
" id="DejaVuSans-33" transform="scale(0.015625)"/>
       </defs>
       <use xlink:href="#DejaVuSans-30"/>
       <use x="63.623047" xlink:href="#DejaVuSans-2e"/>
       <use x="95.410156" xlink:href="#DejaVuSans-33"/>
      </g>
     </g>
    </g>
    <g id="ytick_12">
     <g id="line2d_32">
      <g>
       <use style="stroke:#000000;stroke-width:0.8;" x="394.363636" xlink:href="#ma621ccfbc7" y="88.771163"/>
      </g>
     </g>
     <g id="text_30">
      <!-- 0.4 -->
      <g transform="translate(371.460511 92.570382)scale(0.1 -0.1)">
       <defs>
        <path d="M 2419 4116 
L 825 1625 
L 2419 1625 
L 2419 4116 
z
M 2253 4666 
L 3047 4666 
L 3047 1625 
L 3713 1625 
L 3713 1100 
L 3047 1100 
L 3047 0 
L 2419 0 
L 2419 1100 
L 313 1100 
L 313 1709 
L 2253 4666 
z
" id="DejaVuSans-34" transform="scale(0.015625)"/>
       </defs>
       <use xlink:href="#DejaVuSans-30"/>
       <use x="63.623047" xlink:href="#DejaVuSans-2e"/>
       <use x="95.410156" xlink:href="#DejaVuSans-34"/>
      </g>
     </g>
    </g>
    <g id="ytick_13">
     <g id="line2d_33">
      <g>
       <use style="stroke:#000000;stroke-width:0.8;" x="394.363636" xlink:href="#ma621ccfbc7" y="46.608854"/>
      </g>
     </g>
     <g id="text_31">
      <!-- 0.5 -->
      <g transform="translate(371.460511 50.408073)scale(0.1 -0.1)">
       <use xlink:href="#DejaVuSans-30"/>
       <use x="63.623047" xlink:href="#DejaVuSans-2e"/>
       <use x="95.410156" xlink:href="#DejaVuSans-35"/>
      </g>
     </g>
    </g>
    <g id="text_32">
     <!-- Loss -->
     <g transform="translate(365.380824 136.337187)rotate(-90)scale(0.1 -0.1)">
      <defs>
       <path d="M 628 4666 
L 1259 4666 
L 1259 531 
L 3531 531 
L 3531 0 
L 628 0 
L 628 4666 
z
" id="DejaVuSans-4c" transform="scale(0.015625)"/>
      </defs>
      <use xlink:href="#DejaVuSans-4c"/>
      <use x="53.962891" xlink:href="#DejaVuSans-6f"/>
      <use x="115.144531" xlink:href="#DejaVuSans-73"/>
      <use x="167.244141" xlink:href="#DejaVuSans-73"/>
     </g>
    </g>
   </g>
   <g id="line2d_34">
    <path clip-path="url(#p58813d69e0)" d="M 405.892562 38.888182 
L 407.440069 42.623947 
L 416.72511 49.729275 
L 419.820123 52.515095 
L 424.462644 57.255204 
L 426.01015 58.988789 
L 429.105164 62.901785 
L 430.652671 65.213854 
L 432.200177 67.762702 
L 433.747684 70.593635 
L 435.295191 73.784138 
L 436.842698 77.452169 
L 438.390205 81.67363 
L 439.937711 86.34937 
L 441.485218 91.701741 
L 443.032725 97.782413 
L 444.580232 104.599886 
L 446.127739 112.133379 
L 449.222752 128.812931 
L 453.865273 154.341987 
L 455.412779 161.935756 
L 456.960286 168.770384 
L 458.507793 174.58554 
L 460.0553 179.90211 
L 461.602807 184.358967 
L 463.150313 188.161077 
L 464.69782 191.406729 
L 466.245327 194.185786 
L 467.792834 196.527203 
L 469.340341 198.382738 
L 470.887847 200.020696 
L 472.435354 201.490887 
L 473.982861 202.746548 
L 475.530368 203.824696 
L 478.625381 205.545984 
L 481.720395 206.848604 
L 484.815409 207.837209 
L 487.910422 208.596894 
L 492.552942 209.426436 
L 497.195463 210.003549 
L 503.38549 210.522857 
L 511.123024 210.916286 
L 521.955572 211.226647 
L 538.978146 211.456682 
L 573.023296 211.654592 
L 636.471074 211.851818 
L 636.471074 211.851818 
" style="fill:none;stroke:#1f77b4;stroke-linecap:square;stroke-width:1.5;"/>
   </g>
   <g id="patch_9">
    <path d="M 394.363636 220.5 
L 394.363636 30.24 
" style="fill:none;stroke:#000000;stroke-linecap:square;stroke-linejoin:miter;stroke-width:0.8;"/>
   </g>
   <g id="patch_10">
    <path d="M 648 220.5 
L 648 30.24 
" style="fill:none;stroke:#000000;stroke-linecap:square;stroke-linejoin:miter;stroke-width:0.8;"/>
   </g>
   <g id="patch_11">
    <path d="M 394.363636 220.5 
L 648 220.5 
" style="fill:none;stroke:#000000;stroke-linecap:square;stroke-linejoin:miter;stroke-width:0.8;"/>
   </g>
   <g id="patch_12">
    <path d="M 394.363636 30.24 
L 648 30.24 
" style="fill:none;stroke:#000000;stroke-linecap:square;stroke-linejoin:miter;stroke-width:0.8;"/>
   </g>
  </g>
  <g id="text_33">
   <!-- Neural Network penguin classification accuracy/loss -->
   <g transform="translate(203.652187 14.158125)scale(0.12 -0.12)">
    <defs>
     <path d="M 628 4666 
L 1478 4666 
L 3547 763 
L 3547 4666 
L 4159 4666 
L 4159 0 
L 3309 0 
L 1241 3903 
L 1241 0 
L 628 0 
L 628 4666 
z
" id="DejaVuSans-4e" transform="scale(0.015625)"/>
     <path d="M 603 4863 
L 1178 4863 
L 1178 0 
L 603 0 
L 603 4863 
z
" id="DejaVuSans-6c" transform="scale(0.015625)"/>
     <path id="DejaVuSans-20" transform="scale(0.015625)"/>
     <path d="M 269 3500 
L 844 3500 
L 1563 769 
L 2278 3500 
L 2956 3500 
L 3675 769 
L 4391 3500 
L 4966 3500 
L 4050 0 
L 3372 0 
L 2619 2869 
L 1863 0 
L 1184 0 
L 269 3500 
z
" id="DejaVuSans-77" transform="scale(0.015625)"/>
     <path d="M 581 4863 
L 1159 4863 
L 1159 1991 
L 2875 3500 
L 3609 3500 
L 1753 1863 
L 3688 0 
L 2938 0 
L 1159 1709 
L 1159 0 
L 581 0 
L 581 4863 
z
" id="DejaVuSans-6b" transform="scale(0.015625)"/>
     <path d="M 1159 525 
L 1159 -1331 
L 581 -1331 
L 581 3500 
L 1159 3500 
L 1159 2969 
Q 1341 3281 1617 3432 
Q 1894 3584 2278 3584 
Q 2916 3584 3314 3078 
Q 3713 2572 3713 1747 
Q 3713 922 3314 415 
Q 2916 -91 2278 -91 
Q 1894 -91 1617 61 
Q 1341 213 1159 525 
z
M 3116 1747 
Q 3116 2381 2855 2742 
Q 2594 3103 2138 3103 
Q 1681 3103 1420 2742 
Q 1159 2381 1159 1747 
Q 1159 1113 1420 752 
Q 1681 391 2138 391 
Q 2594 391 2855 752 
Q 3116 1113 3116 1747 
z
" id="DejaVuSans-70" transform="scale(0.015625)"/>
     <path d="M 2906 1791 
Q 2906 2416 2648 2759 
Q 2391 3103 1925 3103 
Q 1463 3103 1205 2759 
Q 947 2416 947 1791 
Q 947 1169 1205 825 
Q 1463 481 1925 481 
Q 2391 481 2648 825 
Q 2906 1169 2906 1791 
z
M 3481 434 
Q 3481 -459 3084 -895 
Q 2688 -1331 1869 -1331 
Q 1566 -1331 1297 -1286 
Q 1028 -1241 775 -1147 
L 775 -588 
Q 1028 -725 1275 -790 
Q 1522 -856 1778 -856 
Q 2344 -856 2625 -561 
Q 2906 -266 2906 331 
L 2906 616 
Q 2728 306 2450 153 
Q 2172 0 1784 0 
Q 1141 0 747 490 
Q 353 981 353 1791 
Q 353 2603 747 3093 
Q 1141 3584 1784 3584 
Q 2172 3584 2450 3431 
Q 2728 3278 2906 2969 
L 2906 3500 
L 3481 3500 
L 3481 434 
z
" id="DejaVuSans-67" transform="scale(0.015625)"/>
     <path d="M 2375 4863 
L 2375 4384 
L 1825 4384 
Q 1516 4384 1395 4259 
Q 1275 4134 1275 3809 
L 1275 3500 
L 2222 3500 
L 2222 3053 
L 1275 3053 
L 1275 0 
L 697 0 
L 697 3053 
L 147 3053 
L 147 3500 
L 697 3500 
L 697 3744 
Q 697 4328 969 4595 
Q 1241 4863 1831 4863 
L 2375 4863 
z
" id="DejaVuSans-66" transform="scale(0.015625)"/>
     <path d="M 2059 -325 
Q 1816 -950 1584 -1140 
Q 1353 -1331 966 -1331 
L 506 -1331 
L 506 -850 
L 844 -850 
Q 1081 -850 1212 -737 
Q 1344 -625 1503 -206 
L 1606 56 
L 191 3500 
L 800 3500 
L 1894 763 
L 2988 3500 
L 3597 3500 
L 2059 -325 
z
" id="DejaVuSans-79" transform="scale(0.015625)"/>
     <path d="M 1625 4666 
L 2156 4666 
L 531 -594 
L 0 -594 
L 1625 4666 
z
" id="DejaVuSans-2f" transform="scale(0.015625)"/>
    </defs>
    <use xlink:href="#DejaVuSans-4e"/>
    <use x="74.804688" xlink:href="#DejaVuSans-65"/>
    <use x="136.328125" xlink:href="#DejaVuSans-75"/>
    <use x="199.707031" xlink:href="#DejaVuSans-72"/>
    <use x="240.820312" xlink:href="#DejaVuSans-61"/>
    <use x="302.099609" xlink:href="#DejaVuSans-6c"/>
    <use x="329.882812" xlink:href="#DejaVuSans-20"/>
    <use x="361.669922" xlink:href="#DejaVuSans-4e"/>
    <use x="436.474609" xlink:href="#DejaVuSans-65"/>
    <use x="497.998047" xlink:href="#DejaVuSans-74"/>
    <use x="537.207031" xlink:href="#DejaVuSans-77"/>
    <use x="618.994141" xlink:href="#DejaVuSans-6f"/>
    <use x="680.175781" xlink:href="#DejaVuSans-72"/>
    <use x="721.289062" xlink:href="#DejaVuSans-6b"/>
    <use x="779.199219" xlink:href="#DejaVuSans-20"/>
    <use x="810.986328" xlink:href="#DejaVuSans-70"/>
    <use x="874.462891" xlink:href="#DejaVuSans-65"/>
    <use x="935.986328" xlink:href="#DejaVuSans-6e"/>
    <use x="999.365234" xlink:href="#DejaVuSans-67"/>
    <use x="1062.841797" xlink:href="#DejaVuSans-75"/>
    <use x="1126.220703" xlink:href="#DejaVuSans-69"/>
    <use x="1154.003906" xlink:href="#DejaVuSans-6e"/>
    <use x="1217.382812" xlink:href="#DejaVuSans-20"/>
    <use x="1249.169922" xlink:href="#DejaVuSans-63"/>
    <use x="1304.150391" xlink:href="#DejaVuSans-6c"/>
    <use x="1331.933594" xlink:href="#DejaVuSans-61"/>
    <use x="1393.212891" xlink:href="#DejaVuSans-73"/>
    <use x="1445.3125" xlink:href="#DejaVuSans-73"/>
    <use x="1497.412109" xlink:href="#DejaVuSans-69"/>
    <use x="1525.195312" xlink:href="#DejaVuSans-66"/>
    <use x="1560.400391" xlink:href="#DejaVuSans-69"/>
    <use x="1588.183594" xlink:href="#DejaVuSans-63"/>
    <use x="1643.164062" xlink:href="#DejaVuSans-61"/>
    <use x="1704.443359" xlink:href="#DejaVuSans-74"/>
    <use x="1743.652344" xlink:href="#DejaVuSans-69"/>
    <use x="1771.435547" xlink:href="#DejaVuSans-6f"/>
    <use x="1832.617188" xlink:href="#DejaVuSans-6e"/>
    <use x="1895.996094" xlink:href="#DejaVuSans-20"/>
    <use x="1927.783203" xlink:href="#DejaVuSans-61"/>
    <use x="1989.0625" xlink:href="#DejaVuSans-63"/>
    <use x="2044.042969" xlink:href="#DejaVuSans-63"/>
    <use x="2099.023438" xlink:href="#DejaVuSans-75"/>
    <use x="2162.402344" xlink:href="#DejaVuSans-72"/>
    <use x="2203.515625" xlink:href="#DejaVuSans-61"/>
    <use x="2264.794922" xlink:href="#DejaVuSans-63"/>
    <use x="2319.775391" xlink:href="#DejaVuSans-79"/>
    <use x="2378.955078" xlink:href="#DejaVuSans-2f"/>
    <use x="2412.646484" xlink:href="#DejaVuSans-6c"/>
    <use x="2440.429688" xlink:href="#DejaVuSans-6f"/>
    <use x="2501.611328" xlink:href="#DejaVuSans-73"/>
    <use x="2553.710938" xlink:href="#DejaVuSans-73"/>
   </g>
  </g>
 </g>
 <defs>
  <clipPath id="p3b7be8a9b4">
   <rect height="190.26" width="253.636364" x="90" y="30.24"/>
  </clipPath>
  <clipPath id="p58813d69e0">
   <rect height="190.26" width="253.636364" x="394.363636" y="30.24"/>
  </clipPath>
 </defs>
</svg>
