<?xml version="1.0" encoding="utf-8" standalone="no"?>
<!DOCTYPE svg PUBLIC "-//W3C//DTD SVG 1.1//EN"
  "http://www.w3.org/Graphics/SVG/1.1/DTD/svg11.dtd">
<svg height="331.674375pt" version="1.1" viewBox="0 0 717.403125 331.674375" width="717.403125pt" xmlns="http://www.w3.org/2000/svg" xmlns:xlink="http://www.w3.org/1999/xlink">
 <metadata>
  <rdf:RDF xmlns:cc="http://creativecommons.org/ns#" xmlns:dc="http://purl.org/dc/elements/1.1/" xmlns:rdf="http://www.w3.org/1999/02/22-rdf-syntax-ns#">
   <cc:Work>
    <dc:type rdf:resource="http://purl.org/dc/dcmitype/StillImage"/>
    <dc:date>2021-04-12T17:16:56.873503</dc:date>
    <dc:format>image/svg+xml</dc:format>
    <dc:creator>
     <cc:Agent>
      <dc:title>Matplotlib v3.4.1, https://matplotlib.org/</dc:title>
     </cc:Agent>
    </dc:creator>
   </cc:Work>
  </rdf:RDF>
 </metadata>
 <defs>
  <style type="text/css">*{stroke-linecap:butt;stroke-linejoin:round;}</style>
 </defs>
 <g id="figure_1">
  <g id="patch_1">
   <path d="M 0 331.674375 
L 717.403125 331.674375 
L 717.403125 0 
L 0 0 
z
" style="fill:none;"/>
  </g>
  <g id="axes_1">
   <g id="patch_2">
    <path d="M 40.603125 294.118125 
L 344.966761 294.118125 
L 344.966761 22.318125 
L 40.603125 22.318125 
z
" style="fill:#ffffff;"/>
   </g>
   <g id="PolyCollection_1">
    <defs>
     <path d="M 54.437836 -50.203782 
L 54.437836 -50.161694 
L 77.495687 -52.570808 
L 100.553538 -54.71631 
L 123.611389 -85.018502 
L 146.669241 -64.761125 
L 169.727092 -63.502051 
L 192.784943 -66.649627 
L 215.842794 -63.036955 
L 238.900646 -69.298868 
L 261.958497 -65.742089 
L 285.016348 -69.030902 
L 308.074199 -71.124794 
L 331.132051 -68.153812 
L 331.132051 -74.783793 
L 331.132051 -74.783793 
L 308.074199 -79.651078 
L 285.016348 -77.601743 
L 261.958497 -73.316604 
L 238.900646 -77.158595 
L 215.842794 -70.324077 
L 192.784943 -74.548644 
L 169.727092 -71.658874 
L 146.669241 -74.971088 
L 123.611389 -99.31784 
L 100.553538 -57.269428 
L 77.495687 -53.339021 
L 54.437836 -50.203782 
z
" id="m01b8e54f3e" style="stroke:#38aaac;stroke-opacity:0.2;"/>
    </defs>
    <g clip-path="url(#p10876d47e7)">
     <use style="fill:#38aaac;fill-opacity:0.2;stroke:#38aaac;stroke-opacity:0.2;" x="0" xlink:href="#m01b8e54f3e" y="331.674375"/>
    </g>
   </g>
   <g id="PolyCollection_2">
    <defs>
     <path d="M 54.437836 -49.911243 
L 54.437836 -49.910795 
L 77.495687 -50.271269 
L 100.553538 -51.371748 
L 123.611389 -53.821378 
L 146.669241 -58.644219 
L 169.727092 -65.899616 
L 192.784943 -77.492318 
L 215.842794 -94.514836 
L 238.900646 -118.950501 
L 261.958497 -147.183681 
L 285.016348 -187.056631 
L 308.074199 -238.880742 
L 331.132051 -295.469292 
L 331.132051 -297.001705 
L 331.132051 -297.001705 
L 308.074199 -239.763331 
L 285.016348 -187.590815 
L 261.958497 -147.848282 
L 238.900646 -119.41673 
L 215.842794 -94.777774 
L 192.784943 -77.734754 
L 169.727092 -66.021779 
L 146.669241 -58.776189 
L 123.611389 -53.874731 
L 100.553538 -51.428462 
L 77.495687 -50.310476 
L 54.437836 -49.911243 
z
" id="me6a323cbf4" style="stroke:#40498e;stroke-opacity:0.2;"/>
    </defs>
    <g clip-path="url(#p10876d47e7)">
     <use style="fill:#40498e;fill-opacity:0.2;stroke:#40498e;stroke-opacity:0.2;" x="0" xlink:href="#me6a323cbf4" y="331.674375"/>
    </g>
   </g>
   <g id="matplotlib.axis_1">
    <g id="xtick_1">
     <g id="line2d_1">
      <defs>
       <path d="M 0 0 
L 0 3.5 
" id="m6574111bdb" style="stroke:#000000;stroke-width:0.8;"/>
      </defs>
      <g>
       <use style="stroke:#000000;stroke-width:0.8;" x="54.253373" xlink:href="#m6574111bdb" y="294.118125"/>
      </g>
     </g>
     <g id="text_1">
      <!-- 0 -->
      <g transform="translate(51.072123 308.716563)scale(0.1 -0.1)">
       <defs>
        <path d="M 2034 4250 
Q 1547 4250 1301 3770 
Q 1056 3291 1056 2328 
Q 1056 1369 1301 889 
Q 1547 409 2034 409 
Q 2525 409 2770 889 
Q 3016 1369 3016 2328 
Q 3016 3291 2770 3770 
Q 2525 4250 2034 4250 
z
M 2034 4750 
Q 2819 4750 3233 4129 
Q 3647 3509 3647 2328 
Q 3647 1150 3233 529 
Q 2819 -91 2034 -91 
Q 1250 -91 836 529 
Q 422 1150 422 2328 
Q 422 3509 836 4129 
Q 1250 4750 2034 4750 
z
" id="DejaVuSans-30" transform="scale(0.015625)"/>
       </defs>
       <use xlink:href="#DejaVuSans-30"/>
      </g>
     </g>
    </g>
    <g id="xtick_2">
     <g id="line2d_2">
      <g>
       <use style="stroke:#000000;stroke-width:0.8;" x="100.369075" xlink:href="#m6574111bdb" y="294.118125"/>
      </g>
     </g>
     <g id="text_2">
      <!-- 500 -->
      <g transform="translate(90.825325 308.716563)scale(0.1 -0.1)">
       <defs>
        <path d="M 691 4666 
L 3169 4666 
L 3169 4134 
L 1269 4134 
L 1269 2991 
Q 1406 3038 1543 3061 
Q 1681 3084 1819 3084 
Q 2600 3084 3056 2656 
Q 3513 2228 3513 1497 
Q 3513 744 3044 326 
Q 2575 -91 1722 -91 
Q 1428 -91 1123 -41 
Q 819 9 494 109 
L 494 744 
Q 775 591 1075 516 
Q 1375 441 1709 441 
Q 2250 441 2565 725 
Q 2881 1009 2881 1497 
Q 2881 1984 2565 2268 
Q 2250 2553 1709 2553 
Q 1456 2553 1204 2497 
Q 953 2441 691 2322 
L 691 4666 
z
" id="DejaVuSans-35" transform="scale(0.015625)"/>
       </defs>
       <use xlink:href="#DejaVuSans-35"/>
       <use x="63.623047" xlink:href="#DejaVuSans-30"/>
       <use x="127.246094" xlink:href="#DejaVuSans-30"/>
      </g>
     </g>
    </g>
    <g id="xtick_3">
     <g id="line2d_3">
      <g>
       <use style="stroke:#000000;stroke-width:0.8;" x="146.484778" xlink:href="#m6574111bdb" y="294.118125"/>
      </g>
     </g>
     <g id="text_3">
      <!-- 1000 -->
      <g transform="translate(133.759778 308.716563)scale(0.1 -0.1)">
       <defs>
        <path d="M 794 531 
L 1825 531 
L 1825 4091 
L 703 3866 
L 703 4441 
L 1819 4666 
L 2450 4666 
L 2450 531 
L 3481 531 
L 3481 0 
L 794 0 
L 794 531 
z
" id="DejaVuSans-31" transform="scale(0.015625)"/>
       </defs>
       <use xlink:href="#DejaVuSans-31"/>
       <use x="63.623047" xlink:href="#DejaVuSans-30"/>
       <use x="127.246094" xlink:href="#DejaVuSans-30"/>
       <use x="190.869141" xlink:href="#DejaVuSans-30"/>
      </g>
     </g>
    </g>
    <g id="xtick_4">
     <g id="line2d_4">
      <g>
       <use style="stroke:#000000;stroke-width:0.8;" x="192.60048" xlink:href="#m6574111bdb" y="294.118125"/>
      </g>
     </g>
     <g id="text_4">
      <!-- 1500 -->
      <g transform="translate(179.87548 308.716563)scale(0.1 -0.1)">
       <use xlink:href="#DejaVuSans-31"/>
       <use x="63.623047" xlink:href="#DejaVuSans-35"/>
       <use x="127.246094" xlink:href="#DejaVuSans-30"/>
       <use x="190.869141" xlink:href="#DejaVuSans-30"/>
      </g>
     </g>
    </g>
    <g id="xtick_5">
     <g id="line2d_5">
      <g>
       <use style="stroke:#000000;stroke-width:0.8;" x="238.716183" xlink:href="#m6574111bdb" y="294.118125"/>
      </g>
     </g>
     <g id="text_5">
      <!-- 2000 -->
      <g transform="translate(225.991183 308.716563)scale(0.1 -0.1)">
       <defs>
        <path d="M 1228 531 
L 3431 531 
L 3431 0 
L 469 0 
L 469 531 
Q 828 903 1448 1529 
Q 2069 2156 2228 2338 
Q 2531 2678 2651 2914 
Q 2772 3150 2772 3378 
Q 2772 3750 2511 3984 
Q 2250 4219 1831 4219 
Q 1534 4219 1204 4116 
Q 875 4013 500 3803 
L 500 4441 
Q 881 4594 1212 4672 
Q 1544 4750 1819 4750 
Q 2544 4750 2975 4387 
Q 3406 4025 3406 3419 
Q 3406 3131 3298 2873 
Q 3191 2616 2906 2266 
Q 2828 2175 2409 1742 
Q 1991 1309 1228 531 
z
" id="DejaVuSans-32" transform="scale(0.015625)"/>
       </defs>
       <use xlink:href="#DejaVuSans-32"/>
       <use x="63.623047" xlink:href="#DejaVuSans-30"/>
       <use x="127.246094" xlink:href="#DejaVuSans-30"/>
       <use x="190.869141" xlink:href="#DejaVuSans-30"/>
      </g>
     </g>
    </g>
    <g id="xtick_6">
     <g id="line2d_6">
      <g>
       <use style="stroke:#000000;stroke-width:0.8;" x="284.831885" xlink:href="#m6574111bdb" y="294.118125"/>
      </g>
     </g>
     <g id="text_6">
      <!-- 2500 -->
      <g transform="translate(272.106885 308.716563)scale(0.1 -0.1)">
       <use xlink:href="#DejaVuSans-32"/>
       <use x="63.623047" xlink:href="#DejaVuSans-35"/>
       <use x="127.246094" xlink:href="#DejaVuSans-30"/>
       <use x="190.869141" xlink:href="#DejaVuSans-30"/>
      </g>
     </g>
    </g>
    <g id="xtick_7">
     <g id="line2d_7">
      <g>
       <use style="stroke:#000000;stroke-width:0.8;" x="330.947588" xlink:href="#m6574111bdb" y="294.118125"/>
      </g>
     </g>
     <g id="text_7">
      <!-- 3000 -->
      <g transform="translate(318.222588 308.716563)scale(0.1 -0.1)">
       <defs>
        <path d="M 2597 2516 
Q 3050 2419 3304 2112 
Q 3559 1806 3559 1356 
Q 3559 666 3084 287 
Q 2609 -91 1734 -91 
Q 1441 -91 1130 -33 
Q 819 25 488 141 
L 488 750 
Q 750 597 1062 519 
Q 1375 441 1716 441 
Q 2309 441 2620 675 
Q 2931 909 2931 1356 
Q 2931 1769 2642 2001 
Q 2353 2234 1838 2234 
L 1294 2234 
L 1294 2753 
L 1863 2753 
Q 2328 2753 2575 2939 
Q 2822 3125 2822 3475 
Q 2822 3834 2567 4026 
Q 2313 4219 1838 4219 
Q 1578 4219 1281 4162 
Q 984 4106 628 3988 
L 628 4550 
Q 988 4650 1302 4700 
Q 1616 4750 1894 4750 
Q 2613 4750 3031 4423 
Q 3450 4097 3450 3541 
Q 3450 3153 3228 2886 
Q 3006 2619 2597 2516 
z
" id="DejaVuSans-33" transform="scale(0.015625)"/>
       </defs>
       <use xlink:href="#DejaVuSans-33"/>
       <use x="63.623047" xlink:href="#DejaVuSans-30"/>
       <use x="127.246094" xlink:href="#DejaVuSans-30"/>
       <use x="190.869141" xlink:href="#DejaVuSans-30"/>
      </g>
     </g>
    </g>
    <g id="text_8">
     <!-- p -->
     <g transform="translate(189.610724 322.394687)scale(0.1 -0.1)">
      <defs>
       <path d="M 1159 525 
L 1159 -1331 
L 581 -1331 
L 581 3500 
L 1159 3500 
L 1159 2969 
Q 1341 3281 1617 3432 
Q 1894 3584 2278 3584 
Q 2916 3584 3314 3078 
Q 3713 2572 3713 1747 
Q 3713 922 3314 415 
Q 2916 -91 2278 -91 
Q 1894 -91 1617 61 
Q 1341 213 1159 525 
z
M 3116 1747 
Q 3116 2381 2855 2742 
Q 2594 3103 2138 3103 
Q 1681 3103 1420 2742 
Q 1159 2381 1159 1747 
Q 1159 1113 1420 752 
Q 1681 391 2138 391 
Q 2594 391 2855 752 
Q 3116 1113 3116 1747 
z
" id="DejaVuSans-70" transform="scale(0.015625)"/>
      </defs>
      <use xlink:href="#DejaVuSans-70"/>
     </g>
    </g>
   </g>
   <g id="matplotlib.axis_2">
    <g id="ytick_1">
     <g id="line2d_8">
      <defs>
       <path d="M 0 0 
L -3.5 0 
" id="m4319282c97" style="stroke:#000000;stroke-width:0.8;"/>
      </defs>
      <g>
       <use style="stroke:#000000;stroke-width:0.8;" x="40.603125" xlink:href="#m4319282c97" y="281.765894"/>
      </g>
     </g>
     <g id="text_9">
      <!-- 0 -->
      <g transform="translate(27.240625 285.565112)scale(0.1 -0.1)">
       <use xlink:href="#DejaVuSans-30"/>
      </g>
     </g>
    </g>
    <g id="ytick_2">
     <g id="line2d_9">
      <g>
       <use style="stroke:#000000;stroke-width:0.8;" x="40.603125" xlink:href="#m4319282c97" y="222.045537"/>
      </g>
     </g>
     <g id="text_10">
      <!-- 5 -->
      <g transform="translate(27.240625 225.844756)scale(0.1 -0.1)">
       <use xlink:href="#DejaVuSans-35"/>
      </g>
     </g>
    </g>
    <g id="ytick_3">
     <g id="line2d_10">
      <g>
       <use style="stroke:#000000;stroke-width:0.8;" x="40.603125" xlink:href="#m4319282c97" y="162.32518"/>
      </g>
     </g>
     <g id="text_11">
      <!-- 10 -->
      <g transform="translate(20.878125 166.124399)scale(0.1 -0.1)">
       <use xlink:href="#DejaVuSans-31"/>
       <use x="63.623047" xlink:href="#DejaVuSans-30"/>
      </g>
     </g>
    </g>
    <g id="ytick_4">
     <g id="line2d_11">
      <g>
       <use style="stroke:#000000;stroke-width:0.8;" x="40.603125" xlink:href="#m4319282c97" y="102.604824"/>
      </g>
     </g>
     <g id="text_12">
      <!-- 15 -->
      <g transform="translate(20.878125 106.404042)scale(0.1 -0.1)">
       <use xlink:href="#DejaVuSans-31"/>
       <use x="63.623047" xlink:href="#DejaVuSans-35"/>
      </g>
     </g>
    </g>
    <g id="ytick_5">
     <g id="line2d_12">
      <g>
       <use style="stroke:#000000;stroke-width:0.8;" x="40.603125" xlink:href="#m4319282c97" y="42.884467"/>
      </g>
     </g>
     <g id="text_13">
      <!-- 20 -->
      <g transform="translate(20.878125 46.683686)scale(0.1 -0.1)">
       <use xlink:href="#DejaVuSans-32"/>
       <use x="63.623047" xlink:href="#DejaVuSans-30"/>
      </g>
     </g>
    </g>
    <g id="text_14">
     <!-- Time -->
     <g transform="translate(14.798437 170.451719)rotate(-90)scale(0.1 -0.1)">
      <defs>
       <path d="M -19 4666 
L 3928 4666 
L 3928 4134 
L 2272 4134 
L 2272 0 
L 1638 0 
L 1638 4134 
L -19 4134 
L -19 4666 
z
" id="DejaVuSans-54" transform="scale(0.015625)"/>
       <path d="M 603 3500 
L 1178 3500 
L 1178 0 
L 603 0 
L 603 3500 
z
M 603 4863 
L 1178 4863 
L 1178 4134 
L 603 4134 
L 603 4863 
z
" id="DejaVuSans-69" transform="scale(0.015625)"/>
       <path d="M 3328 2828 
Q 3544 3216 3844 3400 
Q 4144 3584 4550 3584 
Q 5097 3584 5394 3201 
Q 5691 2819 5691 2113 
L 5691 0 
L 5113 0 
L 5113 2094 
Q 5113 2597 4934 2840 
Q 4756 3084 4391 3084 
Q 3944 3084 3684 2787 
Q 3425 2491 3425 1978 
L 3425 0 
L 2847 0 
L 2847 2094 
Q 2847 2600 2669 2842 
Q 2491 3084 2119 3084 
Q 1678 3084 1418 2786 
Q 1159 2488 1159 1978 
L 1159 0 
L 581 0 
L 581 3500 
L 1159 3500 
L 1159 2956 
Q 1356 3278 1631 3431 
Q 1906 3584 2284 3584 
Q 2666 3584 2933 3390 
Q 3200 3197 3328 2828 
z
" id="DejaVuSans-6d" transform="scale(0.015625)"/>
       <path d="M 3597 1894 
L 3597 1613 
L 953 1613 
Q 991 1019 1311 708 
Q 1631 397 2203 397 
Q 2534 397 2845 478 
Q 3156 559 3463 722 
L 3463 178 
Q 3153 47 2828 -22 
Q 2503 -91 2169 -91 
Q 1331 -91 842 396 
Q 353 884 353 1716 
Q 353 2575 817 3079 
Q 1281 3584 2069 3584 
Q 2775 3584 3186 3129 
Q 3597 2675 3597 1894 
z
M 3022 2063 
Q 3016 2534 2758 2815 
Q 2500 3097 2075 3097 
Q 1594 3097 1305 2825 
Q 1016 2553 972 2059 
L 3022 2063 
z
" id="DejaVuSans-65" transform="scale(0.015625)"/>
      </defs>
      <use xlink:href="#DejaVuSans-54"/>
      <use x="57.958984" xlink:href="#DejaVuSans-69"/>
      <use x="85.742188" xlink:href="#DejaVuSans-6d"/>
      <use x="183.154297" xlink:href="#DejaVuSans-65"/>
     </g>
    </g>
   </g>
   <g id="line2d_13">
    <path clip-path="url(#p10876d47e7)" d="M 54.437836 281.493435 
L 77.495687 278.743968 
L 100.553538 275.730902 
L 123.611389 238.873325 
L 146.669241 261.881286 
L 169.727092 264.127528 
L 192.784943 261.248612 
L 215.842794 265.028063 
L 238.900646 258.545269 
L 261.958497 262.337464 
L 285.016348 258.267972 
L 308.074199 256.232365 
L 331.132051 260.478457 
" style="fill:none;stroke:#38aaac;stroke-linecap:square;stroke-width:1.5;"/>
   </g>
   <g id="line2d_14">
    <path clip-path="url(#p10876d47e7)" d="M 54.437836 281.763371 
L 77.495687 281.385489 
L 100.553538 280.276197 
L 123.611389 277.825069 
L 146.669241 272.968979 
L 169.727092 265.713553 
L 192.784943 254.06548 
L 215.842794 237.032323 
L 238.900646 212.502705 
L 261.958497 184.140627 
L 285.016348 144.355826 
L 308.074199 92.338947 
L 331.132051 35.468278 
" style="fill:none;stroke:#40498e;stroke-linecap:square;stroke-width:1.5;"/>
   </g>
   <g id="line2d_15"/>
   <g id="line2d_16"/>
   <g id="patch_3">
    <path d="M 40.603125 294.118125 
L 40.603125 22.318125 
" style="fill:none;stroke:#000000;stroke-linecap:square;stroke-linejoin:miter;stroke-width:0.8;"/>
   </g>
   <g id="patch_4">
    <path d="M 344.966761 294.118125 
L 344.966761 22.318125 
" style="fill:none;stroke:#000000;stroke-linecap:square;stroke-linejoin:miter;stroke-width:0.8;"/>
   </g>
   <g id="patch_5">
    <path d="M 40.603125 294.118125 
L 344.966761 294.118125 
" style="fill:none;stroke:#000000;stroke-linecap:square;stroke-linejoin:miter;stroke-width:0.8;"/>
   </g>
   <g id="patch_6">
    <path d="M 40.603125 22.318125 
L 344.966761 22.318125 
" style="fill:none;stroke:#000000;stroke-linecap:square;stroke-linejoin:miter;stroke-width:0.8;"/>
   </g>
   <g id="text_15">
    <!-- Fitting time versus dataset dimension -->
    <g transform="translate(79.407443 16.318125)scale(0.12 -0.12)">
     <defs>
      <path d="M 628 4666 
L 3309 4666 
L 3309 4134 
L 1259 4134 
L 1259 2759 
L 3109 2759 
L 3109 2228 
L 1259 2228 
L 1259 0 
L 628 0 
L 628 4666 
z
" id="DejaVuSans-46" transform="scale(0.015625)"/>
      <path d="M 1172 4494 
L 1172 3500 
L 2356 3500 
L 2356 3053 
L 1172 3053 
L 1172 1153 
Q 1172 725 1289 603 
Q 1406 481 1766 481 
L 2356 481 
L 2356 0 
L 1766 0 
Q 1100 0 847 248 
Q 594 497 594 1153 
L 594 3053 
L 172 3053 
L 172 3500 
L 594 3500 
L 594 4494 
L 1172 4494 
z
" id="DejaVuSans-74" transform="scale(0.015625)"/>
      <path d="M 3513 2113 
L 3513 0 
L 2938 0 
L 2938 2094 
Q 2938 2591 2744 2837 
Q 2550 3084 2163 3084 
Q 1697 3084 1428 2787 
Q 1159 2491 1159 1978 
L 1159 0 
L 581 0 
L 581 3500 
L 1159 3500 
L 1159 2956 
Q 1366 3272 1645 3428 
Q 1925 3584 2291 3584 
Q 2894 3584 3203 3211 
Q 3513 2838 3513 2113 
z
" id="DejaVuSans-6e" transform="scale(0.015625)"/>
      <path d="M 2906 1791 
Q 2906 2416 2648 2759 
Q 2391 3103 1925 3103 
Q 1463 3103 1205 2759 
Q 947 2416 947 1791 
Q 947 1169 1205 825 
Q 1463 481 1925 481 
Q 2391 481 2648 825 
Q 2906 1169 2906 1791 
z
M 3481 434 
Q 3481 -459 3084 -895 
Q 2688 -1331 1869 -1331 
Q 1566 -1331 1297 -1286 
Q 1028 -1241 775 -1147 
L 775 -588 
Q 1028 -725 1275 -790 
Q 1522 -856 1778 -856 
Q 2344 -856 2625 -561 
Q 2906 -266 2906 331 
L 2906 616 
Q 2728 306 2450 153 
Q 2172 0 1784 0 
Q 1141 0 747 490 
Q 353 981 353 1791 
Q 353 2603 747 3093 
Q 1141 3584 1784 3584 
Q 2172 3584 2450 3431 
Q 2728 3278 2906 2969 
L 2906 3500 
L 3481 3500 
L 3481 434 
z
" id="DejaVuSans-67" transform="scale(0.015625)"/>
      <path id="DejaVuSans-20" transform="scale(0.015625)"/>
      <path d="M 191 3500 
L 800 3500 
L 1894 563 
L 2988 3500 
L 3597 3500 
L 2284 0 
L 1503 0 
L 191 3500 
z
" id="DejaVuSans-76" transform="scale(0.015625)"/>
      <path d="M 2631 2963 
Q 2534 3019 2420 3045 
Q 2306 3072 2169 3072 
Q 1681 3072 1420 2755 
Q 1159 2438 1159 1844 
L 1159 0 
L 581 0 
L 581 3500 
L 1159 3500 
L 1159 2956 
Q 1341 3275 1631 3429 
Q 1922 3584 2338 3584 
Q 2397 3584 2469 3576 
Q 2541 3569 2628 3553 
L 2631 2963 
z
" id="DejaVuSans-72" transform="scale(0.015625)"/>
      <path d="M 2834 3397 
L 2834 2853 
Q 2591 2978 2328 3040 
Q 2066 3103 1784 3103 
Q 1356 3103 1142 2972 
Q 928 2841 928 2578 
Q 928 2378 1081 2264 
Q 1234 2150 1697 2047 
L 1894 2003 
Q 2506 1872 2764 1633 
Q 3022 1394 3022 966 
Q 3022 478 2636 193 
Q 2250 -91 1575 -91 
Q 1294 -91 989 -36 
Q 684 19 347 128 
L 347 722 
Q 666 556 975 473 
Q 1284 391 1588 391 
Q 1994 391 2212 530 
Q 2431 669 2431 922 
Q 2431 1156 2273 1281 
Q 2116 1406 1581 1522 
L 1381 1569 
Q 847 1681 609 1914 
Q 372 2147 372 2553 
Q 372 3047 722 3315 
Q 1072 3584 1716 3584 
Q 2034 3584 2315 3537 
Q 2597 3491 2834 3397 
z
" id="DejaVuSans-73" transform="scale(0.015625)"/>
      <path d="M 544 1381 
L 544 3500 
L 1119 3500 
L 1119 1403 
Q 1119 906 1312 657 
Q 1506 409 1894 409 
Q 2359 409 2629 706 
Q 2900 1003 2900 1516 
L 2900 3500 
L 3475 3500 
L 3475 0 
L 2900 0 
L 2900 538 
Q 2691 219 2414 64 
Q 2138 -91 1772 -91 
Q 1169 -91 856 284 
Q 544 659 544 1381 
z
M 1991 3584 
L 1991 3584 
z
" id="DejaVuSans-75" transform="scale(0.015625)"/>
      <path d="M 2906 2969 
L 2906 4863 
L 3481 4863 
L 3481 0 
L 2906 0 
L 2906 525 
Q 2725 213 2448 61 
Q 2172 -91 1784 -91 
Q 1150 -91 751 415 
Q 353 922 353 1747 
Q 353 2572 751 3078 
Q 1150 3584 1784 3584 
Q 2172 3584 2448 3432 
Q 2725 3281 2906 2969 
z
M 947 1747 
Q 947 1113 1208 752 
Q 1469 391 1925 391 
Q 2381 391 2643 752 
Q 2906 1113 2906 1747 
Q 2906 2381 2643 2742 
Q 2381 3103 1925 3103 
Q 1469 3103 1208 2742 
Q 947 2381 947 1747 
z
" id="DejaVuSans-64" transform="scale(0.015625)"/>
      <path d="M 2194 1759 
Q 1497 1759 1228 1600 
Q 959 1441 959 1056 
Q 959 750 1161 570 
Q 1363 391 1709 391 
Q 2188 391 2477 730 
Q 2766 1069 2766 1631 
L 2766 1759 
L 2194 1759 
z
M 3341 1997 
L 3341 0 
L 2766 0 
L 2766 531 
Q 2569 213 2275 61 
Q 1981 -91 1556 -91 
Q 1019 -91 701 211 
Q 384 513 384 1019 
Q 384 1609 779 1909 
Q 1175 2209 1959 2209 
L 2766 2209 
L 2766 2266 
Q 2766 2663 2505 2880 
Q 2244 3097 1772 3097 
Q 1472 3097 1187 3025 
Q 903 2953 641 2809 
L 641 3341 
Q 956 3463 1253 3523 
Q 1550 3584 1831 3584 
Q 2591 3584 2966 3190 
Q 3341 2797 3341 1997 
z
" id="DejaVuSans-61" transform="scale(0.015625)"/>
      <path d="M 1959 3097 
Q 1497 3097 1228 2736 
Q 959 2375 959 1747 
Q 959 1119 1226 758 
Q 1494 397 1959 397 
Q 2419 397 2687 759 
Q 2956 1122 2956 1747 
Q 2956 2369 2687 2733 
Q 2419 3097 1959 3097 
z
M 1959 3584 
Q 2709 3584 3137 3096 
Q 3566 2609 3566 1747 
Q 3566 888 3137 398 
Q 2709 -91 1959 -91 
Q 1206 -91 779 398 
Q 353 888 353 1747 
Q 353 2609 779 3096 
Q 1206 3584 1959 3584 
z
" id="DejaVuSans-6f" transform="scale(0.015625)"/>
     </defs>
     <use xlink:href="#DejaVuSans-46"/>
     <use x="50.269531" xlink:href="#DejaVuSans-69"/>
     <use x="78.052734" xlink:href="#DejaVuSans-74"/>
     <use x="117.261719" xlink:href="#DejaVuSans-74"/>
     <use x="156.470703" xlink:href="#DejaVuSans-69"/>
     <use x="184.253906" xlink:href="#DejaVuSans-6e"/>
     <use x="247.632812" xlink:href="#DejaVuSans-67"/>
     <use x="311.109375" xlink:href="#DejaVuSans-20"/>
     <use x="342.896484" xlink:href="#DejaVuSans-74"/>
     <use x="382.105469" xlink:href="#DejaVuSans-69"/>
     <use x="409.888672" xlink:href="#DejaVuSans-6d"/>
     <use x="507.300781" xlink:href="#DejaVuSans-65"/>
     <use x="568.824219" xlink:href="#DejaVuSans-20"/>
     <use x="600.611328" xlink:href="#DejaVuSans-76"/>
     <use x="659.791016" xlink:href="#DejaVuSans-65"/>
     <use x="721.314453" xlink:href="#DejaVuSans-72"/>
     <use x="762.427734" xlink:href="#DejaVuSans-73"/>
     <use x="814.527344" xlink:href="#DejaVuSans-75"/>
     <use x="877.90625" xlink:href="#DejaVuSans-73"/>
     <use x="930.005859" xlink:href="#DejaVuSans-20"/>
     <use x="961.792969" xlink:href="#DejaVuSans-64"/>
     <use x="1025.269531" xlink:href="#DejaVuSans-61"/>
     <use x="1086.548828" xlink:href="#DejaVuSans-74"/>
     <use x="1125.757812" xlink:href="#DejaVuSans-61"/>
     <use x="1187.037109" xlink:href="#DejaVuSans-73"/>
     <use x="1239.136719" xlink:href="#DejaVuSans-65"/>
     <use x="1300.660156" xlink:href="#DejaVuSans-74"/>
     <use x="1339.869141" xlink:href="#DejaVuSans-20"/>
     <use x="1371.65625" xlink:href="#DejaVuSans-64"/>
     <use x="1435.132812" xlink:href="#DejaVuSans-69"/>
     <use x="1462.916016" xlink:href="#DejaVuSans-6d"/>
     <use x="1560.328125" xlink:href="#DejaVuSans-65"/>
     <use x="1621.851562" xlink:href="#DejaVuSans-6e"/>
     <use x="1685.230469" xlink:href="#DejaVuSans-73"/>
     <use x="1737.330078" xlink:href="#DejaVuSans-69"/>
     <use x="1765.113281" xlink:href="#DejaVuSans-6f"/>
     <use x="1826.294922" xlink:href="#DejaVuSans-6e"/>
    </g>
   </g>
   <g id="legend_1">
    <g id="patch_7">
     <path d="M 47.603125 74.3525 
L 119.803125 74.3525 
Q 121.803125 74.3525 121.803125 72.3525 
L 121.803125 29.318125 
Q 121.803125 27.318125 119.803125 27.318125 
L 47.603125 27.318125 
Q 45.603125 27.318125 45.603125 29.318125 
L 45.603125 72.3525 
Q 45.603125 74.3525 47.603125 74.3525 
z
" style="fill:#ffffff;opacity:0.8;stroke:#cccccc;stroke-linejoin:miter;"/>
    </g>
    <g id="text_16">
     <!-- Solver -->
     <g transform="translate(67.989062 38.916562)scale(0.1 -0.1)">
      <defs>
       <path d="M 3425 4513 
L 3425 3897 
Q 3066 4069 2747 4153 
Q 2428 4238 2131 4238 
Q 1616 4238 1336 4038 
Q 1056 3838 1056 3469 
Q 1056 3159 1242 3001 
Q 1428 2844 1947 2747 
L 2328 2669 
Q 3034 2534 3370 2195 
Q 3706 1856 3706 1288 
Q 3706 609 3251 259 
Q 2797 -91 1919 -91 
Q 1588 -91 1214 -16 
Q 841 59 441 206 
L 441 856 
Q 825 641 1194 531 
Q 1563 422 1919 422 
Q 2459 422 2753 634 
Q 3047 847 3047 1241 
Q 3047 1584 2836 1778 
Q 2625 1972 2144 2069 
L 1759 2144 
Q 1053 2284 737 2584 
Q 422 2884 422 3419 
Q 422 4038 858 4394 
Q 1294 4750 2059 4750 
Q 2388 4750 2728 4690 
Q 3069 4631 3425 4513 
z
" id="DejaVuSans-53" transform="scale(0.015625)"/>
       <path d="M 603 4863 
L 1178 4863 
L 1178 0 
L 603 0 
L 603 4863 
z
" id="DejaVuSans-6c" transform="scale(0.015625)"/>
      </defs>
      <use xlink:href="#DejaVuSans-53"/>
      <use x="63.476562" xlink:href="#DejaVuSans-6f"/>
      <use x="124.658203" xlink:href="#DejaVuSans-6c"/>
      <use x="152.441406" xlink:href="#DejaVuSans-76"/>
      <use x="211.621094" xlink:href="#DejaVuSans-65"/>
      <use x="273.144531" xlink:href="#DejaVuSans-72"/>
     </g>
    </g>
    <g id="line2d_17">
     <path d="M 49.603125 50.094688 
L 69.603125 50.094688 
" style="fill:none;stroke:#38aaac;stroke-linecap:square;stroke-width:1.5;"/>
    </g>
    <g id="line2d_18"/>
    <g id="text_17">
     <!-- SGD -->
     <g transform="translate(77.603125 53.594688)scale(0.1 -0.1)">
      <defs>
       <path d="M 3809 666 
L 3809 1919 
L 2778 1919 
L 2778 2438 
L 4434 2438 
L 4434 434 
Q 4069 175 3628 42 
Q 3188 -91 2688 -91 
Q 1594 -91 976 548 
Q 359 1188 359 2328 
Q 359 3472 976 4111 
Q 1594 4750 2688 4750 
Q 3144 4750 3555 4637 
Q 3966 4525 4313 4306 
L 4313 3634 
Q 3963 3931 3569 4081 
Q 3175 4231 2741 4231 
Q 1884 4231 1454 3753 
Q 1025 3275 1025 2328 
Q 1025 1384 1454 906 
Q 1884 428 2741 428 
Q 3075 428 3337 486 
Q 3600 544 3809 666 
z
" id="DejaVuSans-47" transform="scale(0.015625)"/>
       <path d="M 1259 4147 
L 1259 519 
L 2022 519 
Q 2988 519 3436 956 
Q 3884 1394 3884 2338 
Q 3884 3275 3436 3711 
Q 2988 4147 2022 4147 
L 1259 4147 
z
M 628 4666 
L 1925 4666 
Q 3281 4666 3915 4102 
Q 4550 3538 4550 2338 
Q 4550 1131 3912 565 
Q 3275 0 1925 0 
L 628 0 
L 628 4666 
z
" id="DejaVuSans-44" transform="scale(0.015625)"/>
      </defs>
      <use xlink:href="#DejaVuSans-53"/>
      <use x="63.476562" xlink:href="#DejaVuSans-47"/>
      <use x="140.966797" xlink:href="#DejaVuSans-44"/>
     </g>
    </g>
    <g id="line2d_19">
     <path d="M 49.603125 64.772813 
L 69.603125 64.772813 
" style="fill:none;stroke:#40498e;stroke-linecap:square;stroke-width:1.5;"/>
    </g>
    <g id="line2d_20"/>
    <g id="text_18">
     <!-- Analytic -->
     <g transform="translate(77.603125 68.272813)scale(0.1 -0.1)">
      <defs>
       <path d="M 2188 4044 
L 1331 1722 
L 3047 1722 
L 2188 4044 
z
M 1831 4666 
L 2547 4666 
L 4325 0 
L 3669 0 
L 3244 1197 
L 1141 1197 
L 716 0 
L 50 0 
L 1831 4666 
z
" id="DejaVuSans-41" transform="scale(0.015625)"/>
       <path d="M 2059 -325 
Q 1816 -950 1584 -1140 
Q 1353 -1331 966 -1331 
L 506 -1331 
L 506 -850 
L 844 -850 
Q 1081 -850 1212 -737 
Q 1344 -625 1503 -206 
L 1606 56 
L 191 3500 
L 800 3500 
L 1894 763 
L 2988 3500 
L 3597 3500 
L 2059 -325 
z
" id="DejaVuSans-79" transform="scale(0.015625)"/>
       <path d="M 3122 3366 
L 3122 2828 
Q 2878 2963 2633 3030 
Q 2388 3097 2138 3097 
Q 1578 3097 1268 2742 
Q 959 2388 959 1747 
Q 959 1106 1268 751 
Q 1578 397 2138 397 
Q 2388 397 2633 464 
Q 2878 531 3122 666 
L 3122 134 
Q 2881 22 2623 -34 
Q 2366 -91 2075 -91 
Q 1284 -91 818 406 
Q 353 903 353 1747 
Q 353 2603 823 3093 
Q 1294 3584 2113 3584 
Q 2378 3584 2631 3529 
Q 2884 3475 3122 3366 
z
" id="DejaVuSans-63" transform="scale(0.015625)"/>
      </defs>
      <use xlink:href="#DejaVuSans-41"/>
      <use x="68.408203" xlink:href="#DejaVuSans-6e"/>
      <use x="131.787109" xlink:href="#DejaVuSans-61"/>
      <use x="193.066406" xlink:href="#DejaVuSans-6c"/>
      <use x="220.849609" xlink:href="#DejaVuSans-79"/>
      <use x="280.029297" xlink:href="#DejaVuSans-74"/>
      <use x="319.238281" xlink:href="#DejaVuSans-69"/>
      <use x="347.021484" xlink:href="#DejaVuSans-63"/>
     </g>
    </g>
   </g>
  </g>
  <g id="axes_2">
   <g id="patch_8">
    <path d="M 405.839489 294.118125 
L 710.203125 294.118125 
L 710.203125 22.318125 
L 405.839489 22.318125 
z
" style="fill:#ffffff;"/>
   </g>
   <g id="PolyCollection_3">
    <defs>
     <path d="M 419.674199 -166.250352 
L 419.674199 -89.675127 
L 442.732051 -103.645144 
L 465.789902 -97.553739 
L 488.847753 -61.337341 
L 511.905604 -144.666337 
L 534.963456 -102.762264 
L 558.021307 -76.597364 
L 581.079158 -139.914564 
L 604.137009 -93.957355 
L 627.194861 -121.77887 
L 650.252712 -137.344621 
L 673.310563 -185.329446 
L 696.368414 -149.400839 
L 696.368414 -262.682948 
L 696.368414 -262.682948 
L 673.310563 -297.001705 
L 650.252712 -257.847086 
L 627.194861 -218.548303 
L 604.137009 -216.20016 
L 581.079158 -229.270117 
L 558.021307 -155.995017 
L 534.963456 -188.00743 
L 511.905604 -277.187919 
L 488.847753 -114.583841 
L 465.789902 -158.363866 
L 442.732051 -194.509913 
L 419.674199 -166.250352 
z
" id="mbf11db5760" style="stroke:#38aaac;stroke-opacity:0.2;"/>
    </defs>
    <g clip-path="url(#pff0b3c5c6b)">
     <use style="fill:#38aaac;fill-opacity:0.2;stroke:#38aaac;stroke-opacity:0.2;" x="0" xlink:href="#mbf11db5760" y="331.674375"/>
    </g>
   </g>
   <g id="PolyCollection_4">
    <defs>
     <path d="M 419.674199 -49.910795 
L 419.674199 -49.910795 
L 442.732051 -49.910795 
L 465.789902 -49.910795 
L 488.847753 -49.910795 
L 511.905604 -49.910795 
L 534.963456 -49.910795 
L 558.021307 -49.910795 
L 581.079158 -49.910795 
L 604.137009 -49.910795 
L 627.194861 -49.910795 
L 650.252712 -49.910795 
L 673.310563 -49.910795 
L 696.368414 -49.910795 
L 696.368414 -49.910795 
L 696.368414 -49.910795 
L 673.310563 -49.910795 
L 650.252712 -49.910795 
L 627.194861 -49.910795 
L 604.137009 -49.910795 
L 581.079158 -49.910795 
L 558.021307 -49.910795 
L 534.963456 -49.910795 
L 511.905604 -49.910795 
L 488.847753 -49.910795 
L 465.789902 -49.910795 
L 442.732051 -49.910795 
L 419.674199 -49.910795 
z
" id="m57143e640b" style="stroke:#40498e;stroke-opacity:0.2;"/>
    </defs>
    <g clip-path="url(#pff0b3c5c6b)">
     <use style="fill:#40498e;fill-opacity:0.2;stroke:#40498e;stroke-opacity:0.2;" x="0" xlink:href="#m57143e640b" y="331.674375"/>
    </g>
   </g>
   <g id="matplotlib.axis_3">
    <g id="xtick_8">
     <g id="line2d_21">
      <g>
       <use style="stroke:#000000;stroke-width:0.8;" x="419.489737" xlink:href="#m6574111bdb" y="294.118125"/>
      </g>
     </g>
     <g id="text_19">
      <!-- 0 -->
      <g transform="translate(416.308487 308.716563)scale(0.1 -0.1)">
       <use xlink:href="#DejaVuSans-30"/>
      </g>
     </g>
    </g>
    <g id="xtick_9">
     <g id="line2d_22">
      <g>
       <use style="stroke:#000000;stroke-width:0.8;" x="465.605439" xlink:href="#m6574111bdb" y="294.118125"/>
      </g>
     </g>
     <g id="text_20">
      <!-- 500 -->
      <g transform="translate(456.061689 308.716563)scale(0.1 -0.1)">
       <use xlink:href="#DejaVuSans-35"/>
       <use x="63.623047" xlink:href="#DejaVuSans-30"/>
       <use x="127.246094" xlink:href="#DejaVuSans-30"/>
      </g>
     </g>
    </g>
    <g id="xtick_10">
     <g id="line2d_23">
      <g>
       <use style="stroke:#000000;stroke-width:0.8;" x="511.721142" xlink:href="#m6574111bdb" y="294.118125"/>
      </g>
     </g>
     <g id="text_21">
      <!-- 1000 -->
      <g transform="translate(498.996142 308.716563)scale(0.1 -0.1)">
       <use xlink:href="#DejaVuSans-31"/>
       <use x="63.623047" xlink:href="#DejaVuSans-30"/>
       <use x="127.246094" xlink:href="#DejaVuSans-30"/>
       <use x="190.869141" xlink:href="#DejaVuSans-30"/>
      </g>
     </g>
    </g>
    <g id="xtick_11">
     <g id="line2d_24">
      <g>
       <use style="stroke:#000000;stroke-width:0.8;" x="557.836844" xlink:href="#m6574111bdb" y="294.118125"/>
      </g>
     </g>
     <g id="text_22">
      <!-- 1500 -->
      <g transform="translate(545.111844 308.716563)scale(0.1 -0.1)">
       <use xlink:href="#DejaVuSans-31"/>
       <use x="63.623047" xlink:href="#DejaVuSans-35"/>
       <use x="127.246094" xlink:href="#DejaVuSans-30"/>
       <use x="190.869141" xlink:href="#DejaVuSans-30"/>
      </g>
     </g>
    </g>
    <g id="xtick_12">
     <g id="line2d_25">
      <g>
       <use style="stroke:#000000;stroke-width:0.8;" x="603.952546" xlink:href="#m6574111bdb" y="294.118125"/>
      </g>
     </g>
     <g id="text_23">
      <!-- 2000 -->
      <g transform="translate(591.227546 308.716563)scale(0.1 -0.1)">
       <use xlink:href="#DejaVuSans-32"/>
       <use x="63.623047" xlink:href="#DejaVuSans-30"/>
       <use x="127.246094" xlink:href="#DejaVuSans-30"/>
       <use x="190.869141" xlink:href="#DejaVuSans-30"/>
      </g>
     </g>
    </g>
    <g id="xtick_13">
     <g id="line2d_26">
      <g>
       <use style="stroke:#000000;stroke-width:0.8;" x="650.068249" xlink:href="#m6574111bdb" y="294.118125"/>
      </g>
     </g>
     <g id="text_24">
      <!-- 2500 -->
      <g transform="translate(637.343249 308.716563)scale(0.1 -0.1)">
       <use xlink:href="#DejaVuSans-32"/>
       <use x="63.623047" xlink:href="#DejaVuSans-35"/>
       <use x="127.246094" xlink:href="#DejaVuSans-30"/>
       <use x="190.869141" xlink:href="#DejaVuSans-30"/>
      </g>
     </g>
    </g>
    <g id="xtick_14">
     <g id="line2d_27">
      <g>
       <use style="stroke:#000000;stroke-width:0.8;" x="696.183951" xlink:href="#m6574111bdb" y="294.118125"/>
      </g>
     </g>
     <g id="text_25">
      <!-- 3000 -->
      <g transform="translate(683.458951 308.716563)scale(0.1 -0.1)">
       <use xlink:href="#DejaVuSans-33"/>
       <use x="63.623047" xlink:href="#DejaVuSans-30"/>
       <use x="127.246094" xlink:href="#DejaVuSans-30"/>
       <use x="190.869141" xlink:href="#DejaVuSans-30"/>
      </g>
     </g>
    </g>
    <g id="text_26">
     <!-- p -->
     <g transform="translate(554.847088 322.394687)scale(0.1 -0.1)">
      <use xlink:href="#DejaVuSans-70"/>
     </g>
    </g>
   </g>
   <g id="matplotlib.axis_4">
    <g id="ytick_6">
     <g id="line2d_28">
      <g>
       <use style="stroke:#000000;stroke-width:0.8;" x="405.839489" xlink:href="#m4319282c97" y="281.76358"/>
      </g>
     </g>
     <g id="text_27">
      <!-- 0 -->
      <g transform="translate(392.476989 285.562798)scale(0.1 -0.1)">
       <use xlink:href="#DejaVuSans-30"/>
      </g>
     </g>
    </g>
    <g id="ytick_7">
     <g id="line2d_29">
      <g>
       <use style="stroke:#000000;stroke-width:0.8;" x="405.839489" xlink:href="#m4319282c97" y="229.514202"/>
      </g>
     </g>
     <g id="text_28">
      <!-- 2 -->
      <g transform="translate(392.476989 233.313421)scale(0.1 -0.1)">
       <use xlink:href="#DejaVuSans-32"/>
      </g>
     </g>
    </g>
    <g id="ytick_8">
     <g id="line2d_30">
      <g>
       <use style="stroke:#000000;stroke-width:0.8;" x="405.839489" xlink:href="#m4319282c97" y="177.264825"/>
      </g>
     </g>
     <g id="text_29">
      <!-- 4 -->
      <g transform="translate(392.476989 181.064044)scale(0.1 -0.1)">
       <defs>
        <path d="M 2419 4116 
L 825 1625 
L 2419 1625 
L 2419 4116 
z
M 2253 4666 
L 3047 4666 
L 3047 1625 
L 3713 1625 
L 3713 1100 
L 3047 1100 
L 3047 0 
L 2419 0 
L 2419 1100 
L 313 1100 
L 313 1709 
L 2253 4666 
z
" id="DejaVuSans-34" transform="scale(0.015625)"/>
       </defs>
       <use xlink:href="#DejaVuSans-34"/>
      </g>
     </g>
    </g>
    <g id="ytick_9">
     <g id="line2d_31">
      <g>
       <use style="stroke:#000000;stroke-width:0.8;" x="405.839489" xlink:href="#m4319282c97" y="125.015448"/>
      </g>
     </g>
     <g id="text_30">
      <!-- 6 -->
      <g transform="translate(392.476989 128.814667)scale(0.1 -0.1)">
       <defs>
        <path d="M 2113 2584 
Q 1688 2584 1439 2293 
Q 1191 2003 1191 1497 
Q 1191 994 1439 701 
Q 1688 409 2113 409 
Q 2538 409 2786 701 
Q 3034 994 3034 1497 
Q 3034 2003 2786 2293 
Q 2538 2584 2113 2584 
z
M 3366 4563 
L 3366 3988 
Q 3128 4100 2886 4159 
Q 2644 4219 2406 4219 
Q 1781 4219 1451 3797 
Q 1122 3375 1075 2522 
Q 1259 2794 1537 2939 
Q 1816 3084 2150 3084 
Q 2853 3084 3261 2657 
Q 3669 2231 3669 1497 
Q 3669 778 3244 343 
Q 2819 -91 2113 -91 
Q 1303 -91 875 529 
Q 447 1150 447 2328 
Q 447 3434 972 4092 
Q 1497 4750 2381 4750 
Q 2619 4750 2861 4703 
Q 3103 4656 3366 4563 
z
" id="DejaVuSans-36" transform="scale(0.015625)"/>
       </defs>
       <use xlink:href="#DejaVuSans-36"/>
      </g>
     </g>
    </g>
    <g id="ytick_10">
     <g id="line2d_32">
      <g>
       <use style="stroke:#000000;stroke-width:0.8;" x="405.839489" xlink:href="#m4319282c97" y="72.766071"/>
      </g>
     </g>
     <g id="text_31">
      <!-- 8 -->
      <g transform="translate(392.476989 76.565289)scale(0.1 -0.1)">
       <defs>
        <path d="M 2034 2216 
Q 1584 2216 1326 1975 
Q 1069 1734 1069 1313 
Q 1069 891 1326 650 
Q 1584 409 2034 409 
Q 2484 409 2743 651 
Q 3003 894 3003 1313 
Q 3003 1734 2745 1975 
Q 2488 2216 2034 2216 
z
M 1403 2484 
Q 997 2584 770 2862 
Q 544 3141 544 3541 
Q 544 4100 942 4425 
Q 1341 4750 2034 4750 
Q 2731 4750 3128 4425 
Q 3525 4100 3525 3541 
Q 3525 3141 3298 2862 
Q 3072 2584 2669 2484 
Q 3125 2378 3379 2068 
Q 3634 1759 3634 1313 
Q 3634 634 3220 271 
Q 2806 -91 2034 -91 
Q 1263 -91 848 271 
Q 434 634 434 1313 
Q 434 1759 690 2068 
Q 947 2378 1403 2484 
z
M 1172 3481 
Q 1172 3119 1398 2916 
Q 1625 2713 2034 2713 
Q 2441 2713 2670 2916 
Q 2900 3119 2900 3481 
Q 2900 3844 2670 4047 
Q 2441 4250 2034 4250 
Q 1625 4250 1398 4047 
Q 1172 3844 1172 3481 
z
" id="DejaVuSans-38" transform="scale(0.015625)"/>
       </defs>
       <use xlink:href="#DejaVuSans-38"/>
      </g>
     </g>
    </g>
    <g id="text_32">
     <!-- Loss -->
     <g transform="translate(386.397301 169.185313)rotate(-90)scale(0.1 -0.1)">
      <defs>
       <path d="M 628 4666 
L 1259 4666 
L 1259 531 
L 3531 531 
L 3531 0 
L 628 0 
L 628 4666 
z
" id="DejaVuSans-4c" transform="scale(0.015625)"/>
      </defs>
      <use xlink:href="#DejaVuSans-4c"/>
      <use x="53.962891" xlink:href="#DejaVuSans-6f"/>
      <use x="115.144531" xlink:href="#DejaVuSans-73"/>
      <use x="167.244141" xlink:href="#DejaVuSans-73"/>
     </g>
    </g>
    <g id="text_33">
     <!-- 1e23 -->
     <g transform="translate(405.839489 19.318125)scale(0.1 -0.1)">
      <use xlink:href="#DejaVuSans-31"/>
      <use x="63.623047" xlink:href="#DejaVuSans-65"/>
      <use x="125.146484" xlink:href="#DejaVuSans-32"/>
      <use x="188.769531" xlink:href="#DejaVuSans-33"/>
     </g>
    </g>
   </g>
   <g id="line2d_33">
    <path clip-path="url(#pff0b3c5c6b)" d="M 419.674199 205.864897 
L 442.732051 186.629704 
L 465.789902 205.124461 
L 488.847753 245.869614 
L 511.905604 123.405485 
L 534.963456 191.48248 
L 558.021307 218.898392 
L 581.079158 149.213754 
L 604.137009 183.965282 
L 627.194861 165.308242 
L 650.252712 138.339299 
L 673.310563 91.864115 
L 696.368414 127.714276 
" style="fill:none;stroke:#38aaac;stroke-linecap:square;stroke-width:1.5;"/>
   </g>
   <g id="line2d_34">
    <path clip-path="url(#pff0b3c5c6b)" d="M 419.674199 281.76358 
L 442.732051 281.76358 
L 465.789902 281.76358 
L 488.847753 281.76358 
L 511.905604 281.76358 
L 534.963456 281.76358 
L 558.021307 281.76358 
L 581.079158 281.76358 
L 604.137009 281.76358 
L 627.194861 281.76358 
L 650.252712 281.76358 
L 673.310563 281.76358 
L 696.368414 281.76358 
" style="fill:none;stroke:#40498e;stroke-linecap:square;stroke-width:1.5;"/>
   </g>
   <g id="line2d_35"/>
   <g id="line2d_36"/>
   <g id="patch_9">
    <path d="M 405.839489 294.118125 
L 405.839489 22.318125 
" style="fill:none;stroke:#000000;stroke-linecap:square;stroke-linejoin:miter;stroke-width:0.8;"/>
   </g>
   <g id="patch_10">
    <path d="M 710.203125 294.118125 
L 710.203125 22.318125 
" style="fill:none;stroke:#000000;stroke-linecap:square;stroke-linejoin:miter;stroke-width:0.8;"/>
   </g>
   <g id="patch_11">
    <path d="M 405.839489 294.118125 
L 710.203125 294.118125 
" style="fill:none;stroke:#000000;stroke-linecap:square;stroke-linejoin:miter;stroke-width:0.8;"/>
   </g>
   <g id="patch_12">
    <path d="M 405.839489 22.318125 
L 710.203125 22.318125 
" style="fill:none;stroke:#000000;stroke-linecap:square;stroke-linejoin:miter;stroke-width:0.8;"/>
   </g>
   <g id="text_34">
    <!-- Loss versus dataset dimensions -->
    <g transform="translate(462.485369 16.318125)scale(0.12 -0.12)">
     <use xlink:href="#DejaVuSans-4c"/>
     <use x="53.962891" xlink:href="#DejaVuSans-6f"/>
     <use x="115.144531" xlink:href="#DejaVuSans-73"/>
     <use x="167.244141" xlink:href="#DejaVuSans-73"/>
     <use x="219.34375" xlink:href="#DejaVuSans-20"/>
     <use x="251.130859" xlink:href="#DejaVuSans-76"/>
     <use x="310.310547" xlink:href="#DejaVuSans-65"/>
     <use x="371.833984" xlink:href="#DejaVuSans-72"/>
     <use x="412.947266" xlink:href="#DejaVuSans-73"/>
     <use x="465.046875" xlink:href="#DejaVuSans-75"/>
     <use x="528.425781" xlink:href="#DejaVuSans-73"/>
     <use x="580.525391" xlink:href="#DejaVuSans-20"/>
     <use x="612.3125" xlink:href="#DejaVuSans-64"/>
     <use x="675.789062" xlink:href="#DejaVuSans-61"/>
     <use x="737.068359" xlink:href="#DejaVuSans-74"/>
     <use x="776.277344" xlink:href="#DejaVuSans-61"/>
     <use x="837.556641" xlink:href="#DejaVuSans-73"/>
     <use x="889.65625" xlink:href="#DejaVuSans-65"/>
     <use x="951.179688" xlink:href="#DejaVuSans-74"/>
     <use x="990.388672" xlink:href="#DejaVuSans-20"/>
     <use x="1022.175781" xlink:href="#DejaVuSans-64"/>
     <use x="1085.652344" xlink:href="#DejaVuSans-69"/>
     <use x="1113.435547" xlink:href="#DejaVuSans-6d"/>
     <use x="1210.847656" xlink:href="#DejaVuSans-65"/>
     <use x="1272.371094" xlink:href="#DejaVuSans-6e"/>
     <use x="1335.75" xlink:href="#DejaVuSans-73"/>
     <use x="1387.849609" xlink:href="#DejaVuSans-69"/>
     <use x="1415.632812" xlink:href="#DejaVuSans-6f"/>
     <use x="1476.814453" xlink:href="#DejaVuSans-6e"/>
     <use x="1540.193359" xlink:href="#DejaVuSans-73"/>
    </g>
   </g>
   <g id="legend_2">
    <g id="patch_13">
     <path d="M 631.003125 74.3525 
L 703.203125 74.3525 
Q 705.203125 74.3525 705.203125 72.3525 
L 705.203125 29.318125 
Q 705.203125 27.318125 703.203125 27.318125 
L 631.003125 27.318125 
Q 629.003125 27.318125 629.003125 29.318125 
L 629.003125 72.3525 
Q 629.003125 74.3525 631.003125 74.3525 
z
" style="fill:#ffffff;opacity:0.8;stroke:#cccccc;stroke-linejoin:miter;"/>
    </g>
    <g id="text_35">
     <!-- Solver -->
     <g transform="translate(651.389062 38.916562)scale(0.1 -0.1)">
      <use xlink:href="#DejaVuSans-53"/>
      <use x="63.476562" xlink:href="#DejaVuSans-6f"/>
      <use x="124.658203" xlink:href="#DejaVuSans-6c"/>
      <use x="152.441406" xlink:href="#DejaVuSans-76"/>
      <use x="211.621094" xlink:href="#DejaVuSans-65"/>
      <use x="273.144531" xlink:href="#DejaVuSans-72"/>
     </g>
    </g>
    <g id="line2d_37">
     <path d="M 633.003125 50.094688 
L 653.003125 50.094688 
" style="fill:none;stroke:#38aaac;stroke-linecap:square;stroke-width:1.5;"/>
    </g>
    <g id="line2d_38"/>
    <g id="text_36">
     <!-- SGD -->
     <g transform="translate(661.003125 53.594688)scale(0.1 -0.1)">
      <use xlink:href="#DejaVuSans-53"/>
      <use x="63.476562" xlink:href="#DejaVuSans-47"/>
      <use x="140.966797" xlink:href="#DejaVuSans-44"/>
     </g>
    </g>
    <g id="line2d_39">
     <path d="M 633.003125 64.772813 
L 653.003125 64.772813 
" style="fill:none;stroke:#40498e;stroke-linecap:square;stroke-width:1.5;"/>
    </g>
    <g id="line2d_40"/>
    <g id="text_37">
     <!-- Analytic -->
     <g transform="translate(661.003125 68.272813)scale(0.1 -0.1)">
      <use xlink:href="#DejaVuSans-41"/>
      <use x="68.408203" xlink:href="#DejaVuSans-6e"/>
      <use x="131.787109" xlink:href="#DejaVuSans-61"/>
      <use x="193.066406" xlink:href="#DejaVuSans-6c"/>
      <use x="220.849609" xlink:href="#DejaVuSans-79"/>
      <use x="280.029297" xlink:href="#DejaVuSans-74"/>
      <use x="319.238281" xlink:href="#DejaVuSans-69"/>
      <use x="347.021484" xlink:href="#DejaVuSans-63"/>
     </g>
    </g>
   </g>
  </g>
 </g>
 <defs>
  <clipPath id="p10876d47e7">
   <rect height="271.8" width="304.363636" x="40.603125" y="22.318125"/>
  </clipPath>
  <clipPath id="pff0b3c5c6b">
   <rect height="271.8" width="304.363636" x="405.839489" y="22.318125"/>
  </clipPath>
 </defs>
</svg>
