<?xml version="1.0" encoding="utf-8" standalone="no"?>
<!DOCTYPE svg PUBLIC "-//W3C//DTD SVG 1.1//EN"
  "http://www.w3.org/Graphics/SVG/1.1/DTD/svg11.dtd">
<svg height="288pt" version="1.1" viewBox="0 0 576 288" width="576pt" xmlns="http://www.w3.org/2000/svg" xmlns:xlink="http://www.w3.org/1999/xlink">
 <metadata>
  <rdf:RDF xmlns:cc="http://creativecommons.org/ns#" xmlns:dc="http://purl.org/dc/elements/1.1/" xmlns:rdf="http://www.w3.org/1999/02/22-rdf-syntax-ns#">
   <cc:Work>
    <dc:type rdf:resource="http://purl.org/dc/dcmitype/StillImage"/>
    <dc:date>2021-04-18T15:42:47.358137</dc:date>
    <dc:format>image/svg+xml</dc:format>
    <dc:creator>
     <cc:Agent>
      <dc:title>Matplotlib v3.4.1, https://matplotlib.org/</dc:title>
     </cc:Agent>
    </dc:creator>
   </cc:Work>
  </rdf:RDF>
 </metadata>
 <defs>
  <style type="text/css">*{stroke-linecap:butt;stroke-linejoin:round;}</style>
 </defs>
 <g id="figure_1">
  <g id="patch_1">
   <path d="M 0 288 
L 576 288 
L 576 0 
L 0 0 
z
" style="fill:none;"/>
  </g>
  <g id="axes_1">
   <g id="patch_2">
    <path d="M 69.55 246.2 
L 481.147 246.2 
L 481.147 28.8 
L 69.55 28.8 
z
" style="fill:#ffffff;"/>
   </g>
   <g id="matplotlib.axis_1">
    <g id="xtick_1">
     <g id="line2d_1">
      <defs>
       <path d="M 0 0 
L 0 3.5 
" id="ma611c44a21" style="stroke:#000000;stroke-width:0.8;"/>
      </defs>
      <g>
       <use style="stroke:#000000;stroke-width:0.8;" x="88.258955" xlink:href="#ma611c44a21" y="246.2"/>
      </g>
     </g>
     <g id="text_1">
      <!-- 10 -->
      <g transform="translate(81.896455 260.798437)scale(0.1 -0.1)">
       <defs>
        <path d="M 794 531 
L 1825 531 
L 1825 4091 
L 703 3866 
L 703 4441 
L 1819 4666 
L 2450 4666 
L 2450 531 
L 3481 531 
L 3481 0 
L 794 0 
L 794 531 
z
" id="DejaVuSans-31" transform="scale(0.015625)"/>
        <path d="M 2034 4250 
Q 1547 4250 1301 3770 
Q 1056 3291 1056 2328 
Q 1056 1369 1301 889 
Q 1547 409 2034 409 
Q 2525 409 2770 889 
Q 3016 1369 3016 2328 
Q 3016 3291 2770 3770 
Q 2525 4250 2034 4250 
z
M 2034 4750 
Q 2819 4750 3233 4129 
Q 3647 3509 3647 2328 
Q 3647 1150 3233 529 
Q 2819 -91 2034 -91 
Q 1250 -91 836 529 
Q 422 1150 422 2328 
Q 422 3509 836 4129 
Q 1250 4750 2034 4750 
z
" id="DejaVuSans-30" transform="scale(0.015625)"/>
       </defs>
       <use xlink:href="#DejaVuSans-31"/>
       <use x="63.623047" xlink:href="#DejaVuSans-30"/>
      </g>
     </g>
    </g>
    <g id="xtick_2">
     <g id="line2d_2">
      <g>
       <use style="stroke:#000000;stroke-width:0.8;" x="149.349418" xlink:href="#ma611c44a21" y="246.2"/>
      </g>
     </g>
     <g id="text_2">
      <!-- 50 -->
      <g transform="translate(142.986918 260.798437)scale(0.1 -0.1)">
       <defs>
        <path d="M 691 4666 
L 3169 4666 
L 3169 4134 
L 1269 4134 
L 1269 2991 
Q 1406 3038 1543 3061 
Q 1681 3084 1819 3084 
Q 2600 3084 3056 2656 
Q 3513 2228 3513 1497 
Q 3513 744 3044 326 
Q 2575 -91 1722 -91 
Q 1428 -91 1123 -41 
Q 819 9 494 109 
L 494 744 
Q 775 591 1075 516 
Q 1375 441 1709 441 
Q 2250 441 2565 725 
Q 2881 1009 2881 1497 
Q 2881 1984 2565 2268 
Q 2250 2553 1709 2553 
Q 1456 2553 1204 2497 
Q 953 2441 691 2322 
L 691 4666 
z
" id="DejaVuSans-35" transform="scale(0.015625)"/>
       </defs>
       <use xlink:href="#DejaVuSans-35"/>
       <use x="63.623047" xlink:href="#DejaVuSans-30"/>
      </g>
     </g>
    </g>
    <g id="xtick_3">
     <g id="line2d_3">
      <g>
       <use style="stroke:#000000;stroke-width:0.8;" x="225.712498" xlink:href="#ma611c44a21" y="246.2"/>
      </g>
     </g>
     <g id="text_3">
      <!-- 100 -->
      <g transform="translate(216.168748 260.798437)scale(0.1 -0.1)">
       <use xlink:href="#DejaVuSans-31"/>
       <use x="63.623047" xlink:href="#DejaVuSans-30"/>
       <use x="127.246094" xlink:href="#DejaVuSans-30"/>
      </g>
     </g>
    </g>
    <g id="xtick_4">
     <g id="line2d_4">
      <g>
       <use style="stroke:#000000;stroke-width:0.8;" x="302.075578" xlink:href="#ma611c44a21" y="246.2"/>
      </g>
     </g>
     <g id="text_4">
      <!-- 150 -->
      <g transform="translate(292.531828 260.798437)scale(0.1 -0.1)">
       <use xlink:href="#DejaVuSans-31"/>
       <use x="63.623047" xlink:href="#DejaVuSans-35"/>
       <use x="127.246094" xlink:href="#DejaVuSans-30"/>
      </g>
     </g>
    </g>
    <g id="xtick_5">
     <g id="line2d_5">
      <g>
       <use style="stroke:#000000;stroke-width:0.8;" x="378.438658" xlink:href="#ma611c44a21" y="246.2"/>
      </g>
     </g>
     <g id="text_5">
      <!-- 200 -->
      <g transform="translate(368.894908 260.798437)scale(0.1 -0.1)">
       <defs>
        <path d="M 1228 531 
L 3431 531 
L 3431 0 
L 469 0 
L 469 531 
Q 828 903 1448 1529 
Q 2069 2156 2228 2338 
Q 2531 2678 2651 2914 
Q 2772 3150 2772 3378 
Q 2772 3750 2511 3984 
Q 2250 4219 1831 4219 
Q 1534 4219 1204 4116 
Q 875 4013 500 3803 
L 500 4441 
Q 881 4594 1212 4672 
Q 1544 4750 1819 4750 
Q 2544 4750 2975 4387 
Q 3406 4025 3406 3419 
Q 3406 3131 3298 2873 
Q 3191 2616 2906 2266 
Q 2828 2175 2409 1742 
Q 1991 1309 1228 531 
z
" id="DejaVuSans-32" transform="scale(0.015625)"/>
       </defs>
       <use xlink:href="#DejaVuSans-32"/>
       <use x="63.623047" xlink:href="#DejaVuSans-30"/>
       <use x="127.246094" xlink:href="#DejaVuSans-30"/>
      </g>
     </g>
    </g>
    <g id="xtick_6">
     <g id="line2d_6">
      <g>
       <use style="stroke:#000000;stroke-width:0.8;" x="454.801737" xlink:href="#ma611c44a21" y="246.2"/>
      </g>
     </g>
     <g id="text_6">
      <!-- 250 -->
      <g transform="translate(445.257987 260.798437)scale(0.1 -0.1)">
       <use xlink:href="#DejaVuSans-32"/>
       <use x="63.623047" xlink:href="#DejaVuSans-35"/>
       <use x="127.246094" xlink:href="#DejaVuSans-30"/>
      </g>
     </g>
    </g>
    <g id="text_7">
     <!-- n -->
     <g transform="translate(272.17975 274.476562)scale(0.1 -0.1)">
      <defs>
       <path d="M 3513 2113 
L 3513 0 
L 2938 0 
L 2938 2094 
Q 2938 2591 2744 2837 
Q 2550 3084 2163 3084 
Q 1697 3084 1428 2787 
Q 1159 2491 1159 1978 
L 1159 0 
L 581 0 
L 581 3500 
L 1159 3500 
L 1159 2956 
Q 1366 3272 1645 3428 
Q 1925 3584 2291 3584 
Q 2894 3584 3203 3211 
Q 3513 2838 3513 2113 
z
" id="DejaVuSans-6e" transform="scale(0.015625)"/>
      </defs>
      <use xlink:href="#DejaVuSans-6e"/>
     </g>
    </g>
   </g>
   <g id="matplotlib.axis_2">
    <g id="ytick_1">
     <g id="line2d_7">
      <defs>
       <path d="M 0 0 
L -3.5 0 
" id="mf76221ee8c" style="stroke:#000000;stroke-width:0.8;"/>
      </defs>
      <g>
       <use style="stroke:#000000;stroke-width:0.8;" x="69.55" xlink:href="#mf76221ee8c" y="229.888883"/>
      </g>
     </g>
     <g id="text_8">
      <!-- 120000 -->
      <g transform="translate(24.375 233.688102)scale(0.1 -0.1)">
       <use xlink:href="#DejaVuSans-31"/>
       <use x="63.623047" xlink:href="#DejaVuSans-32"/>
       <use x="127.246094" xlink:href="#DejaVuSans-30"/>
       <use x="190.869141" xlink:href="#DejaVuSans-30"/>
       <use x="254.492188" xlink:href="#DejaVuSans-30"/>
       <use x="318.115234" xlink:href="#DejaVuSans-30"/>
      </g>
     </g>
    </g>
    <g id="ytick_2">
     <g id="line2d_8">
      <g>
       <use style="stroke:#000000;stroke-width:0.8;" x="69.55" xlink:href="#mf76221ee8c" y="201.207556"/>
      </g>
     </g>
     <g id="text_9">
      <!-- 140000 -->
      <g transform="translate(24.375 205.006775)scale(0.1 -0.1)">
       <defs>
        <path d="M 2419 4116 
L 825 1625 
L 2419 1625 
L 2419 4116 
z
M 2253 4666 
L 3047 4666 
L 3047 1625 
L 3713 1625 
L 3713 1100 
L 3047 1100 
L 3047 0 
L 2419 0 
L 2419 1100 
L 313 1100 
L 313 1709 
L 2253 4666 
z
" id="DejaVuSans-34" transform="scale(0.015625)"/>
       </defs>
       <use xlink:href="#DejaVuSans-31"/>
       <use x="63.623047" xlink:href="#DejaVuSans-34"/>
       <use x="127.246094" xlink:href="#DejaVuSans-30"/>
       <use x="190.869141" xlink:href="#DejaVuSans-30"/>
       <use x="254.492188" xlink:href="#DejaVuSans-30"/>
       <use x="318.115234" xlink:href="#DejaVuSans-30"/>
      </g>
     </g>
    </g>
    <g id="ytick_3">
     <g id="line2d_9">
      <g>
       <use style="stroke:#000000;stroke-width:0.8;" x="69.55" xlink:href="#mf76221ee8c" y="172.526229"/>
      </g>
     </g>
     <g id="text_10">
      <!-- 160000 -->
      <g transform="translate(24.375 176.325448)scale(0.1 -0.1)">
       <defs>
        <path d="M 2113 2584 
Q 1688 2584 1439 2293 
Q 1191 2003 1191 1497 
Q 1191 994 1439 701 
Q 1688 409 2113 409 
Q 2538 409 2786 701 
Q 3034 994 3034 1497 
Q 3034 2003 2786 2293 
Q 2538 2584 2113 2584 
z
M 3366 4563 
L 3366 3988 
Q 3128 4100 2886 4159 
Q 2644 4219 2406 4219 
Q 1781 4219 1451 3797 
Q 1122 3375 1075 2522 
Q 1259 2794 1537 2939 
Q 1816 3084 2150 3084 
Q 2853 3084 3261 2657 
Q 3669 2231 3669 1497 
Q 3669 778 3244 343 
Q 2819 -91 2113 -91 
Q 1303 -91 875 529 
Q 447 1150 447 2328 
Q 447 3434 972 4092 
Q 1497 4750 2381 4750 
Q 2619 4750 2861 4703 
Q 3103 4656 3366 4563 
z
" id="DejaVuSans-36" transform="scale(0.015625)"/>
       </defs>
       <use xlink:href="#DejaVuSans-31"/>
       <use x="63.623047" xlink:href="#DejaVuSans-36"/>
       <use x="127.246094" xlink:href="#DejaVuSans-30"/>
       <use x="190.869141" xlink:href="#DejaVuSans-30"/>
       <use x="254.492188" xlink:href="#DejaVuSans-30"/>
       <use x="318.115234" xlink:href="#DejaVuSans-30"/>
      </g>
     </g>
    </g>
    <g id="ytick_4">
     <g id="line2d_10">
      <g>
       <use style="stroke:#000000;stroke-width:0.8;" x="69.55" xlink:href="#mf76221ee8c" y="143.844902"/>
      </g>
     </g>
     <g id="text_11">
      <!-- 180000 -->
      <g transform="translate(24.375 147.644121)scale(0.1 -0.1)">
       <defs>
        <path d="M 2034 2216 
Q 1584 2216 1326 1975 
Q 1069 1734 1069 1313 
Q 1069 891 1326 650 
Q 1584 409 2034 409 
Q 2484 409 2743 651 
Q 3003 894 3003 1313 
Q 3003 1734 2745 1975 
Q 2488 2216 2034 2216 
z
M 1403 2484 
Q 997 2584 770 2862 
Q 544 3141 544 3541 
Q 544 4100 942 4425 
Q 1341 4750 2034 4750 
Q 2731 4750 3128 4425 
Q 3525 4100 3525 3541 
Q 3525 3141 3298 2862 
Q 3072 2584 2669 2484 
Q 3125 2378 3379 2068 
Q 3634 1759 3634 1313 
Q 3634 634 3220 271 
Q 2806 -91 2034 -91 
Q 1263 -91 848 271 
Q 434 634 434 1313 
Q 434 1759 690 2068 
Q 947 2378 1403 2484 
z
M 1172 3481 
Q 1172 3119 1398 2916 
Q 1625 2713 2034 2713 
Q 2441 2713 2670 2916 
Q 2900 3119 2900 3481 
Q 2900 3844 2670 4047 
Q 2441 4250 2034 4250 
Q 1625 4250 1398 4047 
Q 1172 3844 1172 3481 
z
" id="DejaVuSans-38" transform="scale(0.015625)"/>
       </defs>
       <use xlink:href="#DejaVuSans-31"/>
       <use x="63.623047" xlink:href="#DejaVuSans-38"/>
       <use x="127.246094" xlink:href="#DejaVuSans-30"/>
       <use x="190.869141" xlink:href="#DejaVuSans-30"/>
       <use x="254.492188" xlink:href="#DejaVuSans-30"/>
       <use x="318.115234" xlink:href="#DejaVuSans-30"/>
      </g>
     </g>
    </g>
    <g id="ytick_5">
     <g id="line2d_11">
      <g>
       <use style="stroke:#000000;stroke-width:0.8;" x="69.55" xlink:href="#mf76221ee8c" y="115.163575"/>
      </g>
     </g>
     <g id="text_12">
      <!-- 200000 -->
      <g transform="translate(24.375 118.962794)scale(0.1 -0.1)">
       <use xlink:href="#DejaVuSans-32"/>
       <use x="63.623047" xlink:href="#DejaVuSans-30"/>
       <use x="127.246094" xlink:href="#DejaVuSans-30"/>
       <use x="190.869141" xlink:href="#DejaVuSans-30"/>
       <use x="254.492188" xlink:href="#DejaVuSans-30"/>
       <use x="318.115234" xlink:href="#DejaVuSans-30"/>
      </g>
     </g>
    </g>
    <g id="ytick_6">
     <g id="line2d_12">
      <g>
       <use style="stroke:#000000;stroke-width:0.8;" x="69.55" xlink:href="#mf76221ee8c" y="86.482248"/>
      </g>
     </g>
     <g id="text_13">
      <!-- 220000 -->
      <g transform="translate(24.375 90.281467)scale(0.1 -0.1)">
       <use xlink:href="#DejaVuSans-32"/>
       <use x="63.623047" xlink:href="#DejaVuSans-32"/>
       <use x="127.246094" xlink:href="#DejaVuSans-30"/>
       <use x="190.869141" xlink:href="#DejaVuSans-30"/>
       <use x="254.492188" xlink:href="#DejaVuSans-30"/>
       <use x="318.115234" xlink:href="#DejaVuSans-30"/>
      </g>
     </g>
    </g>
    <g id="ytick_7">
     <g id="line2d_13">
      <g>
       <use style="stroke:#000000;stroke-width:0.8;" x="69.55" xlink:href="#mf76221ee8c" y="57.800921"/>
      </g>
     </g>
     <g id="text_14">
      <!-- 240000 -->
      <g transform="translate(24.375 61.60014)scale(0.1 -0.1)">
       <use xlink:href="#DejaVuSans-32"/>
       <use x="63.623047" xlink:href="#DejaVuSans-34"/>
       <use x="127.246094" xlink:href="#DejaVuSans-30"/>
       <use x="190.869141" xlink:href="#DejaVuSans-30"/>
       <use x="254.492188" xlink:href="#DejaVuSans-30"/>
       <use x="318.115234" xlink:href="#DejaVuSans-30"/>
      </g>
     </g>
    </g>
    <g id="ytick_8">
     <g id="line2d_14">
      <g>
       <use style="stroke:#000000;stroke-width:0.8;" x="69.55" xlink:href="#mf76221ee8c" y="29.119594"/>
      </g>
     </g>
     <g id="text_15">
      <!-- 260000 -->
      <g transform="translate(24.375 32.918813)scale(0.1 -0.1)">
       <use xlink:href="#DejaVuSans-32"/>
       <use x="63.623047" xlink:href="#DejaVuSans-36"/>
       <use x="127.246094" xlink:href="#DejaVuSans-30"/>
       <use x="190.869141" xlink:href="#DejaVuSans-30"/>
       <use x="254.492188" xlink:href="#DejaVuSans-30"/>
       <use x="318.115234" xlink:href="#DejaVuSans-30"/>
      </g>
     </g>
    </g>
    <g id="text_16">
     <!-- MSE loss -->
     <g transform="translate(18.295313 159.394531)rotate(-90)scale(0.1 -0.1)">
      <defs>
       <path d="M 628 4666 
L 1569 4666 
L 2759 1491 
L 3956 4666 
L 4897 4666 
L 4897 0 
L 4281 0 
L 4281 4097 
L 3078 897 
L 2444 897 
L 1241 4097 
L 1241 0 
L 628 0 
L 628 4666 
z
" id="DejaVuSans-4d" transform="scale(0.015625)"/>
       <path d="M 3425 4513 
L 3425 3897 
Q 3066 4069 2747 4153 
Q 2428 4238 2131 4238 
Q 1616 4238 1336 4038 
Q 1056 3838 1056 3469 
Q 1056 3159 1242 3001 
Q 1428 2844 1947 2747 
L 2328 2669 
Q 3034 2534 3370 2195 
Q 3706 1856 3706 1288 
Q 3706 609 3251 259 
Q 2797 -91 1919 -91 
Q 1588 -91 1214 -16 
Q 841 59 441 206 
L 441 856 
Q 825 641 1194 531 
Q 1563 422 1919 422 
Q 2459 422 2753 634 
Q 3047 847 3047 1241 
Q 3047 1584 2836 1778 
Q 2625 1972 2144 2069 
L 1759 2144 
Q 1053 2284 737 2584 
Q 422 2884 422 3419 
Q 422 4038 858 4394 
Q 1294 4750 2059 4750 
Q 2388 4750 2728 4690 
Q 3069 4631 3425 4513 
z
" id="DejaVuSans-53" transform="scale(0.015625)"/>
       <path d="M 628 4666 
L 3578 4666 
L 3578 4134 
L 1259 4134 
L 1259 2753 
L 3481 2753 
L 3481 2222 
L 1259 2222 
L 1259 531 
L 3634 531 
L 3634 0 
L 628 0 
L 628 4666 
z
" id="DejaVuSans-45" transform="scale(0.015625)"/>
       <path id="DejaVuSans-20" transform="scale(0.015625)"/>
       <path d="M 603 4863 
L 1178 4863 
L 1178 0 
L 603 0 
L 603 4863 
z
" id="DejaVuSans-6c" transform="scale(0.015625)"/>
       <path d="M 1959 3097 
Q 1497 3097 1228 2736 
Q 959 2375 959 1747 
Q 959 1119 1226 758 
Q 1494 397 1959 397 
Q 2419 397 2687 759 
Q 2956 1122 2956 1747 
Q 2956 2369 2687 2733 
Q 2419 3097 1959 3097 
z
M 1959 3584 
Q 2709 3584 3137 3096 
Q 3566 2609 3566 1747 
Q 3566 888 3137 398 
Q 2709 -91 1959 -91 
Q 1206 -91 779 398 
Q 353 888 353 1747 
Q 353 2609 779 3096 
Q 1206 3584 1959 3584 
z
" id="DejaVuSans-6f" transform="scale(0.015625)"/>
       <path d="M 2834 3397 
L 2834 2853 
Q 2591 2978 2328 3040 
Q 2066 3103 1784 3103 
Q 1356 3103 1142 2972 
Q 928 2841 928 2578 
Q 928 2378 1081 2264 
Q 1234 2150 1697 2047 
L 1894 2003 
Q 2506 1872 2764 1633 
Q 3022 1394 3022 966 
Q 3022 478 2636 193 
Q 2250 -91 1575 -91 
Q 1294 -91 989 -36 
Q 684 19 347 128 
L 347 722 
Q 666 556 975 473 
Q 1284 391 1588 391 
Q 1994 391 2212 530 
Q 2431 669 2431 922 
Q 2431 1156 2273 1281 
Q 2116 1406 1581 1522 
L 1381 1569 
Q 847 1681 609 1914 
Q 372 2147 372 2553 
Q 372 3047 722 3315 
Q 1072 3584 1716 3584 
Q 2034 3584 2315 3537 
Q 2597 3491 2834 3397 
z
" id="DejaVuSans-73" transform="scale(0.015625)"/>
      </defs>
      <use xlink:href="#DejaVuSans-4d"/>
      <use x="86.279297" xlink:href="#DejaVuSans-53"/>
      <use x="149.755859" xlink:href="#DejaVuSans-45"/>
      <use x="212.939453" xlink:href="#DejaVuSans-20"/>
      <use x="244.726562" xlink:href="#DejaVuSans-6c"/>
      <use x="272.509766" xlink:href="#DejaVuSans-6f"/>
      <use x="333.691406" xlink:href="#DejaVuSans-73"/>
      <use x="385.791016" xlink:href="#DejaVuSans-73"/>
     </g>
    </g>
   </g>
   <g id="line2d_15">
    <path clip-path="url(#pd429a7b306)" d="M 88.258955 236.318182 
L 89.786216 186.680203 
L 91.313478 190.607119 
L 92.840739 192.431674 
L 94.368001 159.580159 
L 95.895263 170.995181 
L 97.422524 183.842762 
L 98.949786 158.386393 
L 102.004309 166.802691 
L 103.531571 177.170102 
L 105.058832 179.056784 
L 106.586094 187.991622 
L 108.113355 192.146045 
L 109.640617 181.369676 
L 111.167878 178.818539 
L 112.69514 186.047175 
L 115.749663 201.264569 
L 117.276925 206.715199 
L 120.331448 213.943508 
L 121.85871 216.629773 
L 123.385971 221.596483 
L 124.913233 222.401155 
L 126.440494 226.458993 
L 127.967756 228.689245 
L 129.495018 229.697886 
L 131.022279 214.695042 
L 132.549541 217.746954 
L 134.076802 183.706264 
L 137.131326 188.919536 
L 138.658587 192.160835 
L 140.185849 192.853684 
L 141.71311 189.306107 
L 143.240372 193.284621 
L 144.767634 196.947187 
L 146.294895 174.185658 
L 147.822157 177.470888 
L 149.349418 179.220766 
L 150.87668 183.111657 
L 152.403942 187.310718 
L 153.931203 189.079059 
L 155.458465 191.448964 
L 156.985726 186.184607 
L 158.512988 189.539362 
L 160.04025 162.176414 
L 161.567511 160.183722 
L 163.094773 162.949191 
L 164.622034 166.932595 
L 166.149296 169.651737 
L 167.676558 161.452238 
L 169.203819 164.050252 
L 170.731081 155.368736 
L 172.258342 153.794551 
L 173.785604 157.032156 
L 175.312865 147.925213 
L 176.840127 150.546038 
L 178.367389 141.671841 
L 181.421912 148.815947 
L 182.949173 151.327652 
L 184.476435 154.514564 
L 186.003697 157.241886 
L 187.530958 147.810621 
L 189.05822 149.334307 
L 190.585481 151.758811 
L 192.112743 154.547612 
L 193.640005 156.962087 
L 195.167266 159.909741 
L 198.221789 156.003523 
L 199.749051 158.425898 
L 201.276313 157.938859 
L 207.385359 168.45136 
L 208.912621 170.399381 
L 211.967144 175.321606 
L 213.494405 177.759172 
L 215.021667 179.949585 
L 216.548929 179.148948 
L 218.07619 179.172576 
L 219.603452 178.516606 
L 221.130713 180.08206 
L 222.657975 181.468671 
L 224.185237 177.668948 
L 225.712498 179.898058 
L 227.23976 181.367255 
L 228.767021 183.520368 
L 230.294283 183.728056 
L 231.821545 183.401669 
L 233.348806 184.262892 
L 234.876068 185.296593 
L 236.403329 187.317984 
L 237.930591 186.819262 
L 239.457853 184.724825 
L 240.985114 186.277521 
L 242.512376 186.174151 
L 244.039637 180.613508 
L 245.566899 181.997796 
L 248.621422 185.773697 
L 250.148684 186.115126 
L 251.675945 186.084265 
L 253.203207 178.534244 
L 254.730468 174.754479 
L 256.25773 176.298596 
L 257.784992 174.468018 
L 259.312253 176.069616 
L 260.839515 177.905344 
L 262.366776 178.776002 
L 263.894038 171.300087 
L 265.4213 171.253826 
L 266.948561 163.97363 
L 268.475823 164.471527 
L 270.003084 164.755279 
L 271.530346 165.719074 
L 273.057608 166.039741 
L 274.584869 160.364179 
L 276.112131 161.740661 
L 279.166654 165.134556 
L 280.693916 165.968829 
L 282.221177 167.096785 
L 283.748439 167.207147 
L 285.2757 165.97267 
L 289.857485 170.604121 
L 291.384747 170.774272 
L 292.912008 172.356306 
L 294.43927 168.709073 
L 295.966532 169.355763 
L 297.493793 169.793107 
L 299.021055 169.676176 
L 300.548316 168.905105 
L 302.075578 163.438366 
L 303.60284 163.379344 
L 305.130101 164.466247 
L 306.657363 165.997201 
L 308.184624 166.626136 
L 309.711886 164.971336 
L 311.239147 155.195225 
L 312.766409 156.535393 
L 315.820932 159.525416 
L 317.348194 160.919932 
L 318.875455 161.762303 
L 320.402717 163.014295 
L 321.929979 163.728908 
L 323.45724 162.267287 
L 324.984502 161.937351 
L 328.039025 164.741701 
L 329.566287 166.002283 
L 331.093548 165.296267 
L 334.148071 168.053229 
L 335.675333 168.925576 
L 337.202595 167.33432 
L 338.729856 164.896105 
L 343.311641 168.506273 
L 344.838903 168.718443 
L 346.366164 169.70554 
L 347.893426 167.725161 
L 349.420687 168.142698 
L 350.947949 169.41736 
L 352.475211 169.236589 
L 354.002472 169.995115 
L 355.529734 170.525737 
L 357.056995 171.630813 
L 358.584257 172.223147 
L 360.111519 173.341673 
L 361.63878 165.517929 
L 363.166042 165.750689 
L 366.220565 168.062428 
L 367.747827 168.844981 
L 369.275088 169.895642 
L 370.80235 169.608624 
L 372.329611 168.403796 
L 373.856873 168.573004 
L 375.384135 168.916637 
L 376.911396 167.597724 
L 378.438658 168.514667 
L 379.965919 168.279869 
L 381.493181 167.566189 
L 384.547704 169.862542 
L 387.602227 171.736608 
L 389.129489 170.785182 
L 390.65675 171.055908 
L 395.238535 174.294187 
L 396.765797 174.163713 
L 398.293058 174.924514 
L 399.82032 175.37113 
L 401.347582 172.05315 
L 402.874843 171.326372 
L 404.402105 167.793901 
L 405.929366 167.691054 
L 407.456628 166.533748 
L 408.98389 167.599409 
L 410.511151 167.630421 
L 413.565674 168.670939 
L 415.092936 167.62868 
L 416.620198 168.189431 
L 418.147459 169.129011 
L 421.201982 170.45391 
L 422.729244 171.326263 
L 425.783767 172.27529 
L 430.365552 175.130234 
L 431.892814 174.340313 
L 433.420075 174.746855 
L 438.00186 177.586428 
L 439.529122 177.513139 
L 441.056383 177.716347 
L 442.583645 174.169646 
L 445.638168 175.922224 
L 447.165429 175.496631 
L 453.274476 178.968897 
L 454.801737 177.784572 
L 456.328999 173.953099 
L 457.856261 172.929021 
L 459.383522 173.390876 
L 460.910784 170.640399 
L 462.438045 171.513927 
L 462.438045 171.513927 
" style="fill:none;stroke:#edd1cb;stroke-linecap:square;stroke-width:1.5;"/>
   </g>
   <g id="line2d_16">
    <path clip-path="url(#pd429a7b306)" d="M 88.258955 165.718798 
L 89.786216 150.734406 
L 91.313478 171.578034 
L 92.840739 164.683377 
L 94.368001 206.392886 
L 95.895263 202.492107 
L 97.422524 204.295928 
L 98.949786 180.267313 
L 100.477047 180.700847 
L 102.004309 188.329247 
L 103.531571 189.992856 
L 105.058832 200.090649 
L 106.586094 197.335785 
L 108.113355 195.120939 
L 109.640617 176.215441 
L 111.167878 183.554217 
L 112.69514 185.25862 
L 114.222402 184.315777 
L 115.749663 184.242067 
L 117.276925 187.349673 
L 118.804186 188.820194 
L 120.331448 182.944973 
L 121.85871 184.681064 
L 123.385971 185.035581 
L 124.913233 182.500142 
L 126.440494 181.203894 
L 127.967756 180.877113 
L 129.495018 193.638397 
L 131.022279 193.875334 
L 132.549541 193.93983 
L 134.076802 193.468955 
L 135.604064 191.857986 
L 137.131326 188.739171 
L 138.658587 189.218772 
L 140.185849 189.923124 
L 141.71311 189.972451 
L 144.767634 188.510689 
L 146.294895 188.582143 
L 147.822157 185.403086 
L 149.349418 189.957222 
L 150.87668 189.360408 
L 152.403942 189.284586 
L 153.931203 191.571006 
L 155.458465 193.116287 
L 156.985726 187.955107 
L 158.512988 188.700164 
L 160.04025 179.257931 
L 161.567511 183.562631 
L 163.094773 183.34759 
L 164.622034 183.364757 
L 166.149296 183.699352 
L 167.676558 190.603556 
L 169.203819 189.981064 
L 170.731081 190.250164 
L 172.258342 188.264948 
L 173.785604 188.618315 
L 175.312865 193.098594 
L 176.840127 193.513398 
L 178.367389 198.420157 
L 179.89465 198.392743 
L 182.949173 198.642695 
L 184.476435 198.218222 
L 186.003697 198.410036 
L 187.530958 206.580526 
L 189.05822 204.525478 
L 193.640005 204.501579 
L 195.167266 203.856862 
L 196.694528 205.461146 
L 198.221789 208.132558 
L 199.749051 208.784676 
L 201.276313 210.506187 
L 204.330836 210.519364 
L 205.858097 211.119366 
L 207.385359 211.382881 
L 208.912621 211.943512 
L 213.494405 211.860112 
L 215.021667 211.813814 
L 218.07619 207.91149 
L 219.603452 209.530635 
L 222.657975 207.923947 
L 224.185237 209.892299 
L 225.712498 209.907385 
L 227.23976 209.212213 
L 228.767021 209.240335 
L 230.294283 208.674147 
L 231.821545 209.924457 
L 233.348806 209.173768 
L 234.876068 209.86169 
L 236.403329 209.873475 
L 242.512376 212.476714 
L 244.039637 212.91057 
L 245.566899 213.517132 
L 247.09416 213.422335 
L 248.621422 213.441712 
L 250.148684 212.889952 
L 251.675945 213.728916 
L 253.203207 211.810882 
L 254.730468 213.138611 
L 256.25773 212.817308 
L 257.784992 214.289281 
L 260.839515 214.25616 
L 262.366776 213.364016 
L 263.894038 214.177966 
L 265.4213 214.493445 
L 266.948561 215.414986 
L 268.475823 215.668932 
L 270.003084 215.246049 
L 273.057608 216.254877 
L 274.584869 217.108497 
L 276.112131 217.514745 
L 279.166654 217.583532 
L 282.221177 218.084074 
L 283.748439 218.224691 
L 285.2757 218.717877 
L 286.802962 218.792473 
L 288.330224 218.6366 
L 289.857485 218.715555 
L 292.912008 218.573751 
L 294.43927 217.085202 
L 295.966532 216.186692 
L 300.548316 217.287601 
L 302.075578 217.848412 
L 303.60284 218.013862 
L 306.657363 217.931929 
L 308.184624 217.784782 
L 309.711886 217.415434 
L 311.239147 218.056149 
L 312.766409 217.784368 
L 315.820932 217.721786 
L 317.348194 217.594283 
L 318.875455 217.221182 
L 320.402717 217.018588 
L 321.929979 216.611455 
L 323.45724 216.621515 
L 324.984502 217.116304 
L 329.566287 217.226637 
L 331.093548 217.707367 
L 334.148071 217.726081 
L 335.675333 217.948141 
L 338.729856 218.908354 
L 343.311641 218.881392 
L 344.838903 219.105957 
L 346.366164 218.865979 
L 350.947949 218.901197 
L 352.475211 218.630416 
L 354.002472 218.906653 
L 360.111519 219.488501 
L 361.63878 220.400615 
L 363.166042 220.691351 
L 364.693303 220.628726 
L 367.747827 220.650789 
L 369.275088 220.666173 
L 370.80235 220.529838 
L 372.329611 220.553645 
L 373.856873 220.357404 
L 375.384135 220.518773 
L 378.438658 220.560951 
L 379.965919 220.955957 
L 387.602227 220.968181 
L 389.129489 220.756525 
L 390.65675 220.964151 
L 399.82032 220.971207 
L 401.347582 221.482913 
L 402.874843 221.589867 
L 404.402105 220.96427 
L 405.929366 220.921732 
L 408.98389 221.00186 
L 410.511151 220.769832 
L 412.038413 220.890682 
L 413.565674 220.83735 
L 415.092936 220.597338 
L 422.729244 220.511763 
L 424.256506 220.748708 
L 425.783767 220.56173 
L 430.365552 220.564123 
L 433.420075 220.297681 
L 439.529122 220.347343 
L 441.056383 219.991456 
L 442.583645 219.849295 
L 453.274476 219.807558 
L 454.801737 220.109703 
L 456.328999 220.13657 
L 457.856261 219.937515 
L 459.383522 219.959243 
L 460.910784 220.713188 
L 462.438045 220.758391 
L 462.438045 220.758391 
" style="fill:none;stroke:#edd1cb;stroke-dasharray:6,2.25;stroke-dashoffset:0;stroke-width:1.5;"/>
   </g>
   <g id="line2d_17">
    <path clip-path="url(#pd429a7b306)" d="M 88.258955 214.213994 
L 89.786216 168.575157 
L 91.313478 151.329042 
L 92.840739 118.963429 
L 94.368001 93.465371 
L 97.422524 129.660941 
L 98.949786 70.961908 
L 100.477047 60.830957 
L 102.004309 56.79588 
L 103.531571 60.191294 
L 105.058832 72.891831 
L 106.586094 81.421164 
L 108.113355 83.158292 
L 109.640617 46.468744 
L 111.167878 52.240174 
L 112.69514 65.568333 
L 117.276925 97.637114 
L 118.804186 105.082642 
L 120.331448 94.091582 
L 121.85871 100.686504 
L 123.385971 109.732068 
L 124.913233 109.26279 
L 126.440494 112.162391 
L 127.967756 112.410807 
L 129.495018 112.867356 
L 131.022279 104.284374 
L 132.549541 111.168624 
L 134.076802 87.030437 
L 135.604064 82.823966 
L 137.131326 88.462292 
L 138.658587 95.730658 
L 140.185849 96.89983 
L 141.71311 97.129326 
L 143.240372 101.708307 
L 144.767634 99.313332 
L 146.294895 87.787439 
L 147.822157 80.920569 
L 149.349418 84.964618 
L 150.87668 87.754218 
L 152.403942 92.563742 
L 153.931203 98.213947 
L 155.458465 102.287606 
L 156.985726 93.632426 
L 158.512988 98.797537 
L 160.04025 78.175878 
L 161.567511 72.430144 
L 163.094773 76.01409 
L 166.149296 86.215548 
L 167.676558 84.337863 
L 169.203819 83.266489 
L 170.731081 68.352432 
L 172.258342 66.67335 
L 173.785604 71.591628 
L 175.312865 71.302699 
L 176.840127 76.161351 
L 178.367389 66.481408 
L 182.949173 80.371801 
L 184.476435 81.59221 
L 186.003697 85.419631 
L 187.530958 84.942849 
L 189.05822 82.030724 
L 192.112743 90.184597 
L 193.640005 91.128245 
L 195.167266 92.693058 
L 196.694528 85.223537 
L 198.221789 86.020509 
L 199.749051 89.020589 
L 201.276313 92.55279 
L 204.330836 98.02341 
L 205.858097 101.263933 
L 207.385359 104.12751 
L 210.439882 110.639877 
L 213.494405 115.210409 
L 218.07619 124.047788 
L 219.603452 121.187448 
L 221.130713 123.502893 
L 222.657975 125.32048 
L 224.185237 120.352157 
L 225.712498 123.156368 
L 228.767021 127.646371 
L 231.821545 130.017723 
L 233.348806 129.806181 
L 234.876068 128.908582 
L 236.403329 129.140017 
L 237.930591 130.575806 
L 240.985114 134.412139 
L 242.512376 133.340414 
L 244.039637 128.235501 
L 247.09416 132.585471 
L 248.621422 134.861361 
L 250.148684 135.18475 
L 251.675945 134.822116 
L 254.730468 121.166612 
L 256.25773 123.488637 
L 257.784992 122.172686 
L 259.312253 123.131327 
L 260.839515 124.935638 
L 262.366776 127.146254 
L 263.894038 121.822875 
L 265.4213 121.221027 
L 266.948561 115.005947 
L 268.475823 115.413096 
L 270.003084 117.046408 
L 271.530346 118.347303 
L 273.057608 120.054517 
L 274.584869 112.05147 
L 276.112131 111.424798 
L 277.639392 113.598452 
L 279.166654 115.562843 
L 280.693916 115.767721 
L 282.221177 117.129258 
L 285.2757 117.147291 
L 286.802962 118.959758 
L 288.330224 120.08073 
L 289.857485 121.673402 
L 291.384747 121.175454 
L 292.912008 123.093825 
L 294.43927 121.970493 
L 295.966532 123.914784 
L 297.493793 124.35425 
L 299.021055 123.609703 
L 300.548316 123.494525 
L 302.075578 117.052503 
L 303.60284 116.571589 
L 305.130101 117.441681 
L 308.184624 120.980122 
L 309.711886 119.381467 
L 311.239147 107.753812 
L 314.293671 110.999004 
L 315.820932 112.826567 
L 320.402717 117.369058 
L 321.929979 118.262592 
L 323.45724 116.0897 
L 324.984502 115.330995 
L 328.039025 118.678998 
L 329.566287 119.05935 
L 331.093548 117.656617 
L 332.62081 119.329201 
L 334.148071 120.082951 
L 335.675333 121.746071 
L 337.202595 118.656356 
L 338.729856 116.431765 
L 340.257118 118.054315 
L 341.784379 119.237825 
L 343.311641 120.766457 
L 344.838903 121.735808 
L 346.366164 123.270169 
L 347.893426 121.899729 
L 349.420687 121.559996 
L 350.947949 123.100478 
L 352.475211 123.401448 
L 354.002472 124.800513 
L 355.529734 125.712589 
L 357.056995 126.452885 
L 360.111519 128.798804 
L 361.63878 117.650036 
L 363.166042 118.009834 
L 366.220565 120.964023 
L 367.747827 122.056082 
L 369.275088 123.502684 
L 370.80235 122.325517 
L 372.329611 122.352612 
L 373.856873 122.694134 
L 375.384135 122.393782 
L 376.911396 120.476812 
L 378.438658 121.499289 
L 379.965919 122.095129 
L 381.493181 120.79001 
L 383.020442 121.367062 
L 384.547704 122.740643 
L 387.602227 124.044739 
L 389.129489 121.951633 
L 390.65675 123.04225 
L 395.238535 126.923225 
L 396.765797 126.492156 
L 398.293058 127.671763 
L 399.82032 126.741517 
L 401.347582 123.867907 
L 402.874843 123.576215 
L 404.402105 119.432819 
L 405.929366 119.67041 
L 407.456628 116.484834 
L 408.98389 117.632815 
L 410.511151 118.137721 
L 412.038413 118.502004 
L 413.565674 119.325117 
L 415.092936 117.698277 
L 416.620198 117.476463 
L 418.147459 117.841264 
L 421.201982 118.856633 
L 422.729244 119.782926 
L 424.256506 119.717556 
L 425.783767 118.799848 
L 427.311029 119.98799 
L 428.83829 120.999571 
L 430.365552 122.190644 
L 431.892814 122.221922 
L 434.947337 124.528339 
L 436.474598 125.517212 
L 438.00186 126.367938 
L 439.529122 126.088608 
L 441.056383 125.648326 
L 442.583645 124.258157 
L 444.110906 125.24894 
L 445.638168 126.37682 
L 447.165429 125.331662 
L 451.747214 128.479549 
L 453.274476 128.788417 
L 454.801737 128.92595 
L 456.328999 126.034175 
L 457.856261 125.305995 
L 459.383522 126.355252 
L 460.910784 124.660864 
L 462.438045 125.626889 
L 462.438045 125.626889 
" style="fill:none;stroke:#daa4ac;stroke-linecap:square;stroke-width:1.5;"/>
   </g>
   <g id="line2d_18">
    <path clip-path="url(#pd429a7b306)" d="M 88.258955 81.979552 
L 89.786216 62.2358 
L 91.313478 102.307929 
L 92.840739 71.310687 
L 94.368001 106.456935 
L 95.895263 103.431275 
L 98.949786 101.620095 
L 100.477047 114.260753 
L 102.004309 124.996847 
L 103.531571 131.673797 
L 105.058832 132.529571 
L 106.586094 130.352207 
L 108.113355 136.91638 
L 109.640617 125.936732 
L 111.167878 133.921485 
L 112.69514 134.68231 
L 114.222402 133.279721 
L 115.749663 134.769485 
L 117.276925 134.861359 
L 118.804186 135.437381 
L 120.331448 142.762203 
L 121.85871 142.333325 
L 123.385971 142.771555 
L 124.913233 141.37032 
L 126.440494 137.135296 
L 127.967756 138.157859 
L 129.495018 137.152862 
L 131.022279 133.696133 
L 132.549541 132.236106 
L 134.076802 134.695359 
L 135.604064 134.585412 
L 137.131326 133.649021 
L 138.658587 133.512913 
L 140.185849 137.240574 
L 141.71311 131.867418 
L 143.240372 133.447612 
L 144.767634 136.220924 
L 146.294895 129.743258 
L 147.822157 122.4351 
L 150.87668 125.030771 
L 152.403942 125.411069 
L 153.931203 125.632889 
L 155.458465 126.978563 
L 156.985726 120.462451 
L 158.512988 120.546515 
L 160.04025 106.98333 
L 161.567511 108.465244 
L 163.094773 108.564953 
L 164.622034 110.917424 
L 166.149296 110.917533 
L 167.676558 115.986366 
L 169.203819 116.762941 
L 170.731081 125.958618 
L 172.258342 126.133889 
L 173.785604 126.083709 
L 175.312865 128.312873 
L 176.840127 128.31399 
L 178.367389 131.839173 
L 179.89465 131.777227 
L 181.421912 131.82797 
L 182.949173 132.16713 
L 184.476435 131.55263 
L 186.003697 131.961381 
L 187.530958 132.006195 
L 189.05822 127.024754 
L 193.640005 127.11341 
L 195.167266 124.167164 
L 196.694528 126.622945 
L 198.221789 127.368739 
L 199.749051 129.441195 
L 201.276313 130.153664 
L 202.803574 129.463415 
L 204.330836 131.691172 
L 205.858097 131.622371 
L 207.385359 131.394552 
L 210.439882 131.10514 
L 213.494405 132.727643 
L 215.021667 132.737713 
L 216.548929 132.228449 
L 218.07619 132.710143 
L 219.603452 133.572655 
L 221.130713 131.96198 
L 222.657975 130.868289 
L 224.185237 136.404468 
L 225.712498 136.355448 
L 227.23976 135.196911 
L 228.767021 135.644278 
L 230.294283 135.305113 
L 231.821545 135.44732 
L 233.348806 133.44739 
L 234.876068 136.529121 
L 236.403329 137.783447 
L 237.930591 138.608149 
L 239.457853 138.717095 
L 240.985114 139.019383 
L 242.512376 141.740718 
L 244.039637 142.935187 
L 245.566899 143.182267 
L 247.09416 142.954789 
L 248.621422 142.870826 
L 250.148684 141.480091 
L 251.675945 143.901845 
L 253.203207 140.436141 
L 254.730468 143.769351 
L 256.25773 144.135888 
L 257.784992 144.725703 
L 259.312253 144.470706 
L 260.839515 143.33687 
L 262.366776 143.258217 
L 265.4213 145.637 
L 266.948561 148.330688 
L 268.475823 149.49779 
L 270.003084 148.947466 
L 274.584869 149.011029 
L 276.112131 150.622538 
L 277.639392 150.55137 
L 279.166654 150.362405 
L 282.221177 151.056226 
L 283.748439 151.896643 
L 285.2757 151.766003 
L 286.802962 151.980414 
L 288.330224 151.047047 
L 289.857485 151.269633 
L 291.384747 150.001779 
L 292.912008 150.02962 
L 294.43927 148.289405 
L 295.966532 148.432126 
L 297.493793 148.211278 
L 299.021055 149.312578 
L 300.548316 149.688586 
L 302.075578 151.290893 
L 303.60284 151.499197 
L 305.130101 151.42536 
L 306.657363 151.746596 
L 308.184624 151.769014 
L 309.711886 151.096842 
L 311.239147 153.211953 
L 312.766409 154.035871 
L 314.293671 154.381951 
L 315.820932 154.452978 
L 317.348194 153.810628 
L 318.875455 153.463409 
L 320.402717 152.783444 
L 321.929979 151.889464 
L 323.45724 152.513894 
L 326.511763 152.51811 
L 328.039025 152.763677 
L 329.566287 152.757424 
L 331.093548 153.293469 
L 332.62081 153.294478 
L 334.148071 153.978658 
L 335.675333 153.895331 
L 337.202595 156.369189 
L 338.729856 157.596308 
L 340.257118 157.594092 
L 341.784379 158.426523 
L 343.311641 158.815499 
L 344.838903 159.375421 
L 346.366164 159.295578 
L 347.893426 159.777059 
L 349.420687 159.970515 
L 350.947949 159.973889 
L 352.475211 159.308652 
L 354.002472 159.279515 
L 355.529734 159.831485 
L 357.056995 160.204002 
L 358.584257 160.112756 
L 360.111519 160.215308 
L 361.63878 161.098534 
L 363.166042 160.985135 
L 366.220565 161.092516 
L 369.275088 161.022862 
L 370.80235 161.485887 
L 372.329611 161.399582 
L 373.856873 160.959298 
L 375.384135 162.234453 
L 376.911396 162.583425 
L 378.438658 163.140952 
L 379.965919 162.929243 
L 381.493181 164.218812 
L 383.020442 164.962748 
L 384.547704 165.002368 
L 386.074966 165.713505 
L 387.602227 165.897155 
L 389.129489 166.217104 
L 390.65675 166.332062 
L 398.293058 166.190751 
L 399.82032 167.609731 
L 401.347582 167.256269 
L 402.874843 167.574692 
L 404.402105 167.227045 
L 405.929366 167.723218 
L 407.456628 168.755508 
L 408.98389 169.081764 
L 410.511151 168.88704 
L 412.038413 169.061046 
L 413.565674 168.844694 
L 415.092936 168.008082 
L 416.620198 168.857567 
L 418.147459 168.513079 
L 421.201982 169.558514 
L 424.256506 169.745124 
L 425.783767 168.891063 
L 427.311029 168.992208 
L 428.83829 169.370186 
L 430.365552 169.349104 
L 431.892814 168.804784 
L 434.947337 168.860163 
L 436.474598 169.184346 
L 438.00186 169.992915 
L 439.529122 170.662341 
L 441.056383 170.304588 
L 442.583645 169.065809 
L 444.110906 169.222522 
L 445.638168 169.213013 
L 447.165429 170.067343 
L 448.692691 170.083227 
L 450.219953 170.383955 
L 451.747214 170.525837 
L 453.274476 171.829875 
L 456.328999 172.299049 
L 457.856261 171.668203 
L 459.383522 171.608127 
L 460.910784 171.349978 
L 462.438045 171.345744 
L 462.438045 171.345744 
" style="fill:none;stroke:#daa4ac;stroke-dasharray:6,2.25;stroke-dashoffset:0;stroke-width:1.5;"/>
   </g>
   <g id="line2d_19">
    <path clip-path="url(#pd429a7b306)" d="M 88.258955 213.317449 
L 89.786216 168.019453 
L 91.313478 150.060949 
L 92.840739 116.727467 
L 94.368001 91.426487 
L 97.422524 127.932324 
L 98.949786 67.903558 
L 100.477047 57.087353 
L 102.004309 52.682693 
L 103.531571 54.734051 
L 105.058832 67.919979 
L 106.586094 75.728677 
L 108.113355 77.250915 
L 109.640617 38.681818 
L 111.167878 44.954659 
L 112.69514 58.497604 
L 117.276925 91.098704 
L 118.804186 98.780758 
L 120.331448 86.293919 
L 121.85871 93.150007 
L 123.385971 102.376205 
L 124.913233 101.774614 
L 126.440494 104.48095 
L 127.967756 104.494823 
L 129.495018 103.095104 
L 131.022279 95.03502 
L 132.549541 102.22181 
L 134.076802 78.874046 
L 135.604064 73.792144 
L 137.131326 79.685256 
L 138.658587 87.177104 
L 140.185849 88.372797 
L 141.71311 88.931919 
L 143.240372 93.524697 
L 144.767634 90.122095 
L 146.294895 79.557243 
L 147.822157 70.990316 
L 149.349418 73.968424 
L 150.87668 76.441423 
L 152.403942 81.180515 
L 153.931203 86.743009 
L 155.458465 91.031637 
L 156.985726 81.866375 
L 158.512988 87.006804 
L 160.04025 67.227862 
L 161.567511 60.866453 
L 163.094773 64.547438 
L 164.622034 69.53896 
L 166.149296 74.98773 
L 167.676558 73.856126 
L 169.203819 71.967037 
L 170.731081 56.025965 
L 172.258342 54.31699 
L 173.785604 59.456355 
L 175.312865 60.146723 
L 176.840127 65.172469 
L 178.367389 55.361557 
L 182.949173 69.580602 
L 184.476435 70.183352 
L 186.003697 74.181815 
L 187.530958 74.749832 
L 189.05822 70.754069 
L 192.112743 79.210978 
L 193.640005 79.732998 
L 195.167266 80.744206 
L 196.694528 71.966194 
L 198.221789 73.223694 
L 199.749051 76.323274 
L 201.276313 80.156468 
L 202.803574 82.964721 
L 204.330836 85.351738 
L 205.858097 88.479372 
L 207.385359 91.131469 
L 210.439882 97.860127 
L 213.494405 101.987938 
L 218.07619 111.139005 
L 219.603452 107.615274 
L 221.130713 110.105376 
L 222.657975 112.023304 
L 224.185237 106.742665 
L 225.712498 109.666276 
L 227.23976 112.11852 
L 228.767021 114.236295 
L 230.294283 115.62018 
L 231.821545 117.154735 
L 233.348806 116.577061 
L 234.876068 114.962166 
L 236.403329 113.976003 
L 237.930591 115.816306 
L 239.457853 118.190582 
L 240.985114 120.293348 
L 242.512376 118.88441 
L 244.039637 113.904033 
L 248.621422 120.839405 
L 250.148684 121.146315 
L 251.675945 120.666589 
L 253.203207 114.075918 
L 254.730468 106.198005 
L 256.25773 108.496478 
L 257.784992 107.32641 
L 259.312253 107.931808 
L 260.839515 109.512638 
L 262.366776 111.872444 
L 263.894038 107.148254 
L 265.4213 106.3399 
L 266.948561 100.436047 
L 268.475823 100.801025 
L 270.003084 102.740219 
L 271.530346 104.14209 
L 273.057608 106.142904 
L 274.584869 97.343511 
L 276.112131 95.626954 
L 277.639392 97.882119 
L 279.166654 99.793699 
L 280.693916 99.711675 
L 282.221177 101.144756 
L 283.748439 101.161661 
L 285.2757 101.483378 
L 286.802962 103.358732 
L 288.330224 104.265513 
L 289.857485 105.763242 
L 291.384747 104.983063 
L 292.912008 107.010954 
L 294.43927 106.574326 
L 295.966532 108.552721 
L 297.493793 108.98364 
L 299.021055 107.973845 
L 300.548316 108.074205 
L 302.075578 101.273335 
L 303.60284 100.614273 
L 305.130101 101.360792 
L 306.657363 103.056809 
L 308.184624 104.998704 
L 309.711886 103.417531 
L 311.239147 91.090765 
L 312.766409 92.144855 
L 314.293671 93.670444 
L 315.820932 95.548483 
L 317.348194 97.054697 
L 318.875455 98.884267 
L 320.402717 100.355497 
L 321.929979 101.313924 
L 323.45724 98.83351 
L 324.984502 97.879784 
L 328.039025 101.430692 
L 329.566287 101.131221 
L 331.093548 99.406052 
L 332.62081 101.185329 
L 334.148071 101.232102 
L 335.675333 102.926571 
L 337.202595 99.102667 
L 338.729856 96.963683 
L 340.257118 98.706361 
L 341.784379 99.510825 
L 344.838903 101.957028 
L 346.366164 103.631837 
L 347.893426 102.512467 
L 349.420687 101.715924 
L 350.947949 103.365663 
L 352.475211 103.865154 
L 354.002472 105.446997 
L 355.529734 106.517412 
L 357.056995 106.924452 
L 358.584257 108.316277 
L 360.111519 109.461754 
L 361.63878 96.646789 
L 363.166042 97.059675 
L 366.220565 100.219059 
L 367.747827 101.445505 
L 369.275088 102.987948 
L 370.80235 101.296835 
L 373.856873 102.195034 
L 375.384135 101.487255 
L 376.911396 99.255751 
L 378.438658 100.315549 
L 379.965919 101.225095 
L 381.493181 99.595259 
L 383.020442 99.290997 
L 384.547704 100.771101 
L 386.074966 101.240486 
L 387.602227 101.531832 
L 389.129489 98.75471 
L 395.238535 104.280648 
L 396.765797 103.666484 
L 398.293058 105.009369 
L 399.82032 102.98152 
L 401.347582 100.322659 
L 402.874843 100.237945 
L 404.402105 95.766343 
L 405.929366 96.167872 
L 407.456628 91.640523 
L 408.98389 92.628611 
L 410.511151 93.355991 
L 412.038413 93.563975 
L 413.565674 94.553299 
L 415.092936 92.573999 
L 416.620198 91.700267 
L 418.147459 91.377081 
L 421.201982 92.102581 
L 422.729244 93.024327 
L 424.256506 92.572049 
L 425.783767 90.284786 
L 427.311029 91.591932 
L 428.83829 92.5134 
L 430.365552 93.834367 
L 431.892814 94.247501 
L 434.947337 96.659989 
L 436.474598 97.477251 
L 438.00186 97.793449 
L 439.529122 97.360868 
L 441.056383 96.383015 
L 442.583645 95.932816 
L 444.110906 96.611701 
L 445.638168 97.863645 
L 447.165429 96.353129 
L 448.692691 97.47369 
L 450.219953 98.321764 
L 451.747214 99.454081 
L 453.274476 98.759981 
L 454.801737 99.457476 
L 456.328999 97.096127 
L 457.856261 96.544931 
L 459.383522 97.754532 
L 460.910784 96.634635 
L 462.438045 97.622803 
L 462.438045 97.622803 
" style="fill:none;stroke:#2d1e3e;stroke-linecap:square;stroke-width:1.5;"/>
   </g>
   <g id="line2d_20">
    <path clip-path="url(#pd429a7b306)" d="M 88.258955 73.717495 
L 89.786216 54.463572 
L 91.313478 98.928927 
L 92.840739 66.109407 
L 94.368001 99.919765 
L 95.895263 97.066776 
L 97.422524 96.508714 
L 98.949786 98.67611 
L 100.477047 111.148059 
L 102.004309 120.324355 
L 103.531571 126.788031 
L 105.058832 126.854706 
L 106.586094 123.736347 
L 108.113355 130.352596 
L 109.640617 120.496593 
L 111.167878 127.399083 
L 112.69514 128.068206 
L 114.222402 126.574244 
L 115.749663 127.81182 
L 117.276925 127.859537 
L 118.804186 128.261274 
L 120.331448 135.496137 
L 121.85871 134.868849 
L 123.385971 135.40824 
L 124.913233 133.630136 
L 126.440494 128.874413 
L 127.967756 129.606349 
L 129.495018 127.686844 
L 131.022279 124.240368 
L 132.549541 122.809385 
L 134.076802 126.064891 
L 137.131326 124.366315 
L 138.658587 124.317462 
L 140.185849 128.172625 
L 141.71311 122.646058 
L 143.240372 124.275945 
L 144.767634 126.502282 
L 146.294895 120.294698 
L 147.822157 111.484378 
L 149.349418 112.485534 
L 150.87668 113.689212 
L 152.403942 113.954105 
L 153.931203 114.105923 
L 155.458465 115.447306 
L 156.985726 108.37976 
L 158.512988 108.35986 
L 160.04025 94.922584 
L 161.567511 95.627196 
L 163.094773 95.705451 
L 164.622034 98.257306 
L 166.149296 98.244153 
L 167.676558 103.592212 
L 169.203819 103.936694 
L 170.731081 113.148176 
L 172.258342 113.39253 
L 173.785604 113.355813 
L 175.312865 115.961954 
L 176.840127 115.953372 
L 178.367389 119.189637 
L 179.89465 119.058732 
L 181.421912 119.105468 
L 182.949173 119.592873 
L 184.476435 118.458467 
L 186.003697 118.91283 
L 187.530958 119.180523 
L 189.05822 113.112074 
L 192.112743 113.165497 
L 193.640005 112.858047 
L 195.167266 109.266142 
L 196.694528 110.844477 
L 198.221789 111.650344 
L 199.749051 113.862196 
L 201.276313 114.372815 
L 202.803574 113.487086 
L 204.330836 115.836234 
L 205.858097 115.645335 
L 207.385359 115.218841 
L 210.439882 114.716539 
L 211.967144 115.45221 
L 213.494405 116.060429 
L 215.021667 116.083207 
L 216.548929 115.933108 
L 218.07619 116.505278 
L 219.603452 116.750286 
L 221.130713 115.100943 
L 222.657975 113.944926 
L 224.185237 119.696542 
L 225.712498 119.623103 
L 227.23976 118.466818 
L 228.767021 118.840867 
L 230.294283 118.572959 
L 231.821545 118.74275 
L 233.348806 116.248939 
L 234.876068 119.191166 
L 236.403329 119.847253 
L 237.930591 120.803062 
L 240.985114 121.2985 
L 242.512376 124.089222 
L 244.039637 125.401358 
L 245.566899 125.644656 
L 248.621422 125.216188 
L 250.148684 123.616266 
L 251.675945 126.155876 
L 253.203207 122.534458 
L 254.730468 125.498874 
L 257.784992 126.414286 
L 259.312253 125.813478 
L 260.839515 124.204008 
L 262.366776 124.256496 
L 263.894038 125.709761 
L 265.4213 126.928446 
L 266.948561 129.988845 
L 268.475823 131.21721 
L 270.003084 130.793433 
L 271.530346 130.721157 
L 273.057608 130.837572 
L 274.584869 130.130032 
L 276.112131 131.198104 
L 277.639392 131.038428 
L 279.166654 130.675862 
L 280.693916 130.787576 
L 282.221177 131.117862 
L 283.748439 131.98918 
L 285.2757 131.92806 
L 286.802962 132.141797 
L 288.330224 130.818362 
L 289.857485 130.913881 
L 291.384747 129.153863 
L 292.912008 129.195399 
L 294.43927 127.804059 
L 295.966532 128.108416 
L 297.493793 127.709181 
L 299.021055 128.708734 
L 300.548316 129.166627 
L 302.075578 130.673801 
L 303.60284 130.71269 
L 305.130101 130.471836 
L 306.657363 130.772668 
L 308.184624 130.76359 
L 309.711886 129.975181 
L 311.239147 131.860426 
L 312.766409 132.488244 
L 314.293671 132.774159 
L 315.820932 132.839956 
L 317.348194 132.011327 
L 318.875455 131.776818 
L 320.402717 130.964892 
L 321.929979 129.954731 
L 323.45724 130.447807 
L 324.984502 130.081128 
L 326.511763 130.151138 
L 328.039025 130.425883 
L 329.566287 129.854312 
L 331.093548 130.114789 
L 332.62081 130.116067 
L 334.148071 130.423847 
L 335.675333 130.135372 
L 337.202595 132.525587 
L 338.729856 133.87941 
L 340.257118 133.87996 
L 341.784379 134.650985 
L 343.311641 134.928052 
L 344.838903 135.605066 
L 346.366164 135.594551 
L 347.893426 136.259776 
L 349.420687 136.123954 
L 350.947949 136.117502 
L 352.475211 135.440957 
L 354.002472 135.438421 
L 355.529734 136.092984 
L 357.056995 136.202084 
L 360.111519 136.179801 
L 363.166042 135.656588 
L 364.693303 135.78854 
L 369.275088 135.684433 
L 372.329611 135.997508 
L 373.856873 135.485752 
L 375.384135 136.728416 
L 376.911396 136.891835 
L 378.438658 137.535825 
L 379.965919 137.379046 
L 381.493181 138.704504 
L 383.020442 139.037247 
L 384.547704 139.092746 
L 386.074966 139.809461 
L 389.129489 139.711942 
L 390.65675 139.873382 
L 392.184012 139.804702 
L 393.711274 139.862263 
L 395.238535 139.806891 
L 396.765797 139.50345 
L 398.293058 139.525375 
L 399.82032 140.609423 
L 401.347582 140.140812 
L 402.874843 140.568277 
L 404.402105 139.996065 
L 405.929366 140.639102 
L 408.98389 141.264612 
L 410.511151 141.143113 
L 412.038413 141.145851 
L 413.565674 140.933942 
L 415.092936 139.615765 
L 416.620198 140.24312 
L 418.147459 139.243911 
L 421.201982 140.274457 
L 422.729244 140.374401 
L 424.256506 139.987884 
L 425.783767 137.809269 
L 427.311029 137.932549 
L 428.83829 138.333836 
L 430.365552 138.32573 
L 431.892814 137.892959 
L 434.947337 137.846086 
L 436.474598 138.115048 
L 438.00186 138.941285 
L 439.529122 139.632009 
L 442.583645 137.962887 
L 444.110906 137.852903 
L 445.638168 137.858349 
L 447.165429 138.61836 
L 448.692691 138.599557 
L 451.747214 139.05976 
L 453.274476 140.286811 
L 456.328999 141.247758 
L 457.856261 140.544573 
L 459.383522 140.560506 
L 462.438045 140.272493 
L 462.438045 140.272493 
" style="fill:none;stroke:#2d1e3e;stroke-dasharray:6,2.25;stroke-dashoffset:0;stroke-width:1.5;"/>
   </g>
   <g id="line2d_21"/>
   <g id="line2d_22"/>
   <g id="line2d_23"/>
   <g id="line2d_24"/>
   <g id="line2d_25"/>
   <g id="patch_3">
    <path d="M 69.55 246.2 
L 69.55 28.8 
" style="fill:none;stroke:#000000;stroke-linecap:square;stroke-linejoin:miter;stroke-width:0.8;"/>
   </g>
   <g id="patch_4">
    <path d="M 481.147 246.2 
L 481.147 28.8 
" style="fill:none;stroke:#000000;stroke-linecap:square;stroke-linejoin:miter;stroke-width:0.8;"/>
   </g>
   <g id="patch_5">
    <path d="M 69.55 246.2 
L 481.147 246.2 
" style="fill:none;stroke:#000000;stroke-linecap:square;stroke-linejoin:miter;stroke-width:0.8;"/>
   </g>
   <g id="patch_6">
    <path d="M 69.55 28.8 
L 481.147 28.8 
" style="fill:none;stroke:#000000;stroke-linecap:square;stroke-linejoin:miter;stroke-width:0.8;"/>
   </g>
   <g id="text_17">
    <!-- Ridge Regression versus data subsets sizes $n$ -->
    <g transform="translate(138.6085 22.8)scale(0.12 -0.12)">
     <defs>
      <path d="M 2841 2188 
Q 3044 2119 3236 1894 
Q 3428 1669 3622 1275 
L 4263 0 
L 3584 0 
L 2988 1197 
Q 2756 1666 2539 1819 
Q 2322 1972 1947 1972 
L 1259 1972 
L 1259 0 
L 628 0 
L 628 4666 
L 2053 4666 
Q 2853 4666 3247 4331 
Q 3641 3997 3641 3322 
Q 3641 2881 3436 2590 
Q 3231 2300 2841 2188 
z
M 1259 4147 
L 1259 2491 
L 2053 2491 
Q 2509 2491 2742 2702 
Q 2975 2913 2975 3322 
Q 2975 3731 2742 3939 
Q 2509 4147 2053 4147 
L 1259 4147 
z
" id="DejaVuSans-52" transform="scale(0.015625)"/>
      <path d="M 603 3500 
L 1178 3500 
L 1178 0 
L 603 0 
L 603 3500 
z
M 603 4863 
L 1178 4863 
L 1178 4134 
L 603 4134 
L 603 4863 
z
" id="DejaVuSans-69" transform="scale(0.015625)"/>
      <path d="M 2906 2969 
L 2906 4863 
L 3481 4863 
L 3481 0 
L 2906 0 
L 2906 525 
Q 2725 213 2448 61 
Q 2172 -91 1784 -91 
Q 1150 -91 751 415 
Q 353 922 353 1747 
Q 353 2572 751 3078 
Q 1150 3584 1784 3584 
Q 2172 3584 2448 3432 
Q 2725 3281 2906 2969 
z
M 947 1747 
Q 947 1113 1208 752 
Q 1469 391 1925 391 
Q 2381 391 2643 752 
Q 2906 1113 2906 1747 
Q 2906 2381 2643 2742 
Q 2381 3103 1925 3103 
Q 1469 3103 1208 2742 
Q 947 2381 947 1747 
z
" id="DejaVuSans-64" transform="scale(0.015625)"/>
      <path d="M 2906 1791 
Q 2906 2416 2648 2759 
Q 2391 3103 1925 3103 
Q 1463 3103 1205 2759 
Q 947 2416 947 1791 
Q 947 1169 1205 825 
Q 1463 481 1925 481 
Q 2391 481 2648 825 
Q 2906 1169 2906 1791 
z
M 3481 434 
Q 3481 -459 3084 -895 
Q 2688 -1331 1869 -1331 
Q 1566 -1331 1297 -1286 
Q 1028 -1241 775 -1147 
L 775 -588 
Q 1028 -725 1275 -790 
Q 1522 -856 1778 -856 
Q 2344 -856 2625 -561 
Q 2906 -266 2906 331 
L 2906 616 
Q 2728 306 2450 153 
Q 2172 0 1784 0 
Q 1141 0 747 490 
Q 353 981 353 1791 
Q 353 2603 747 3093 
Q 1141 3584 1784 3584 
Q 2172 3584 2450 3431 
Q 2728 3278 2906 2969 
L 2906 3500 
L 3481 3500 
L 3481 434 
z
" id="DejaVuSans-67" transform="scale(0.015625)"/>
      <path d="M 3597 1894 
L 3597 1613 
L 953 1613 
Q 991 1019 1311 708 
Q 1631 397 2203 397 
Q 2534 397 2845 478 
Q 3156 559 3463 722 
L 3463 178 
Q 3153 47 2828 -22 
Q 2503 -91 2169 -91 
Q 1331 -91 842 396 
Q 353 884 353 1716 
Q 353 2575 817 3079 
Q 1281 3584 2069 3584 
Q 2775 3584 3186 3129 
Q 3597 2675 3597 1894 
z
M 3022 2063 
Q 3016 2534 2758 2815 
Q 2500 3097 2075 3097 
Q 1594 3097 1305 2825 
Q 1016 2553 972 2059 
L 3022 2063 
z
" id="DejaVuSans-65" transform="scale(0.015625)"/>
      <path d="M 2631 2963 
Q 2534 3019 2420 3045 
Q 2306 3072 2169 3072 
Q 1681 3072 1420 2755 
Q 1159 2438 1159 1844 
L 1159 0 
L 581 0 
L 581 3500 
L 1159 3500 
L 1159 2956 
Q 1341 3275 1631 3429 
Q 1922 3584 2338 3584 
Q 2397 3584 2469 3576 
Q 2541 3569 2628 3553 
L 2631 2963 
z
" id="DejaVuSans-72" transform="scale(0.015625)"/>
      <path d="M 191 3500 
L 800 3500 
L 1894 563 
L 2988 3500 
L 3597 3500 
L 2284 0 
L 1503 0 
L 191 3500 
z
" id="DejaVuSans-76" transform="scale(0.015625)"/>
      <path d="M 544 1381 
L 544 3500 
L 1119 3500 
L 1119 1403 
Q 1119 906 1312 657 
Q 1506 409 1894 409 
Q 2359 409 2629 706 
Q 2900 1003 2900 1516 
L 2900 3500 
L 3475 3500 
L 3475 0 
L 2900 0 
L 2900 538 
Q 2691 219 2414 64 
Q 2138 -91 1772 -91 
Q 1169 -91 856 284 
Q 544 659 544 1381 
z
M 1991 3584 
L 1991 3584 
z
" id="DejaVuSans-75" transform="scale(0.015625)"/>
      <path d="M 2194 1759 
Q 1497 1759 1228 1600 
Q 959 1441 959 1056 
Q 959 750 1161 570 
Q 1363 391 1709 391 
Q 2188 391 2477 730 
Q 2766 1069 2766 1631 
L 2766 1759 
L 2194 1759 
z
M 3341 1997 
L 3341 0 
L 2766 0 
L 2766 531 
Q 2569 213 2275 61 
Q 1981 -91 1556 -91 
Q 1019 -91 701 211 
Q 384 513 384 1019 
Q 384 1609 779 1909 
Q 1175 2209 1959 2209 
L 2766 2209 
L 2766 2266 
Q 2766 2663 2505 2880 
Q 2244 3097 1772 3097 
Q 1472 3097 1187 3025 
Q 903 2953 641 2809 
L 641 3341 
Q 956 3463 1253 3523 
Q 1550 3584 1831 3584 
Q 2591 3584 2966 3190 
Q 3341 2797 3341 1997 
z
" id="DejaVuSans-61" transform="scale(0.015625)"/>
      <path d="M 1172 4494 
L 1172 3500 
L 2356 3500 
L 2356 3053 
L 1172 3053 
L 1172 1153 
Q 1172 725 1289 603 
Q 1406 481 1766 481 
L 2356 481 
L 2356 0 
L 1766 0 
Q 1100 0 847 248 
Q 594 497 594 1153 
L 594 3053 
L 172 3053 
L 172 3500 
L 594 3500 
L 594 4494 
L 1172 4494 
z
" id="DejaVuSans-74" transform="scale(0.015625)"/>
      <path d="M 3116 1747 
Q 3116 2381 2855 2742 
Q 2594 3103 2138 3103 
Q 1681 3103 1420 2742 
Q 1159 2381 1159 1747 
Q 1159 1113 1420 752 
Q 1681 391 2138 391 
Q 2594 391 2855 752 
Q 3116 1113 3116 1747 
z
M 1159 2969 
Q 1341 3281 1617 3432 
Q 1894 3584 2278 3584 
Q 2916 3584 3314 3078 
Q 3713 2572 3713 1747 
Q 3713 922 3314 415 
Q 2916 -91 2278 -91 
Q 1894 -91 1617 61 
Q 1341 213 1159 525 
L 1159 0 
L 581 0 
L 581 4863 
L 1159 4863 
L 1159 2969 
z
" id="DejaVuSans-62" transform="scale(0.015625)"/>
      <path d="M 353 3500 
L 3084 3500 
L 3084 2975 
L 922 459 
L 3084 459 
L 3084 0 
L 275 0 
L 275 525 
L 2438 3041 
L 353 3041 
L 353 3500 
z
" id="DejaVuSans-7a" transform="scale(0.015625)"/>
      <path d="M 3566 2113 
L 3156 0 
L 2578 0 
L 2988 2091 
Q 3016 2238 3031 2350 
Q 3047 2463 3047 2528 
Q 3047 2791 2881 2937 
Q 2716 3084 2419 3084 
Q 1956 3084 1622 2776 
Q 1288 2469 1184 1941 
L 800 0 
L 225 0 
L 903 3500 
L 1478 3500 
L 1363 2950 
Q 1603 3253 1940 3418 
Q 2278 3584 2650 3584 
Q 3113 3584 3367 3334 
Q 3622 3084 3622 2631 
Q 3622 2519 3608 2391 
Q 3594 2263 3566 2113 
z
" id="DejaVuSans-Oblique-6e" transform="scale(0.015625)"/>
     </defs>
     <use transform="translate(0 0.015625)" xlink:href="#DejaVuSans-52"/>
     <use transform="translate(69.482422 0.015625)" xlink:href="#DejaVuSans-69"/>
     <use transform="translate(97.265625 0.015625)" xlink:href="#DejaVuSans-64"/>
     <use transform="translate(160.742188 0.015625)" xlink:href="#DejaVuSans-67"/>
     <use transform="translate(224.21875 0.015625)" xlink:href="#DejaVuSans-65"/>
     <use transform="translate(285.742188 0.015625)" xlink:href="#DejaVuSans-20"/>
     <use transform="translate(317.529297 0.015625)" xlink:href="#DejaVuSans-52"/>
     <use transform="translate(387.011719 0.015625)" xlink:href="#DejaVuSans-65"/>
     <use transform="translate(448.535156 0.015625)" xlink:href="#DejaVuSans-67"/>
     <use transform="translate(512.011719 0.015625)" xlink:href="#DejaVuSans-72"/>
     <use transform="translate(553.125 0.015625)" xlink:href="#DejaVuSans-65"/>
     <use transform="translate(614.648438 0.015625)" xlink:href="#DejaVuSans-73"/>
     <use transform="translate(666.748047 0.015625)" xlink:href="#DejaVuSans-73"/>
     <use transform="translate(718.847656 0.015625)" xlink:href="#DejaVuSans-69"/>
     <use transform="translate(746.630859 0.015625)" xlink:href="#DejaVuSans-6f"/>
     <use transform="translate(807.8125 0.015625)" xlink:href="#DejaVuSans-6e"/>
     <use transform="translate(871.191406 0.015625)" xlink:href="#DejaVuSans-20"/>
     <use transform="translate(902.978516 0.015625)" xlink:href="#DejaVuSans-76"/>
     <use transform="translate(962.158203 0.015625)" xlink:href="#DejaVuSans-65"/>
     <use transform="translate(1023.681641 0.015625)" xlink:href="#DejaVuSans-72"/>
     <use transform="translate(1064.794922 0.015625)" xlink:href="#DejaVuSans-73"/>
     <use transform="translate(1116.894531 0.015625)" xlink:href="#DejaVuSans-75"/>
     <use transform="translate(1180.273438 0.015625)" xlink:href="#DejaVuSans-73"/>
     <use transform="translate(1232.373047 0.015625)" xlink:href="#DejaVuSans-20"/>
     <use transform="translate(1264.160156 0.015625)" xlink:href="#DejaVuSans-64"/>
     <use transform="translate(1327.636719 0.015625)" xlink:href="#DejaVuSans-61"/>
     <use transform="translate(1388.916016 0.015625)" xlink:href="#DejaVuSans-74"/>
     <use transform="translate(1428.125 0.015625)" xlink:href="#DejaVuSans-61"/>
     <use transform="translate(1489.404297 0.015625)" xlink:href="#DejaVuSans-20"/>
     <use transform="translate(1521.191406 0.015625)" xlink:href="#DejaVuSans-73"/>
     <use transform="translate(1573.291016 0.015625)" xlink:href="#DejaVuSans-75"/>
     <use transform="translate(1636.669922 0.015625)" xlink:href="#DejaVuSans-62"/>
     <use transform="translate(1700.146484 0.015625)" xlink:href="#DejaVuSans-73"/>
     <use transform="translate(1752.246094 0.015625)" xlink:href="#DejaVuSans-65"/>
     <use transform="translate(1813.769531 0.015625)" xlink:href="#DejaVuSans-74"/>
     <use transform="translate(1852.978516 0.015625)" xlink:href="#DejaVuSans-73"/>
     <use transform="translate(1905.078125 0.015625)" xlink:href="#DejaVuSans-20"/>
     <use transform="translate(1936.865234 0.015625)" xlink:href="#DejaVuSans-73"/>
     <use transform="translate(1988.964844 0.015625)" xlink:href="#DejaVuSans-69"/>
     <use transform="translate(2016.748047 0.015625)" xlink:href="#DejaVuSans-7a"/>
     <use transform="translate(2069.238281 0.015625)" xlink:href="#DejaVuSans-65"/>
     <use transform="translate(2130.761719 0.015625)" xlink:href="#DejaVuSans-73"/>
     <use transform="translate(2182.861328 0.015625)" xlink:href="#DejaVuSans-20"/>
     <use transform="translate(2214.648438 0.015625)" xlink:href="#DejaVuSans-Oblique-6e"/>
    </g>
   </g>
   <g id="legend_1">
    <g id="patch_7">
     <path d="M 496.37894 135.198875 
L 562.696128 135.198875 
Q 564.696128 135.198875 564.696128 133.198875 
L 564.696128 31.452 
Q 564.696128 29.452 562.696128 29.452 
L 496.37894 29.452 
Q 494.37894 29.452 494.37894 31.452 
L 494.37894 133.198875 
Q 494.37894 135.198875 496.37894 135.198875 
z
" style="fill:#ffffff;opacity:0.8;stroke:#cccccc;stroke-linejoin:miter;"/>
    </g>
    <g id="text_18">
     <!--  -->
     <g transform="translate(526.37894 41.050437)scale(0.1 -0.1)">
      <defs>
       <path d="M 1981 4316 
L 3597 0 
L 2988 0 
L 2006 2588 
L 800 0 
L 191 0 
L 1725 3356 
L 1494 3975 
Q 1347 4369 1013 4369 
L 713 4369 
L 713 4863 
L 1078 4856 
Q 1784 4847 1981 4316 
z
" id="DejaVuSans-3bb" transform="scale(0.015625)"/>
      </defs>
      <use xlink:href="#DejaVuSans-3bb"/>
     </g>
    </g>
    <g id="line2d_26">
     <path d="M 498.37894 52.228562 
L 518.37894 52.228562 
" style="fill:none;stroke:#edd1cb;stroke-linecap:square;stroke-width:1.5;"/>
    </g>
    <g id="line2d_27"/>
    <g id="text_19">
     <!-- 0.0 -->
     <g transform="translate(526.37894 55.728562)scale(0.1 -0.1)">
      <defs>
       <path d="M 684 794 
L 1344 794 
L 1344 0 
L 684 0 
L 684 794 
z
" id="DejaVuSans-2e" transform="scale(0.015625)"/>
      </defs>
      <use xlink:href="#DejaVuSans-30"/>
      <use x="63.623047" xlink:href="#DejaVuSans-2e"/>
      <use x="95.410156" xlink:href="#DejaVuSans-30"/>
     </g>
    </g>
    <g id="line2d_28">
     <path d="M 498.37894 66.906687 
L 518.37894 66.906687 
" style="fill:none;stroke:#daa4ac;stroke-linecap:square;stroke-width:1.5;"/>
    </g>
    <g id="line2d_29"/>
    <g id="text_20">
     <!-- 1.0 -->
     <g transform="translate(526.37894 70.406687)scale(0.1 -0.1)">
      <use xlink:href="#DejaVuSans-31"/>
      <use x="63.623047" xlink:href="#DejaVuSans-2e"/>
      <use x="95.410156" xlink:href="#DejaVuSans-30"/>
     </g>
    </g>
    <g id="line2d_30">
     <path d="M 498.37894 81.584812 
L 518.37894 81.584812 
" style="fill:none;stroke:#2d1e3e;stroke-linecap:square;stroke-width:1.5;"/>
    </g>
    <g id="line2d_31"/>
    <g id="text_21">
     <!-- 5.0 -->
     <g transform="translate(526.37894 85.084812)scale(0.1 -0.1)">
      <use xlink:href="#DejaVuSans-35"/>
      <use x="63.623047" xlink:href="#DejaVuSans-2e"/>
      <use x="95.410156" xlink:href="#DejaVuSans-30"/>
     </g>
    </g>
    <g id="text_22">
     <!-- Subset -->
     <g transform="translate(526.37894 99.762937)scale(0.1 -0.1)">
      <use xlink:href="#DejaVuSans-53"/>
      <use x="63.476562" xlink:href="#DejaVuSans-75"/>
      <use x="126.855469" xlink:href="#DejaVuSans-62"/>
      <use x="190.332031" xlink:href="#DejaVuSans-73"/>
      <use x="242.431641" xlink:href="#DejaVuSans-65"/>
      <use x="303.955078" xlink:href="#DejaVuSans-74"/>
     </g>
    </g>
    <g id="line2d_32">
     <path d="M 498.37894 110.941062 
L 518.37894 110.941062 
" style="fill:none;stroke:#333333;stroke-linecap:square;stroke-width:1.5;"/>
    </g>
    <g id="line2d_33"/>
    <g id="text_23">
     <!-- Train -->
     <g transform="translate(526.37894 114.441062)scale(0.1 -0.1)">
      <defs>
       <path d="M -19 4666 
L 3928 4666 
L 3928 4134 
L 2272 4134 
L 2272 0 
L 1638 0 
L 1638 4134 
L -19 4134 
L -19 4666 
z
" id="DejaVuSans-54" transform="scale(0.015625)"/>
      </defs>
      <use xlink:href="#DejaVuSans-54"/>
      <use x="46.333984" xlink:href="#DejaVuSans-72"/>
      <use x="87.447266" xlink:href="#DejaVuSans-61"/>
      <use x="148.726562" xlink:href="#DejaVuSans-69"/>
      <use x="176.509766" xlink:href="#DejaVuSans-6e"/>
     </g>
    </g>
    <g id="line2d_34">
     <path d="M 498.37894 125.619187 
L 518.37894 125.619187 
" style="fill:none;stroke:#333333;stroke-dasharray:6,2.25;stroke-dashoffset:0;stroke-width:1.5;"/>
    </g>
    <g id="line2d_35"/>
    <g id="text_24">
     <!-- Test -->
     <g transform="translate(526.37894 129.119187)scale(0.1 -0.1)">
      <use xlink:href="#DejaVuSans-54"/>
      <use x="44.083984" xlink:href="#DejaVuSans-65"/>
      <use x="105.607422" xlink:href="#DejaVuSans-73"/>
      <use x="157.707031" xlink:href="#DejaVuSans-74"/>
     </g>
    </g>
   </g>
  </g>
 </g>
 <defs>
  <clipPath id="pd429a7b306">
   <rect height="217.4" width="411.597" x="69.55" y="28.8"/>
  </clipPath>
 </defs>
</svg>
