<?xml version="1.0" encoding="utf-8" standalone="no"?>
<!DOCTYPE svg PUBLIC "-//W3C//DTD SVG 1.1//EN"
  "http://www.w3.org/Graphics/SVG/1.1/DTD/svg11.dtd">
<svg height="288pt" version="1.1" viewBox="0 0 432 288" width="432pt" xmlns="http://www.w3.org/2000/svg" xmlns:xlink="http://www.w3.org/1999/xlink">
 <metadata>
  <rdf:RDF xmlns:cc="http://creativecommons.org/ns#" xmlns:dc="http://purl.org/dc/elements/1.1/" xmlns:rdf="http://www.w3.org/1999/02/22-rdf-syntax-ns#">
   <cc:Work>
    <dc:type rdf:resource="http://purl.org/dc/dcmitype/StillImage"/>
    <dc:date>2021-04-18T15:06:26.928102</dc:date>
    <dc:format>image/svg+xml</dc:format>
    <dc:creator>
     <cc:Agent>
      <dc:title>Matplotlib v3.4.1, https://matplotlib.org/</dc:title>
     </cc:Agent>
    </dc:creator>
   </cc:Work>
  </rdf:RDF>
 </metadata>
 <defs>
  <style type="text/css">*{stroke-linecap:butt;stroke-linejoin:round;}</style>
 </defs>
 <g id="figure_1">
  <g id="patch_1">
   <path d="M 0 288 
L 432 288 
L 432 0 
L 0 0 
z
" style="fill:none;"/>
  </g>
  <g id="axes_1">
   <g id="patch_2">
    <path d="M 54 252 
L 388.8 252 
L 388.8 34.56 
L 54 34.56 
z
" style="fill:#ffffff;"/>
   </g>
   <g id="matplotlib.axis_1">
    <g id="xtick_1">
     <g id="line2d_1">
      <defs>
       <path d="M 0 0 
L 0 3.5 
" id="ma998469cf7" style="stroke:#000000;stroke-width:0.8;"/>
      </defs>
      <g>
       <use style="stroke:#000000;stroke-width:0.8;" x="66.812145" xlink:href="#ma998469cf7" y="252"/>
      </g>
     </g>
     <g id="text_1">
      <!-- 0 -->
      <g transform="translate(63.630895 266.598437)scale(0.1 -0.1)">
       <defs>
        <path d="M 2034 4250 
Q 1547 4250 1301 3770 
Q 1056 3291 1056 2328 
Q 1056 1369 1301 889 
Q 1547 409 2034 409 
Q 2525 409 2770 889 
Q 3016 1369 3016 2328 
Q 3016 3291 2770 3770 
Q 2525 4250 2034 4250 
z
M 2034 4750 
Q 2819 4750 3233 4129 
Q 3647 3509 3647 2328 
Q 3647 1150 3233 529 
Q 2819 -91 2034 -91 
Q 1250 -91 836 529 
Q 422 1150 422 2328 
Q 422 3509 836 4129 
Q 1250 4750 2034 4750 
z
" id="DejaVuSans-30" transform="scale(0.015625)"/>
       </defs>
       <use xlink:href="#DejaVuSans-30"/>
      </g>
     </g>
    </g>
    <g id="xtick_2">
     <g id="line2d_2">
      <g>
       <use style="stroke:#000000;stroke-width:0.8;" x="126.963061" xlink:href="#ma998469cf7" y="252"/>
      </g>
     </g>
     <g id="text_2">
      <!-- 50 -->
      <g transform="translate(120.600561 266.598437)scale(0.1 -0.1)">
       <defs>
        <path d="M 691 4666 
L 3169 4666 
L 3169 4134 
L 1269 4134 
L 1269 2991 
Q 1406 3038 1543 3061 
Q 1681 3084 1819 3084 
Q 2600 3084 3056 2656 
Q 3513 2228 3513 1497 
Q 3513 744 3044 326 
Q 2575 -91 1722 -91 
Q 1428 -91 1123 -41 
Q 819 9 494 109 
L 494 744 
Q 775 591 1075 516 
Q 1375 441 1709 441 
Q 2250 441 2565 725 
Q 2881 1009 2881 1497 
Q 2881 1984 2565 2268 
Q 2250 2553 1709 2553 
Q 1456 2553 1204 2497 
Q 953 2441 691 2322 
L 691 4666 
z
" id="DejaVuSans-35" transform="scale(0.015625)"/>
       </defs>
       <use xlink:href="#DejaVuSans-35"/>
       <use x="63.623047" xlink:href="#DejaVuSans-30"/>
      </g>
     </g>
    </g>
    <g id="xtick_3">
     <g id="line2d_3">
      <g>
       <use style="stroke:#000000;stroke-width:0.8;" x="187.113978" xlink:href="#ma998469cf7" y="252"/>
      </g>
     </g>
     <g id="text_3">
      <!-- 100 -->
      <g transform="translate(177.570228 266.598437)scale(0.1 -0.1)">
       <defs>
        <path d="M 794 531 
L 1825 531 
L 1825 4091 
L 703 3866 
L 703 4441 
L 1819 4666 
L 2450 4666 
L 2450 531 
L 3481 531 
L 3481 0 
L 794 0 
L 794 531 
z
" id="DejaVuSans-31" transform="scale(0.015625)"/>
       </defs>
       <use xlink:href="#DejaVuSans-31"/>
       <use x="63.623047" xlink:href="#DejaVuSans-30"/>
       <use x="127.246094" xlink:href="#DejaVuSans-30"/>
      </g>
     </g>
    </g>
    <g id="xtick_4">
     <g id="line2d_4">
      <g>
       <use style="stroke:#000000;stroke-width:0.8;" x="247.264894" xlink:href="#ma998469cf7" y="252"/>
      </g>
     </g>
     <g id="text_4">
      <!-- 150 -->
      <g transform="translate(237.721144 266.598437)scale(0.1 -0.1)">
       <use xlink:href="#DejaVuSans-31"/>
       <use x="63.623047" xlink:href="#DejaVuSans-35"/>
       <use x="127.246094" xlink:href="#DejaVuSans-30"/>
      </g>
     </g>
    </g>
    <g id="xtick_5">
     <g id="line2d_5">
      <g>
       <use style="stroke:#000000;stroke-width:0.8;" x="307.41581" xlink:href="#ma998469cf7" y="252"/>
      </g>
     </g>
     <g id="text_5">
      <!-- 200 -->
      <g transform="translate(297.87206 266.598437)scale(0.1 -0.1)">
       <defs>
        <path d="M 1228 531 
L 3431 531 
L 3431 0 
L 469 0 
L 469 531 
Q 828 903 1448 1529 
Q 2069 2156 2228 2338 
Q 2531 2678 2651 2914 
Q 2772 3150 2772 3378 
Q 2772 3750 2511 3984 
Q 2250 4219 1831 4219 
Q 1534 4219 1204 4116 
Q 875 4013 500 3803 
L 500 4441 
Q 881 4594 1212 4672 
Q 1544 4750 1819 4750 
Q 2544 4750 2975 4387 
Q 3406 4025 3406 3419 
Q 3406 3131 3298 2873 
Q 3191 2616 2906 2266 
Q 2828 2175 2409 1742 
Q 1991 1309 1228 531 
z
" id="DejaVuSans-32" transform="scale(0.015625)"/>
       </defs>
       <use xlink:href="#DejaVuSans-32"/>
       <use x="63.623047" xlink:href="#DejaVuSans-30"/>
       <use x="127.246094" xlink:href="#DejaVuSans-30"/>
      </g>
     </g>
    </g>
    <g id="xtick_6">
     <g id="line2d_6">
      <g>
       <use style="stroke:#000000;stroke-width:0.8;" x="367.566727" xlink:href="#ma998469cf7" y="252"/>
      </g>
     </g>
     <g id="text_6">
      <!-- 250 -->
      <g transform="translate(358.022977 266.598437)scale(0.1 -0.1)">
       <use xlink:href="#DejaVuSans-32"/>
       <use x="63.623047" xlink:href="#DejaVuSans-35"/>
       <use x="127.246094" xlink:href="#DejaVuSans-30"/>
      </g>
     </g>
    </g>
    <g id="text_7">
     <!-- n -->
     <g transform="translate(218.23125 280.276563)scale(0.1 -0.1)">
      <defs>
       <path d="M 3513 2113 
L 3513 0 
L 2938 0 
L 2938 2094 
Q 2938 2591 2744 2837 
Q 2550 3084 2163 3084 
Q 1697 3084 1428 2787 
Q 1159 2491 1159 1978 
L 1159 0 
L 581 0 
L 581 3500 
L 1159 3500 
L 1159 2956 
Q 1366 3272 1645 3428 
Q 1925 3584 2291 3584 
Q 2894 3584 3203 3211 
Q 3513 2838 3513 2113 
z
" id="DejaVuSans-6e" transform="scale(0.015625)"/>
      </defs>
      <use xlink:href="#DejaVuSans-6e"/>
     </g>
    </g>
   </g>
   <g id="matplotlib.axis_2">
    <g id="ytick_1">
     <g id="line2d_7">
      <defs>
       <path d="M 0 0 
L -3.5 0 
" id="m0622d04fae" style="stroke:#000000;stroke-width:0.8;"/>
      </defs>
      <g>
       <use style="stroke:#000000;stroke-width:0.8;" x="54" xlink:href="#m0622d04fae" y="242.116364"/>
      </g>
     </g>
     <g id="text_8">
      <!-- 0 -->
      <g transform="translate(40.6375 245.915582)scale(0.1 -0.1)">
       <use xlink:href="#DejaVuSans-30"/>
      </g>
     </g>
    </g>
    <g id="ytick_2">
     <g id="line2d_8">
      <g>
       <use style="stroke:#000000;stroke-width:0.8;" x="54" xlink:href="#m0622d04fae" y="216.375233"/>
      </g>
     </g>
     <g id="text_9">
      <!-- 100000 -->
      <g transform="translate(8.825 220.174451)scale(0.1 -0.1)">
       <use xlink:href="#DejaVuSans-31"/>
       <use x="63.623047" xlink:href="#DejaVuSans-30"/>
       <use x="127.246094" xlink:href="#DejaVuSans-30"/>
       <use x="190.869141" xlink:href="#DejaVuSans-30"/>
       <use x="254.492188" xlink:href="#DejaVuSans-30"/>
       <use x="318.115234" xlink:href="#DejaVuSans-30"/>
      </g>
     </g>
    </g>
    <g id="ytick_3">
     <g id="line2d_9">
      <g>
       <use style="stroke:#000000;stroke-width:0.8;" x="54" xlink:href="#m0622d04fae" y="190.634102"/>
      </g>
     </g>
     <g id="text_10">
      <!-- 200000 -->
      <g transform="translate(8.825 194.43332)scale(0.1 -0.1)">
       <use xlink:href="#DejaVuSans-32"/>
       <use x="63.623047" xlink:href="#DejaVuSans-30"/>
       <use x="127.246094" xlink:href="#DejaVuSans-30"/>
       <use x="190.869141" xlink:href="#DejaVuSans-30"/>
       <use x="254.492188" xlink:href="#DejaVuSans-30"/>
       <use x="318.115234" xlink:href="#DejaVuSans-30"/>
      </g>
     </g>
    </g>
    <g id="ytick_4">
     <g id="line2d_10">
      <g>
       <use style="stroke:#000000;stroke-width:0.8;" x="54" xlink:href="#m0622d04fae" y="164.89297"/>
      </g>
     </g>
     <g id="text_11">
      <!-- 300000 -->
      <g transform="translate(8.825 168.692189)scale(0.1 -0.1)">
       <defs>
        <path d="M 2597 2516 
Q 3050 2419 3304 2112 
Q 3559 1806 3559 1356 
Q 3559 666 3084 287 
Q 2609 -91 1734 -91 
Q 1441 -91 1130 -33 
Q 819 25 488 141 
L 488 750 
Q 750 597 1062 519 
Q 1375 441 1716 441 
Q 2309 441 2620 675 
Q 2931 909 2931 1356 
Q 2931 1769 2642 2001 
Q 2353 2234 1838 2234 
L 1294 2234 
L 1294 2753 
L 1863 2753 
Q 2328 2753 2575 2939 
Q 2822 3125 2822 3475 
Q 2822 3834 2567 4026 
Q 2313 4219 1838 4219 
Q 1578 4219 1281 4162 
Q 984 4106 628 3988 
L 628 4550 
Q 988 4650 1302 4700 
Q 1616 4750 1894 4750 
Q 2613 4750 3031 4423 
Q 3450 4097 3450 3541 
Q 3450 3153 3228 2886 
Q 3006 2619 2597 2516 
z
" id="DejaVuSans-33" transform="scale(0.015625)"/>
       </defs>
       <use xlink:href="#DejaVuSans-33"/>
       <use x="63.623047" xlink:href="#DejaVuSans-30"/>
       <use x="127.246094" xlink:href="#DejaVuSans-30"/>
       <use x="190.869141" xlink:href="#DejaVuSans-30"/>
       <use x="254.492188" xlink:href="#DejaVuSans-30"/>
       <use x="318.115234" xlink:href="#DejaVuSans-30"/>
      </g>
     </g>
    </g>
    <g id="ytick_5">
     <g id="line2d_11">
      <g>
       <use style="stroke:#000000;stroke-width:0.8;" x="54" xlink:href="#m0622d04fae" y="139.151839"/>
      </g>
     </g>
     <g id="text_12">
      <!-- 400000 -->
      <g transform="translate(8.825 142.951058)scale(0.1 -0.1)">
       <defs>
        <path d="M 2419 4116 
L 825 1625 
L 2419 1625 
L 2419 4116 
z
M 2253 4666 
L 3047 4666 
L 3047 1625 
L 3713 1625 
L 3713 1100 
L 3047 1100 
L 3047 0 
L 2419 0 
L 2419 1100 
L 313 1100 
L 313 1709 
L 2253 4666 
z
" id="DejaVuSans-34" transform="scale(0.015625)"/>
       </defs>
       <use xlink:href="#DejaVuSans-34"/>
       <use x="63.623047" xlink:href="#DejaVuSans-30"/>
       <use x="127.246094" xlink:href="#DejaVuSans-30"/>
       <use x="190.869141" xlink:href="#DejaVuSans-30"/>
       <use x="254.492188" xlink:href="#DejaVuSans-30"/>
       <use x="318.115234" xlink:href="#DejaVuSans-30"/>
      </g>
     </g>
    </g>
    <g id="ytick_6">
     <g id="line2d_12">
      <g>
       <use style="stroke:#000000;stroke-width:0.8;" x="54" xlink:href="#m0622d04fae" y="113.410708"/>
      </g>
     </g>
     <g id="text_13">
      <!-- 500000 -->
      <g transform="translate(8.825 117.209927)scale(0.1 -0.1)">
       <use xlink:href="#DejaVuSans-35"/>
       <use x="63.623047" xlink:href="#DejaVuSans-30"/>
       <use x="127.246094" xlink:href="#DejaVuSans-30"/>
       <use x="190.869141" xlink:href="#DejaVuSans-30"/>
       <use x="254.492188" xlink:href="#DejaVuSans-30"/>
       <use x="318.115234" xlink:href="#DejaVuSans-30"/>
      </g>
     </g>
    </g>
    <g id="ytick_7">
     <g id="line2d_13">
      <g>
       <use style="stroke:#000000;stroke-width:0.8;" x="54" xlink:href="#m0622d04fae" y="87.669577"/>
      </g>
     </g>
     <g id="text_14">
      <!-- 600000 -->
      <g transform="translate(8.825 91.468796)scale(0.1 -0.1)">
       <defs>
        <path d="M 2113 2584 
Q 1688 2584 1439 2293 
Q 1191 2003 1191 1497 
Q 1191 994 1439 701 
Q 1688 409 2113 409 
Q 2538 409 2786 701 
Q 3034 994 3034 1497 
Q 3034 2003 2786 2293 
Q 2538 2584 2113 2584 
z
M 3366 4563 
L 3366 3988 
Q 3128 4100 2886 4159 
Q 2644 4219 2406 4219 
Q 1781 4219 1451 3797 
Q 1122 3375 1075 2522 
Q 1259 2794 1537 2939 
Q 1816 3084 2150 3084 
Q 2853 3084 3261 2657 
Q 3669 2231 3669 1497 
Q 3669 778 3244 343 
Q 2819 -91 2113 -91 
Q 1303 -91 875 529 
Q 447 1150 447 2328 
Q 447 3434 972 4092 
Q 1497 4750 2381 4750 
Q 2619 4750 2861 4703 
Q 3103 4656 3366 4563 
z
" id="DejaVuSans-36" transform="scale(0.015625)"/>
       </defs>
       <use xlink:href="#DejaVuSans-36"/>
       <use x="63.623047" xlink:href="#DejaVuSans-30"/>
       <use x="127.246094" xlink:href="#DejaVuSans-30"/>
       <use x="190.869141" xlink:href="#DejaVuSans-30"/>
       <use x="254.492188" xlink:href="#DejaVuSans-30"/>
       <use x="318.115234" xlink:href="#DejaVuSans-30"/>
      </g>
     </g>
    </g>
    <g id="ytick_8">
     <g id="line2d_14">
      <g>
       <use style="stroke:#000000;stroke-width:0.8;" x="54" xlink:href="#m0622d04fae" y="61.928446"/>
      </g>
     </g>
     <g id="text_15">
      <!-- 700000 -->
      <g transform="translate(8.825 65.727665)scale(0.1 -0.1)">
       <defs>
        <path d="M 525 4666 
L 3525 4666 
L 3525 4397 
L 1831 0 
L 1172 0 
L 2766 4134 
L 525 4134 
L 525 4666 
z
" id="DejaVuSans-37" transform="scale(0.015625)"/>
       </defs>
       <use xlink:href="#DejaVuSans-37"/>
       <use x="63.623047" xlink:href="#DejaVuSans-30"/>
       <use x="127.246094" xlink:href="#DejaVuSans-30"/>
       <use x="190.869141" xlink:href="#DejaVuSans-30"/>
       <use x="254.492188" xlink:href="#DejaVuSans-30"/>
       <use x="318.115234" xlink:href="#DejaVuSans-30"/>
      </g>
     </g>
    </g>
    <g id="ytick_9">
     <g id="line2d_15">
      <g>
       <use style="stroke:#000000;stroke-width:0.8;" x="54" xlink:href="#m0622d04fae" y="36.187315"/>
      </g>
     </g>
     <g id="text_16">
      <!-- 800000 -->
      <g transform="translate(8.825 39.986534)scale(0.1 -0.1)">
       <defs>
        <path d="M 2034 2216 
Q 1584 2216 1326 1975 
Q 1069 1734 1069 1313 
Q 1069 891 1326 650 
Q 1584 409 2034 409 
Q 2484 409 2743 651 
Q 3003 894 3003 1313 
Q 3003 1734 2745 1975 
Q 2488 2216 2034 2216 
z
M 1403 2484 
Q 997 2584 770 2862 
Q 544 3141 544 3541 
Q 544 4100 942 4425 
Q 1341 4750 2034 4750 
Q 2731 4750 3128 4425 
Q 3525 4100 3525 3541 
Q 3525 3141 3298 2862 
Q 3072 2584 2669 2484 
Q 3125 2378 3379 2068 
Q 3634 1759 3634 1313 
Q 3634 634 3220 271 
Q 2806 -91 2034 -91 
Q 1263 -91 848 271 
Q 434 634 434 1313 
Q 434 1759 690 2068 
Q 947 2378 1403 2484 
z
M 1172 3481 
Q 1172 3119 1398 2916 
Q 1625 2713 2034 2713 
Q 2441 2713 2670 2916 
Q 2900 3119 2900 3481 
Q 2900 3844 2670 4047 
Q 2441 4250 2034 4250 
Q 1625 4250 1398 4047 
Q 1172 3844 1172 3481 
z
" id="DejaVuSans-38" transform="scale(0.015625)"/>
       </defs>
       <use xlink:href="#DejaVuSans-38"/>
       <use x="63.623047" xlink:href="#DejaVuSans-30"/>
       <use x="127.246094" xlink:href="#DejaVuSans-30"/>
       <use x="190.869141" xlink:href="#DejaVuSans-30"/>
       <use x="254.492188" xlink:href="#DejaVuSans-30"/>
       <use x="318.115234" xlink:href="#DejaVuSans-30"/>
      </g>
     </g>
    </g>
    <g id="text_17">
     <!-- MSE loss -->
     <g transform="translate(2.745312 165.174531)rotate(-90)scale(0.1 -0.1)">
      <defs>
       <path d="M 628 4666 
L 1569 4666 
L 2759 1491 
L 3956 4666 
L 4897 4666 
L 4897 0 
L 4281 0 
L 4281 4097 
L 3078 897 
L 2444 897 
L 1241 4097 
L 1241 0 
L 628 0 
L 628 4666 
z
" id="DejaVuSans-4d" transform="scale(0.015625)"/>
       <path d="M 3425 4513 
L 3425 3897 
Q 3066 4069 2747 4153 
Q 2428 4238 2131 4238 
Q 1616 4238 1336 4038 
Q 1056 3838 1056 3469 
Q 1056 3159 1242 3001 
Q 1428 2844 1947 2747 
L 2328 2669 
Q 3034 2534 3370 2195 
Q 3706 1856 3706 1288 
Q 3706 609 3251 259 
Q 2797 -91 1919 -91 
Q 1588 -91 1214 -16 
Q 841 59 441 206 
L 441 856 
Q 825 641 1194 531 
Q 1563 422 1919 422 
Q 2459 422 2753 634 
Q 3047 847 3047 1241 
Q 3047 1584 2836 1778 
Q 2625 1972 2144 2069 
L 1759 2144 
Q 1053 2284 737 2584 
Q 422 2884 422 3419 
Q 422 4038 858 4394 
Q 1294 4750 2059 4750 
Q 2388 4750 2728 4690 
Q 3069 4631 3425 4513 
z
" id="DejaVuSans-53" transform="scale(0.015625)"/>
       <path d="M 628 4666 
L 3578 4666 
L 3578 4134 
L 1259 4134 
L 1259 2753 
L 3481 2753 
L 3481 2222 
L 1259 2222 
L 1259 531 
L 3634 531 
L 3634 0 
L 628 0 
L 628 4666 
z
" id="DejaVuSans-45" transform="scale(0.015625)"/>
       <path id="DejaVuSans-20" transform="scale(0.015625)"/>
       <path d="M 603 4863 
L 1178 4863 
L 1178 0 
L 603 0 
L 603 4863 
z
" id="DejaVuSans-6c" transform="scale(0.015625)"/>
       <path d="M 1959 3097 
Q 1497 3097 1228 2736 
Q 959 2375 959 1747 
Q 959 1119 1226 758 
Q 1494 397 1959 397 
Q 2419 397 2687 759 
Q 2956 1122 2956 1747 
Q 2956 2369 2687 2733 
Q 2419 3097 1959 3097 
z
M 1959 3584 
Q 2709 3584 3137 3096 
Q 3566 2609 3566 1747 
Q 3566 888 3137 398 
Q 2709 -91 1959 -91 
Q 1206 -91 779 398 
Q 353 888 353 1747 
Q 353 2609 779 3096 
Q 1206 3584 1959 3584 
z
" id="DejaVuSans-6f" transform="scale(0.015625)"/>
       <path d="M 2834 3397 
L 2834 2853 
Q 2591 2978 2328 3040 
Q 2066 3103 1784 3103 
Q 1356 3103 1142 2972 
Q 928 2841 928 2578 
Q 928 2378 1081 2264 
Q 1234 2150 1697 2047 
L 1894 2003 
Q 2506 1872 2764 1633 
Q 3022 1394 3022 966 
Q 3022 478 2636 193 
Q 2250 -91 1575 -91 
Q 1294 -91 989 -36 
Q 684 19 347 128 
L 347 722 
Q 666 556 975 473 
Q 1284 391 1588 391 
Q 1994 391 2212 530 
Q 2431 669 2431 922 
Q 2431 1156 2273 1281 
Q 2116 1406 1581 1522 
L 1381 1569 
Q 847 1681 609 1914 
Q 372 2147 372 2553 
Q 372 3047 722 3315 
Q 1072 3584 1716 3584 
Q 2034 3584 2315 3537 
Q 2597 3491 2834 3397 
z
" id="DejaVuSans-73" transform="scale(0.015625)"/>
      </defs>
      <use xlink:href="#DejaVuSans-4d"/>
      <use x="86.279297" xlink:href="#DejaVuSans-53"/>
      <use x="149.755859" xlink:href="#DejaVuSans-45"/>
      <use x="212.939453" xlink:href="#DejaVuSans-20"/>
      <use x="244.726562" xlink:href="#DejaVuSans-6c"/>
      <use x="272.509766" xlink:href="#DejaVuSans-6f"/>
      <use x="333.691406" xlink:href="#DejaVuSans-73"/>
      <use x="385.791016" xlink:href="#DejaVuSans-73"/>
     </g>
    </g>
   </g>
   <g id="line2d_16">
    <path clip-path="url(#p0a870404a9)" d="M 69.218182 242.116364 
L 70.4212 241.124258 
L 71.624218 236.026995 
L 72.827237 233.826757 
L 74.030255 235.028204 
L 75.233273 203.330913 
L 76.436292 207.427492 
L 77.63931 201.550862 
L 78.842328 199.843103 
L 80.045347 193.014082 
L 81.248365 194.526045 
L 82.451383 195.090667 
L 83.654402 195.834564 
L 84.85742 197.920802 
L 86.060438 200.457413 
L 87.263457 195.842911 
L 88.466475 196.476582 
L 89.669493 197.435486 
L 90.872512 199.121493 
L 92.07553 198.883587 
L 94.481567 198.702641 
L 95.684585 197.000004 
L 96.887603 195.585237 
L 98.090622 197.332337 
L 99.29364 198.758981 
L 100.496658 199.876517 
L 101.699677 201.195075 
L 102.902695 201.872012 
L 104.105713 201.317163 
L 105.308732 202.024385 
L 106.51175 203.140975 
L 107.714768 202.800399 
L 108.917787 203.668199 
L 110.120805 204.258172 
L 111.323823 205.189645 
L 112.526842 202.962501 
L 113.72986 203.785979 
L 114.932878 198.609994 
L 116.135897 198.45721 
L 117.338915 198.480826 
L 118.541933 199.368572 
L 119.744951 199.51464 
L 120.94797 199.338669 
L 122.150988 199.683803 
L 123.354006 200.238151 
L 124.557025 196.923338 
L 125.760043 197.29585 
L 128.16608 198.844255 
L 131.775135 200.692906 
L 132.978153 199.401683 
L 134.181171 200.146327 
L 135.38419 195.237098 
L 136.587208 195.255565 
L 140.196263 197.121195 
L 141.399281 196.206647 
L 142.6023 196.61445 
L 143.805318 194.182294 
L 145.008336 193.804108 
L 146.211355 194.533076 
L 147.414373 193.21367 
L 148.617391 193.869308 
L 149.82041 192.697469 
L 153.429465 194.572041 
L 154.632483 194.99448 
L 155.835501 195.580356 
L 157.03852 195.118393 
L 158.241538 195.164959 
L 160.647575 196.29585 
L 163.053611 196.935223 
L 164.25663 196.503533 
L 165.459648 196.493526 
L 166.662666 196.919324 
L 167.865685 196.980383 
L 178.692849 201.013527 
L 179.895868 200.987969 
L 182.301904 201.089922 
L 184.707941 201.655959 
L 185.910959 200.745313 
L 189.520014 201.866297 
L 190.723033 201.75417 
L 193.129069 202.022434 
L 194.332088 202.077832 
L 195.535106 202.432916 
L 197.941143 202.236406 
L 199.144161 202.585558 
L 200.347179 202.394417 
L 201.550198 201.462005 
L 205.159253 202.475336 
L 206.362271 202.566245 
L 207.565289 202.477726 
L 208.768308 201.16954 
L 209.971326 200.335227 
L 211.174344 200.657915 
L 212.377363 200.549531 
L 215.986418 201.265332 
L 217.189436 199.963142 
L 218.392454 199.948714 
L 219.595473 198.514043 
L 222.001509 198.58261 
L 224.407546 199.040259 
L 225.610564 198.110736 
L 231.625656 199.378507 
L 234.031692 199.257684 
L 237.640747 200.096569 
L 238.843766 200.163404 
L 240.046784 200.427134 
L 241.249802 199.76943 
L 243.655839 200.051699 
L 246.061876 199.911282 
L 247.264894 198.917927 
L 248.467912 198.934692 
L 249.670931 199.101196 
L 250.873949 199.381438 
L 252.076967 199.510668 
L 253.279986 199.145803 
L 254.483004 197.39976 
L 261.701114 198.878126 
L 262.904132 199.013307 
L 264.107151 198.734997 
L 265.310169 198.71963 
L 268.919224 199.446578 
L 270.122242 199.321984 
L 273.731297 199.994579 
L 276.137334 199.152173 
L 279.746389 199.83526 
L 280.949407 199.856507 
L 282.152425 200.033697 
L 283.355444 199.685478 
L 284.558462 199.72309 
L 285.76148 199.954103 
L 286.964499 199.945984 
L 288.167517 200.129436 
L 289.370535 200.19789 
L 292.97959 200.768086 
L 294.182609 199.395295 
L 295.385627 199.477941 
L 298.994682 200.024265 
L 300.1977 200.224008 
L 302.603737 199.92991 
L 305.009774 199.985398 
L 306.212792 199.752094 
L 307.41581 199.898915 
L 308.618829 199.933218 
L 309.821847 199.730115 
L 313.430902 200.287451 
L 314.63392 200.433444 
L 315.836939 200.170261 
L 317.039957 200.252038 
L 320.649012 200.829538 
L 321.85203 200.772889 
L 323.055049 200.94093 
L 324.258067 200.977795 
L 325.461085 200.489238 
L 326.664103 200.388029 
L 327.867122 199.632397 
L 329.07014 199.58002 
L 330.273158 199.345864 
L 331.476177 199.540212 
L 332.679195 199.493279 
L 335.085232 199.699713 
L 336.28825 199.481274 
L 339.897305 199.834173 
L 345.912397 200.445123 
L 348.318433 200.781069 
L 349.521452 200.63158 
L 351.927488 200.889922 
L 354.333525 201.231659 
L 356.739562 201.162059 
L 357.94258 200.594 
L 360.348617 200.908574 
L 361.551635 200.818922 
L 366.363708 201.44071 
L 367.566727 201.276322 
L 368.769745 200.63111 
L 369.972763 200.449709 
L 371.175782 200.545445 
L 372.3788 200.188937 
L 373.581818 200.351669 
L 373.581818 200.351669 
" style="fill:none;stroke:#edd1cb;stroke-linecap:square;stroke-width:1.5;"/>
   </g>
   <g id="line2d_17">
    <path clip-path="url(#p0a870404a9)" d="M 69.218182 139.939724 
L 70.4212 44.443636 
L 72.827237 129.989437 
L 74.030255 132.238255 
L 75.233273 193.00234 
L 76.436292 189.996929 
L 77.63931 206.945904 
L 78.842328 208.101489 
L 80.045347 204.148576 
L 81.248365 207.44568 
L 82.451383 205.750888 
L 83.654402 207.200253 
L 84.85742 206.261682 
L 86.060438 206.72871 
L 87.263457 201.206786 
L 88.466475 201.57303 
L 89.669493 203.199348 
L 90.872512 203.719838 
L 92.07553 206.899414 
L 93.278548 206.221375 
L 94.481567 207.144632 
L 95.684585 203.906942 
L 96.887603 206.713903 
L 98.090622 206.885591 
L 99.29364 206.569295 
L 100.496658 207.073718 
L 101.699677 207.292544 
L 102.902695 207.654159 
L 104.105713 208.425047 
L 105.308732 208.665996 
L 106.51175 208.504062 
L 107.714768 208.732253 
L 108.917787 208.500796 
L 110.120805 208.775958 
L 111.323823 208.732715 
L 112.526842 208.033017 
L 113.72986 207.804001 
L 114.932878 206.987173 
L 116.135897 207.478925 
L 117.338915 206.943194 
L 118.541933 206.726351 
L 119.744951 207.253852 
L 120.94797 206.600298 
L 123.354006 207.314529 
L 124.557025 206.057919 
L 125.760043 205.713674 
L 130.572116 205.874958 
L 131.775135 206.107237 
L 132.978153 205.325152 
L 134.181171 205.371779 
L 135.38419 203.161304 
L 136.587208 203.892515 
L 137.790226 203.826509 
L 138.993245 204.014106 
L 140.196263 204.018072 
L 141.399281 204.756163 
L 142.6023 204.804853 
L 143.805318 205.930135 
L 145.008336 205.705817 
L 146.211355 205.694401 
L 147.414373 206.064898 
L 148.617391 206.006818 
L 149.82041 206.700762 
L 151.023428 206.703187 
L 152.226446 206.878221 
L 153.429465 206.786351 
L 157.03852 207.087887 
L 158.241538 206.781546 
L 160.647575 206.722902 
L 161.850593 206.828325 
L 163.053611 206.613685 
L 164.25663 207.137359 
L 167.865685 207.753973 
L 178.692849 207.8716 
L 181.098886 206.931112 
L 182.301904 207.221823 
L 184.707941 206.915211 
L 185.910959 207.483287 
L 187.113978 207.483768 
L 188.316996 207.3389 
L 191.926051 207.356164 
L 193.129069 207.220836 
L 194.332088 207.510077 
L 199.144161 207.68094 
L 200.347179 207.96082 
L 202.753216 208.086414 
L 206.362271 207.928268 
L 207.565289 208.190302 
L 208.768308 207.7505 
L 209.971326 208.154269 
L 211.174344 208.091363 
L 212.377363 208.243829 
L 214.783399 208.246189 
L 215.986418 208.05096 
L 220.798491 208.742214 
L 222.001509 208.630489 
L 225.610564 208.797896 
L 228.016601 208.901102 
L 231.625656 208.986707 
L 235.234711 209.10464 
L 240.046784 209.014433 
L 241.249802 208.68215 
L 242.452821 208.492187 
L 246.061876 208.697356 
L 248.467912 208.854887 
L 259.295077 208.813313 
L 262.904132 208.606579 
L 268.919224 208.7402 
L 271.325261 208.839241 
L 273.731297 208.880425 
L 276.137334 209.154079 
L 290.573554 209.22815 
L 292.97959 209.251675 
L 294.182609 209.41487 
L 297.791664 209.452791 
L 307.41581 209.49092 
L 317.039957 209.646844 
L 342.303342 209.716834 
L 348.318433 209.7288 
L 351.927488 209.65398 
L 356.739562 209.659411 
L 359.145598 209.544367 
L 366.363708 209.580885 
L 368.769745 209.598282 
L 371.175782 209.534896 
L 373.581818 209.582158 
L 373.581818 209.582158 
" style="fill:none;stroke:#edd1cb;stroke-dasharray:6,2.25;stroke-dashoffset:0;stroke-width:1.5;"/>
   </g>
   <g id="line2d_18">
    <path clip-path="url(#p0a870404a9)" d="M 69.218182 222.666036 
L 70.4212 137.584901 
L 71.624218 163.440303 
L 72.827237 156.813006 
L 74.030255 170.769286 
L 75.233273 166.705098 
L 76.436292 169.236681 
L 77.63931 177.335348 
L 78.842328 183.789934 
L 80.045347 182.875828 
L 81.248365 168.695634 
L 82.451383 172.084942 
L 83.654402 174.401181 
L 84.85742 178.677548 
L 86.060438 181.373416 
L 87.263457 158.656997 
L 88.466475 156.2332 
L 89.669493 159.714445 
L 90.872512 161.973021 
L 93.278548 168.904783 
L 94.481567 168.137371 
L 95.684585 155.230675 
L 96.887603 158.733412 
L 100.496658 167.009746 
L 101.699677 169.151149 
L 102.902695 171.582635 
L 104.105713 168.289051 
L 105.308732 170.584335 
L 106.51175 172.129858 
L 108.917787 175.869661 
L 110.120805 176.502345 
L 111.323823 177.647593 
L 112.526842 176.969361 
L 113.72986 178.63695 
L 114.932878 170.579114 
L 117.338915 172.950664 
L 118.541933 174.541995 
L 119.744951 173.958416 
L 120.94797 175.40427 
L 122.150988 176.124983 
L 123.354006 176.1704 
L 124.557025 175.446192 
L 126.963061 176.598463 
L 128.16608 176.393454 
L 129.369098 177.638687 
L 130.572116 178.699498 
L 131.775135 179.548733 
L 132.978153 179.050952 
L 134.181171 180.171316 
L 135.38419 178.002826 
L 136.587208 177.59349 
L 137.790226 178.014101 
L 138.993245 178.750642 
L 140.196263 179.80471 
L 141.399281 178.825547 
L 142.6023 178.343478 
L 143.805318 175.106564 
L 145.008336 174.190799 
L 146.211355 175.031912 
L 147.414373 174.623743 
L 148.617391 175.391421 
L 149.82041 173.885799 
L 151.023428 174.826314 
L 152.226446 175.3576 
L 154.632483 177.086443 
L 155.835501 177.497945 
L 157.03852 177.516293 
L 158.241538 177.990972 
L 161.850593 180.018629 
L 163.053611 180.747828 
L 164.25663 179.873304 
L 165.459648 179.973189 
L 166.662666 180.26814 
L 167.865685 180.412112 
L 169.068703 181.144238 
L 170.271721 181.524418 
L 172.677758 182.821661 
L 175.083794 184.02199 
L 176.286813 184.313007 
L 179.895868 186.170894 
L 181.098886 186.808711 
L 182.301904 186.623897 
L 184.707941 187.689962 
L 185.910959 186.190443 
L 189.520014 187.697351 
L 191.926051 188.352229 
L 193.129069 188.662367 
L 194.332088 188.424498 
L 195.535106 188.606614 
L 196.738124 188.673274 
L 197.941143 188.888022 
L 199.144161 189.303752 
L 200.347179 188.863488 
L 201.550198 187.498011 
L 206.362271 189.140019 
L 207.565289 188.759268 
L 208.768308 188.045222 
L 209.971326 186.789616 
L 211.174344 187.257916 
L 212.377363 187.133591 
L 215.986418 188.436036 
L 217.189436 187.265409 
L 218.392454 186.948581 
L 219.595473 185.254598 
L 220.798491 185.162114 
L 223.204527 185.986005 
L 224.407546 186.286613 
L 225.610564 185.368603 
L 226.813582 185.365221 
L 229.219619 186.154538 
L 231.625656 186.520812 
L 234.031692 186.486843 
L 236.437729 187.196683 
L 237.640747 187.552191 
L 238.843766 187.742369 
L 240.046784 188.111454 
L 241.249802 188.05752 
L 242.452821 188.486186 
L 243.655839 188.663902 
L 246.061876 188.370312 
L 247.264894 186.979311 
L 248.467912 186.877846 
L 252.076967 187.737362 
L 253.279986 187.734489 
L 254.483004 185.350383 
L 259.295077 186.797333 
L 262.904132 187.798706 
L 264.107151 187.342019 
L 265.310169 187.35022 
L 268.919224 188.145491 
L 270.122242 188.006505 
L 272.528279 188.554712 
L 273.731297 188.785233 
L 276.137334 187.735047 
L 279.746389 188.627343 
L 280.949407 188.621734 
L 282.152425 188.942614 
L 283.355444 188.403359 
L 284.558462 188.571148 
L 285.76148 188.852836 
L 290.573554 189.514011 
L 292.97959 189.948499 
L 294.182609 188.385832 
L 295.385627 188.474084 
L 298.994682 189.264592 
L 300.1977 189.492858 
L 301.400719 189.504106 
L 302.603737 189.336674 
L 303.806755 189.474487 
L 305.009774 189.430157 
L 306.212792 189.087151 
L 308.618829 189.285563 
L 309.821847 189.053248 
L 314.63392 189.881454 
L 315.836939 189.740607 
L 317.039957 189.823415 
L 320.649012 190.58526 
L 321.85203 190.643769 
L 323.055049 190.828569 
L 324.258067 190.768868 
L 325.461085 190.29928 
L 326.664103 190.126876 
L 327.867122 189.597078 
L 329.07014 189.532555 
L 330.273158 189.180942 
L 332.679195 189.560435 
L 336.28825 189.809643 
L 337.491268 189.826164 
L 338.694287 190.034337 
L 341.100323 190.210147 
L 343.50636 190.478099 
L 345.912397 190.801173 
L 348.318433 191.23041 
L 349.521452 191.27334 
L 354.333525 192.086305 
L 355.536543 192.025583 
L 356.739562 192.095257 
L 357.94258 191.846853 
L 360.348617 192.280863 
L 361.551635 192.09751 
L 366.363708 192.836257 
L 367.566727 192.678667 
L 368.769745 191.988211 
L 369.972763 191.930227 
L 371.175782 192.14535 
L 372.3788 191.77875 
L 373.581818 191.971125 
L 373.581818 191.971125 
" style="fill:none;stroke:#daa4ac;stroke-linecap:square;stroke-width:1.5;"/>
   </g>
   <g id="line2d_19">
    <path clip-path="url(#p0a870404a9)" d="M 69.218182 130.330604 
L 70.4212 152.148488 
L 71.624218 153.536547 
L 72.827237 158.848327 
L 74.030255 158.731815 
L 75.233273 154.497626 
L 76.436292 149.821087 
L 77.63931 149.803095 
L 78.842328 149.516626 
L 80.045347 153.295571 
L 81.248365 160.134524 
L 82.451383 160.440117 
L 83.654402 160.037602 
L 84.85742 160.142084 
L 86.060438 159.891763 
L 87.263457 162.528737 
L 88.466475 163.639076 
L 89.669493 163.590978 
L 92.07553 164.554377 
L 93.278548 164.589064 
L 94.481567 164.495829 
L 95.684585 167.137161 
L 96.887603 167.252535 
L 102.902695 167.242128 
L 104.105713 168.850922 
L 105.308732 168.881852 
L 106.51175 169.503847 
L 107.714768 169.46005 
L 108.917787 169.534921 
L 110.120805 169.868606 
L 111.323823 169.975419 
L 112.526842 169.562857 
L 116.135897 169.802894 
L 117.338915 169.487085 
L 118.541933 169.642019 
L 119.744951 170.541501 
L 120.94797 170.44048 
L 122.150988 170.700094 
L 123.354006 171.370152 
L 124.557025 170.650877 
L 125.760043 170.507233 
L 126.963061 171.029798 
L 128.16608 171.333569 
L 130.572116 171.470392 
L 131.775135 171.751454 
L 132.978153 171.133936 
L 134.181171 171.093634 
L 135.38419 169.666279 
L 136.587208 170.610314 
L 137.790226 170.517335 
L 138.993245 170.999432 
L 140.196263 171.014803 
L 141.399281 171.760402 
L 142.6023 171.968259 
L 143.805318 173.328756 
L 146.211355 173.107354 
L 147.414373 173.342016 
L 148.617391 173.232603 
L 149.82041 174.145338 
L 151.023428 174.182601 
L 152.226446 174.690497 
L 153.429465 174.98093 
L 155.835501 175.099679 
L 157.03852 175.28655 
L 158.241538 175.024363 
L 160.647575 174.891808 
L 161.850593 174.965789 
L 163.053611 174.878898 
L 164.25663 175.738781 
L 165.459648 176.033207 
L 166.662666 176.533658 
L 167.865685 176.800962 
L 169.068703 176.802285 
L 170.271721 177.320314 
L 172.677758 177.254677 
L 176.286813 177.603726 
L 177.489831 177.863776 
L 178.692849 177.865774 
L 181.098886 178.227878 
L 182.301904 178.717686 
L 183.504923 178.78937 
L 184.707941 178.699808 
L 185.910959 179.604316 
L 188.316996 179.688938 
L 189.520014 179.901172 
L 190.723033 179.834363 
L 191.926051 179.93405 
L 193.129069 179.818578 
L 194.332088 180.446221 
L 195.535106 180.88783 
L 196.738124 180.997205 
L 197.941143 180.948317 
L 199.144161 181.084307 
L 200.347179 181.601863 
L 201.550198 181.907217 
L 203.956234 182.005267 
L 205.159253 182.033051 
L 206.362271 181.92422 
L 207.565289 182.529749 
L 208.768308 182.076842 
L 209.971326 182.801893 
L 213.580381 183.152343 
L 217.189436 183.394016 
L 220.798491 184.582836 
L 225.610564 184.765611 
L 226.813582 185.431241 
L 230.422637 185.606908 
L 232.828674 185.928977 
L 236.437729 186.088274 
L 237.640747 186.182217 
L 240.046784 186.125764 
L 241.249802 185.816894 
L 242.452821 186.013181 
L 243.655839 186.087238 
L 246.061876 186.483414 
L 247.264894 186.997441 
L 248.467912 187.22025 
L 250.873949 187.27573 
L 252.076967 187.261245 
L 253.279986 187.104651 
L 254.483004 187.851552 
L 258.092059 188.439179 
L 261.701114 188.536101 
L 262.904132 188.490381 
L 264.107151 188.735931 
L 271.325261 189.396622 
L 272.528279 189.729739 
L 273.731297 189.777523 
L 274.934315 190.170186 
L 276.137334 190.416723 
L 277.340352 190.450239 
L 280.949407 190.974215 
L 282.152425 191.02939 
L 283.355444 191.325099 
L 288.167517 191.289722 
L 290.573554 191.572787 
L 291.776572 191.584697 
L 292.97959 191.745057 
L 294.182609 192.172325 
L 297.791664 192.49971 
L 303.806755 192.457435 
L 306.212792 192.938701 
L 313.430902 193.853216 
L 317.039957 193.886042 
L 323.055049 194.03397 
L 324.258067 194.394382 
L 325.461085 194.450997 
L 326.664103 194.645113 
L 327.867122 194.432552 
L 329.07014 194.543433 
L 330.273158 194.853255 
L 331.476177 195.007978 
L 332.679195 194.934068 
L 333.882213 195.034587 
L 336.28825 194.872298 
L 337.491268 195.18247 
L 338.694287 195.16482 
L 341.100323 195.55816 
L 348.318433 195.98349 
L 350.72447 195.843458 
L 353.130507 195.95831 
L 355.536543 196.318511 
L 356.739562 196.244742 
L 357.94258 195.978871 
L 360.348617 196.052773 
L 361.551635 196.33798 
L 363.957672 196.493979 
L 365.16069 196.541825 
L 366.363708 196.791428 
L 368.769745 196.95993 
L 369.972763 196.844912 
L 373.581818 197.007939 
L 373.581818 197.007939 
" style="fill:none;stroke:#daa4ac;stroke-dasharray:6,2.25;stroke-dashoffset:0;stroke-width:1.5;"/>
   </g>
   <g id="line2d_20">
    <path clip-path="url(#p0a870404a9)" d="M 69.218182 222.631664 
L 70.4212 136.637999 
L 71.624218 162.74732 
L 72.827237 155.388195 
L 74.030255 169.580308 
L 75.233273 165.966959 
L 76.436292 168.3938 
L 77.63931 176.583638 
L 78.842328 183.130413 
L 80.045347 182.437244 
L 81.248365 166.850221 
L 82.451383 170.436239 
L 83.654402 172.865122 
L 84.85742 177.278081 
L 86.060438 179.950036 
L 87.263457 155.074228 
L 88.466475 152.163122 
L 89.669493 155.895661 
L 90.872512 157.642996 
L 92.07553 160.82614 
L 93.278548 164.476332 
L 94.481567 163.547483 
L 95.684585 147.881232 
L 96.887603 151.389975 
L 98.090622 154.283587 
L 99.29364 157.528832 
L 100.496658 159.860584 
L 101.699677 161.851758 
L 102.902695 164.395266 
L 104.105713 160.10268 
L 105.308732 162.494158 
L 106.51175 163.684949 
L 108.917787 167.989237 
L 110.120805 168.565624 
L 111.323823 169.671379 
L 112.526842 169.416988 
L 113.72986 171.21151 
L 114.932878 162.120902 
L 118.541933 166.841347 
L 119.744951 165.889584 
L 120.94797 167.581775 
L 122.150988 168.421353 
L 123.354006 168.131407 
L 124.557025 168.103268 
L 125.760043 168.727105 
L 126.963061 168.400936 
L 128.16608 167.296209 
L 129.369098 168.733745 
L 130.572116 169.450756 
L 131.775135 170.408884 
L 132.978153 170.238169 
L 134.181171 171.482947 
L 135.38419 170.287748 
L 136.587208 169.595232 
L 137.790226 169.765766 
L 138.993245 170.418972 
L 140.196263 171.433535 
L 141.399281 170.409255 
L 142.6023 169.097993 
L 143.805318 165.378198 
L 145.008336 164.079195 
L 146.211355 164.832829 
L 147.414373 164.850182 
L 148.617391 165.627621 
L 149.82041 163.904602 
L 151.023428 164.755247 
L 152.226446 165.133966 
L 153.429465 165.954751 
L 154.632483 166.989183 
L 155.835501 167.057727 
L 157.03852 167.337567 
L 160.647575 169.546564 
L 163.053611 171.236065 
L 164.25663 170.007362 
L 167.865685 170.445416 
L 169.068703 171.277048 
L 170.271721 171.381357 
L 172.677758 172.871038 
L 175.083794 174.203731 
L 176.286813 174.136866 
L 177.489831 174.638086 
L 179.895868 175.945045 
L 181.098886 176.525695 
L 182.301904 176.135169 
L 184.707941 177.402368 
L 185.910959 175.332906 
L 188.316996 176.519414 
L 189.520014 176.667767 
L 190.723033 177.27708 
L 193.129069 178.098802 
L 194.332088 177.459802 
L 195.535106 177.085192 
L 196.738124 177.259062 
L 199.144161 178.129945 
L 200.347179 177.380085 
L 201.550198 175.541869 
L 202.753216 176.000121 
L 205.159253 177.062937 
L 206.362271 177.527581 
L 207.565289 176.74073 
L 208.768308 176.466447 
L 209.971326 174.726615 
L 211.174344 175.161098 
L 212.377363 175.004473 
L 215.986418 176.48928 
L 217.189436 175.440866 
L 218.392454 174.640524 
L 219.595473 172.659136 
L 220.798491 172.406229 
L 223.204527 173.37947 
L 224.407546 173.791434 
L 225.610564 172.881131 
L 226.813582 172.157578 
L 229.219619 173.086125 
L 230.422637 173.249981 
L 231.625656 173.295545 
L 232.828674 173.224657 
L 234.031692 173.331616 
L 235.234711 173.569888 
L 236.437729 174.049219 
L 242.452821 175.81182 
L 243.655839 176.016941 
L 244.858857 175.806209 
L 246.061876 175.457982 
L 247.264894 173.491711 
L 248.467912 173.158267 
L 250.873949 173.967597 
L 253.279986 174.521743 
L 254.483004 171.198057 
L 255.686022 171.428732 
L 256.889041 171.465946 
L 259.295077 172.178924 
L 262.904132 173.428995 
L 264.107151 172.63909 
L 265.310169 172.670371 
L 267.716206 173.216022 
L 268.919224 173.261373 
L 270.122242 173.085623 
L 271.325261 173.41355 
L 272.528279 173.232385 
L 273.731297 173.533171 
L 274.934315 172.72943 
L 276.137334 172.099159 
L 277.340352 172.395868 
L 279.746389 172.750293 
L 280.949407 172.664276 
L 282.152425 173.00702 
L 283.355444 172.063719 
L 288.167517 173.329418 
L 289.370535 173.32297 
L 290.573554 173.516624 
L 291.776572 173.82628 
L 292.97959 173.879341 
L 294.182609 171.984447 
L 295.385627 172.056661 
L 297.791664 172.507712 
L 298.994682 172.870414 
L 301.400719 173.288979 
L 302.603737 173.104923 
L 303.806755 173.385438 
L 305.009774 173.125775 
L 306.212792 172.531255 
L 308.618829 172.67974 
L 309.821847 172.37871 
L 311.024865 172.251271 
L 312.227884 172.517294 
L 313.430902 172.514063 
L 314.63392 172.846958 
L 317.039957 172.940818 
L 321.85203 173.980928 
L 323.055049 174.139155 
L 326.664103 172.905137 
L 329.07014 172.590678 
L 330.273158 171.937111 
L 331.476177 172.035784 
L 332.679195 172.349189 
L 333.882213 172.423855 
L 335.085232 172.727911 
L 336.28825 172.897136 
L 337.491268 172.557468 
L 338.694287 172.860247 
L 339.897305 172.678432 
L 341.100323 172.657077 
L 342.303342 172.785264 
L 343.50636 172.742079 
L 353.130507 174.536488 
L 354.333525 174.50372 
L 355.536543 174.336438 
L 360.348617 175.182247 
L 361.551635 174.653482 
L 362.754653 174.887257 
L 363.957672 174.975935 
L 365.16069 175.200062 
L 367.566727 174.927982 
L 368.769745 174.124288 
L 371.175782 174.508586 
L 372.3788 174.111442 
L 373.581818 174.335821 
L 373.581818 174.335821 
" style="fill:none;stroke:#2d1e3e;stroke-linecap:square;stroke-width:1.5;"/>
   </g>
   <g id="line2d_21">
    <path clip-path="url(#p0a870404a9)" d="M 69.218182 130.023141 
L 70.4212 151.136898 
L 71.624218 152.497116 
L 72.827237 157.028833 
L 74.030255 156.882714 
L 75.233273 152.785716 
L 76.436292 147.726423 
L 78.842328 147.456547 
L 80.045347 151.581076 
L 81.248365 156.928639 
L 82.451383 157.343154 
L 83.654402 156.869024 
L 84.85742 157.022491 
L 86.060438 156.58848 
L 87.263457 157.602863 
L 88.466475 158.123549 
L 90.872512 157.882307 
L 92.07553 158.227811 
L 93.278548 158.208378 
L 94.481567 157.717534 
L 95.684585 158.977906 
L 98.090622 158.873191 
L 99.29364 158.855292 
L 102.902695 158.350878 
L 104.105713 159.275747 
L 105.308732 159.211278 
L 106.51175 159.538336 
L 108.917787 159.616578 
L 110.120805 159.771859 
L 111.323823 159.750641 
L 112.526842 159.505566 
L 113.72986 159.571713 
L 114.932878 158.933903 
L 116.135897 159.11181 
L 117.338915 158.897838 
L 118.541933 159.028735 
L 119.744951 159.585151 
L 120.94797 159.579259 
L 122.150988 159.779817 
L 123.354006 160.115414 
L 124.557025 159.821254 
L 130.572116 158.993795 
L 131.775135 159.241811 
L 132.978153 158.754818 
L 134.181171 158.675473 
L 135.38419 157.887326 
L 136.587208 158.574818 
L 137.790226 158.20656 
L 138.993245 158.579602 
L 140.196263 158.439514 
L 141.399281 159.063784 
L 142.6023 158.622089 
L 143.805318 159.617507 
L 145.008336 159.111989 
L 146.211355 158.876206 
L 147.414373 159.252223 
L 148.617391 159.034804 
L 149.82041 159.754649 
L 151.023428 159.612205 
L 152.226446 159.992754 
L 153.429465 160.227364 
L 154.632483 160.246562 
L 155.835501 160.021013 
L 157.03852 160.277625 
L 160.647575 159.81477 
L 161.850593 159.916908 
L 163.053611 159.884911 
L 164.25663 160.486036 
L 167.865685 161.321513 
L 169.068703 161.298143 
L 170.271721 161.624691 
L 172.677758 161.522982 
L 173.880776 161.612114 
L 176.286813 161.484059 
L 177.489831 161.678341 
L 178.692849 161.658273 
L 183.504923 162.440977 
L 184.707941 162.397291 
L 185.910959 162.904937 
L 188.316996 162.944913 
L 193.129069 162.963423 
L 194.332088 163.320012 
L 199.144161 163.618873 
L 200.347179 163.915051 
L 201.550198 163.878858 
L 203.956234 163.963282 
L 206.362271 163.884291 
L 207.565289 164.231806 
L 208.768308 164.015491 
L 209.971326 164.420455 
L 213.580381 164.674558 
L 217.189436 164.913474 
L 218.392454 165.033773 
L 220.798491 165.435348 
L 225.610564 165.582944 
L 226.813582 165.879634 
L 231.625656 166.035667 
L 235.234711 166.189694 
L 240.046784 166.240058 
L 241.249802 166.164705 
L 242.452821 166.339783 
L 246.061876 166.550582 
L 247.264894 166.7434 
L 250.873949 166.874464 
L 253.279986 166.822278 
L 255.686022 167.252213 
L 258.092059 167.427851 
L 271.325261 168.004646 
L 272.528279 168.161842 
L 273.731297 168.20444 
L 276.137334 168.630057 
L 277.340352 168.632786 
L 280.949407 169.010257 
L 285.76148 169.24953 
L 288.167517 169.231315 
L 290.573554 169.440133 
L 292.97959 169.535759 
L 294.182609 169.805939 
L 300.1977 170.104263 
L 303.806755 170.061287 
L 306.212792 170.330906 
L 314.63392 170.984832 
L 317.039957 171.037849 
L 323.055049 171.178826 
L 324.258067 171.43101 
L 329.07014 171.548046 
L 331.476177 171.876336 
L 336.28825 171.885629 
L 337.491268 172.095069 
L 338.694287 172.090203 
L 341.100323 172.369876 
L 354.333525 173.022079 
L 355.536543 173.130933 
L 360.348617 173.116756 
L 361.551635 173.30648 
L 363.957672 173.451872 
L 365.16069 173.516736 
L 366.363708 173.740982 
L 373.581818 173.96874 
L 373.581818 173.96874 
" style="fill:none;stroke:#2d1e3e;stroke-dasharray:6,2.25;stroke-dashoffset:0;stroke-width:1.5;"/>
   </g>
   <g id="line2d_22"/>
   <g id="line2d_23"/>
   <g id="line2d_24"/>
   <g id="line2d_25"/>
   <g id="line2d_26"/>
   <g id="patch_3">
    <path d="M 54 252 
L 54 34.56 
" style="fill:none;stroke:#000000;stroke-linecap:square;stroke-linejoin:miter;stroke-width:0.8;"/>
   </g>
   <g id="patch_4">
    <path d="M 388.8 252 
L 388.8 34.56 
" style="fill:none;stroke:#000000;stroke-linecap:square;stroke-linejoin:miter;stroke-width:0.8;"/>
   </g>
   <g id="patch_5">
    <path d="M 54 252 
L 388.8 252 
" style="fill:none;stroke:#000000;stroke-linecap:square;stroke-linejoin:miter;stroke-width:0.8;"/>
   </g>
   <g id="patch_6">
    <path d="M 54 34.56 
L 388.8 34.56 
" style="fill:none;stroke:#000000;stroke-linecap:square;stroke-linejoin:miter;stroke-width:0.8;"/>
   </g>
   <g id="text_18">
    <!-- Ridge Regression versus data subsets sizes $n$ -->
    <g transform="translate(84.66 28.56)scale(0.12 -0.12)">
     <defs>
      <path d="M 2841 2188 
Q 3044 2119 3236 1894 
Q 3428 1669 3622 1275 
L 4263 0 
L 3584 0 
L 2988 1197 
Q 2756 1666 2539 1819 
Q 2322 1972 1947 1972 
L 1259 1972 
L 1259 0 
L 628 0 
L 628 4666 
L 2053 4666 
Q 2853 4666 3247 4331 
Q 3641 3997 3641 3322 
Q 3641 2881 3436 2590 
Q 3231 2300 2841 2188 
z
M 1259 4147 
L 1259 2491 
L 2053 2491 
Q 2509 2491 2742 2702 
Q 2975 2913 2975 3322 
Q 2975 3731 2742 3939 
Q 2509 4147 2053 4147 
L 1259 4147 
z
" id="DejaVuSans-52" transform="scale(0.015625)"/>
      <path d="M 603 3500 
L 1178 3500 
L 1178 0 
L 603 0 
L 603 3500 
z
M 603 4863 
L 1178 4863 
L 1178 4134 
L 603 4134 
L 603 4863 
z
" id="DejaVuSans-69" transform="scale(0.015625)"/>
      <path d="M 2906 2969 
L 2906 4863 
L 3481 4863 
L 3481 0 
L 2906 0 
L 2906 525 
Q 2725 213 2448 61 
Q 2172 -91 1784 -91 
Q 1150 -91 751 415 
Q 353 922 353 1747 
Q 353 2572 751 3078 
Q 1150 3584 1784 3584 
Q 2172 3584 2448 3432 
Q 2725 3281 2906 2969 
z
M 947 1747 
Q 947 1113 1208 752 
Q 1469 391 1925 391 
Q 2381 391 2643 752 
Q 2906 1113 2906 1747 
Q 2906 2381 2643 2742 
Q 2381 3103 1925 3103 
Q 1469 3103 1208 2742 
Q 947 2381 947 1747 
z
" id="DejaVuSans-64" transform="scale(0.015625)"/>
      <path d="M 2906 1791 
Q 2906 2416 2648 2759 
Q 2391 3103 1925 3103 
Q 1463 3103 1205 2759 
Q 947 2416 947 1791 
Q 947 1169 1205 825 
Q 1463 481 1925 481 
Q 2391 481 2648 825 
Q 2906 1169 2906 1791 
z
M 3481 434 
Q 3481 -459 3084 -895 
Q 2688 -1331 1869 -1331 
Q 1566 -1331 1297 -1286 
Q 1028 -1241 775 -1147 
L 775 -588 
Q 1028 -725 1275 -790 
Q 1522 -856 1778 -856 
Q 2344 -856 2625 -561 
Q 2906 -266 2906 331 
L 2906 616 
Q 2728 306 2450 153 
Q 2172 0 1784 0 
Q 1141 0 747 490 
Q 353 981 353 1791 
Q 353 2603 747 3093 
Q 1141 3584 1784 3584 
Q 2172 3584 2450 3431 
Q 2728 3278 2906 2969 
L 2906 3500 
L 3481 3500 
L 3481 434 
z
" id="DejaVuSans-67" transform="scale(0.015625)"/>
      <path d="M 3597 1894 
L 3597 1613 
L 953 1613 
Q 991 1019 1311 708 
Q 1631 397 2203 397 
Q 2534 397 2845 478 
Q 3156 559 3463 722 
L 3463 178 
Q 3153 47 2828 -22 
Q 2503 -91 2169 -91 
Q 1331 -91 842 396 
Q 353 884 353 1716 
Q 353 2575 817 3079 
Q 1281 3584 2069 3584 
Q 2775 3584 3186 3129 
Q 3597 2675 3597 1894 
z
M 3022 2063 
Q 3016 2534 2758 2815 
Q 2500 3097 2075 3097 
Q 1594 3097 1305 2825 
Q 1016 2553 972 2059 
L 3022 2063 
z
" id="DejaVuSans-65" transform="scale(0.015625)"/>
      <path d="M 2631 2963 
Q 2534 3019 2420 3045 
Q 2306 3072 2169 3072 
Q 1681 3072 1420 2755 
Q 1159 2438 1159 1844 
L 1159 0 
L 581 0 
L 581 3500 
L 1159 3500 
L 1159 2956 
Q 1341 3275 1631 3429 
Q 1922 3584 2338 3584 
Q 2397 3584 2469 3576 
Q 2541 3569 2628 3553 
L 2631 2963 
z
" id="DejaVuSans-72" transform="scale(0.015625)"/>
      <path d="M 191 3500 
L 800 3500 
L 1894 563 
L 2988 3500 
L 3597 3500 
L 2284 0 
L 1503 0 
L 191 3500 
z
" id="DejaVuSans-76" transform="scale(0.015625)"/>
      <path d="M 544 1381 
L 544 3500 
L 1119 3500 
L 1119 1403 
Q 1119 906 1312 657 
Q 1506 409 1894 409 
Q 2359 409 2629 706 
Q 2900 1003 2900 1516 
L 2900 3500 
L 3475 3500 
L 3475 0 
L 2900 0 
L 2900 538 
Q 2691 219 2414 64 
Q 2138 -91 1772 -91 
Q 1169 -91 856 284 
Q 544 659 544 1381 
z
M 1991 3584 
L 1991 3584 
z
" id="DejaVuSans-75" transform="scale(0.015625)"/>
      <path d="M 2194 1759 
Q 1497 1759 1228 1600 
Q 959 1441 959 1056 
Q 959 750 1161 570 
Q 1363 391 1709 391 
Q 2188 391 2477 730 
Q 2766 1069 2766 1631 
L 2766 1759 
L 2194 1759 
z
M 3341 1997 
L 3341 0 
L 2766 0 
L 2766 531 
Q 2569 213 2275 61 
Q 1981 -91 1556 -91 
Q 1019 -91 701 211 
Q 384 513 384 1019 
Q 384 1609 779 1909 
Q 1175 2209 1959 2209 
L 2766 2209 
L 2766 2266 
Q 2766 2663 2505 2880 
Q 2244 3097 1772 3097 
Q 1472 3097 1187 3025 
Q 903 2953 641 2809 
L 641 3341 
Q 956 3463 1253 3523 
Q 1550 3584 1831 3584 
Q 2591 3584 2966 3190 
Q 3341 2797 3341 1997 
z
" id="DejaVuSans-61" transform="scale(0.015625)"/>
      <path d="M 1172 4494 
L 1172 3500 
L 2356 3500 
L 2356 3053 
L 1172 3053 
L 1172 1153 
Q 1172 725 1289 603 
Q 1406 481 1766 481 
L 2356 481 
L 2356 0 
L 1766 0 
Q 1100 0 847 248 
Q 594 497 594 1153 
L 594 3053 
L 172 3053 
L 172 3500 
L 594 3500 
L 594 4494 
L 1172 4494 
z
" id="DejaVuSans-74" transform="scale(0.015625)"/>
      <path d="M 3116 1747 
Q 3116 2381 2855 2742 
Q 2594 3103 2138 3103 
Q 1681 3103 1420 2742 
Q 1159 2381 1159 1747 
Q 1159 1113 1420 752 
Q 1681 391 2138 391 
Q 2594 391 2855 752 
Q 3116 1113 3116 1747 
z
M 1159 2969 
Q 1341 3281 1617 3432 
Q 1894 3584 2278 3584 
Q 2916 3584 3314 3078 
Q 3713 2572 3713 1747 
Q 3713 922 3314 415 
Q 2916 -91 2278 -91 
Q 1894 -91 1617 61 
Q 1341 213 1159 525 
L 1159 0 
L 581 0 
L 581 4863 
L 1159 4863 
L 1159 2969 
z
" id="DejaVuSans-62" transform="scale(0.015625)"/>
      <path d="M 353 3500 
L 3084 3500 
L 3084 2975 
L 922 459 
L 3084 459 
L 3084 0 
L 275 0 
L 275 525 
L 2438 3041 
L 353 3041 
L 353 3500 
z
" id="DejaVuSans-7a" transform="scale(0.015625)"/>
      <path d="M 3566 2113 
L 3156 0 
L 2578 0 
L 2988 2091 
Q 3016 2238 3031 2350 
Q 3047 2463 3047 2528 
Q 3047 2791 2881 2937 
Q 2716 3084 2419 3084 
Q 1956 3084 1622 2776 
Q 1288 2469 1184 1941 
L 800 0 
L 225 0 
L 903 3500 
L 1478 3500 
L 1363 2950 
Q 1603 3253 1940 3418 
Q 2278 3584 2650 3584 
Q 3113 3584 3367 3334 
Q 3622 3084 3622 2631 
Q 3622 2519 3608 2391 
Q 3594 2263 3566 2113 
z
" id="DejaVuSans-Oblique-6e" transform="scale(0.015625)"/>
     </defs>
     <use transform="translate(0 0.015625)" xlink:href="#DejaVuSans-52"/>
     <use transform="translate(69.482422 0.015625)" xlink:href="#DejaVuSans-69"/>
     <use transform="translate(97.265625 0.015625)" xlink:href="#DejaVuSans-64"/>
     <use transform="translate(160.742188 0.015625)" xlink:href="#DejaVuSans-67"/>
     <use transform="translate(224.21875 0.015625)" xlink:href="#DejaVuSans-65"/>
     <use transform="translate(285.742188 0.015625)" xlink:href="#DejaVuSans-20"/>
     <use transform="translate(317.529297 0.015625)" xlink:href="#DejaVuSans-52"/>
     <use transform="translate(387.011719 0.015625)" xlink:href="#DejaVuSans-65"/>
     <use transform="translate(448.535156 0.015625)" xlink:href="#DejaVuSans-67"/>
     <use transform="translate(512.011719 0.015625)" xlink:href="#DejaVuSans-72"/>
     <use transform="translate(553.125 0.015625)" xlink:href="#DejaVuSans-65"/>
     <use transform="translate(614.648438 0.015625)" xlink:href="#DejaVuSans-73"/>
     <use transform="translate(666.748047 0.015625)" xlink:href="#DejaVuSans-73"/>
     <use transform="translate(718.847656 0.015625)" xlink:href="#DejaVuSans-69"/>
     <use transform="translate(746.630859 0.015625)" xlink:href="#DejaVuSans-6f"/>
     <use transform="translate(807.8125 0.015625)" xlink:href="#DejaVuSans-6e"/>
     <use transform="translate(871.191406 0.015625)" xlink:href="#DejaVuSans-20"/>
     <use transform="translate(902.978516 0.015625)" xlink:href="#DejaVuSans-76"/>
     <use transform="translate(962.158203 0.015625)" xlink:href="#DejaVuSans-65"/>
     <use transform="translate(1023.681641 0.015625)" xlink:href="#DejaVuSans-72"/>
     <use transform="translate(1064.794922 0.015625)" xlink:href="#DejaVuSans-73"/>
     <use transform="translate(1116.894531 0.015625)" xlink:href="#DejaVuSans-75"/>
     <use transform="translate(1180.273438 0.015625)" xlink:href="#DejaVuSans-73"/>
     <use transform="translate(1232.373047 0.015625)" xlink:href="#DejaVuSans-20"/>
     <use transform="translate(1264.160156 0.015625)" xlink:href="#DejaVuSans-64"/>
     <use transform="translate(1327.636719 0.015625)" xlink:href="#DejaVuSans-61"/>
     <use transform="translate(1388.916016 0.015625)" xlink:href="#DejaVuSans-74"/>
     <use transform="translate(1428.125 0.015625)" xlink:href="#DejaVuSans-61"/>
     <use transform="translate(1489.404297 0.015625)" xlink:href="#DejaVuSans-20"/>
     <use transform="translate(1521.191406 0.015625)" xlink:href="#DejaVuSans-73"/>
     <use transform="translate(1573.291016 0.015625)" xlink:href="#DejaVuSans-75"/>
     <use transform="translate(1636.669922 0.015625)" xlink:href="#DejaVuSans-62"/>
     <use transform="translate(1700.146484 0.015625)" xlink:href="#DejaVuSans-73"/>
     <use transform="translate(1752.246094 0.015625)" xlink:href="#DejaVuSans-65"/>
     <use transform="translate(1813.769531 0.015625)" xlink:href="#DejaVuSans-74"/>
     <use transform="translate(1852.978516 0.015625)" xlink:href="#DejaVuSans-73"/>
     <use transform="translate(1905.078125 0.015625)" xlink:href="#DejaVuSans-20"/>
     <use transform="translate(1936.865234 0.015625)" xlink:href="#DejaVuSans-73"/>
     <use transform="translate(1988.964844 0.015625)" xlink:href="#DejaVuSans-69"/>
     <use transform="translate(2016.748047 0.015625)" xlink:href="#DejaVuSans-7a"/>
     <use transform="translate(2069.238281 0.015625)" xlink:href="#DejaVuSans-65"/>
     <use transform="translate(2130.761719 0.015625)" xlink:href="#DejaVuSans-73"/>
     <use transform="translate(2182.861328 0.015625)" xlink:href="#DejaVuSans-20"/>
     <use transform="translate(2214.648438 0.015625)" xlink:href="#DejaVuSans-Oblique-6e"/>
    </g>
   </g>
   <g id="legend_1">
    <g id="patch_7">
     <path d="M 402.496 140.958075 
L 468.813188 140.958075 
Q 470.813188 140.958075 470.813188 138.958075 
L 470.813188 37.2112 
Q 470.813188 35.2112 468.813188 35.2112 
L 402.496 35.2112 
Q 400.496 35.2112 400.496 37.2112 
L 400.496 138.958075 
Q 400.496 140.958075 402.496 140.958075 
z
" style="fill:#ffffff;opacity:0.8;stroke:#cccccc;stroke-linejoin:miter;"/>
    </g>
    <g id="text_19">
     <!--  -->
     <g transform="translate(432.496 46.809637)scale(0.1 -0.1)">
      <defs>
       <path d="M 1981 4316 
L 3597 0 
L 2988 0 
L 2006 2588 
L 800 0 
L 191 0 
L 1725 3356 
L 1494 3975 
Q 1347 4369 1013 4369 
L 713 4369 
L 713 4863 
L 1078 4856 
Q 1784 4847 1981 4316 
z
" id="DejaVuSans-3bb" transform="scale(0.015625)"/>
      </defs>
      <use xlink:href="#DejaVuSans-3bb"/>
     </g>
    </g>
    <g id="line2d_27">
     <path d="M 404.496 57.987762 
L 424.496 57.987762 
" style="fill:none;stroke:#edd1cb;stroke-linecap:square;stroke-width:1.5;"/>
    </g>
    <g id="line2d_28"/>
    <g id="text_20">
     <!-- 0.0 -->
     <g transform="translate(432.496 61.487762)scale(0.1 -0.1)">
      <defs>
       <path d="M 684 794 
L 1344 794 
L 1344 0 
L 684 0 
L 684 794 
z
" id="DejaVuSans-2e" transform="scale(0.015625)"/>
      </defs>
      <use xlink:href="#DejaVuSans-30"/>
      <use x="63.623047" xlink:href="#DejaVuSans-2e"/>
      <use x="95.410156" xlink:href="#DejaVuSans-30"/>
     </g>
    </g>
    <g id="line2d_29">
     <path d="M 404.496 72.665887 
L 424.496 72.665887 
" style="fill:none;stroke:#daa4ac;stroke-linecap:square;stroke-width:1.5;"/>
    </g>
    <g id="line2d_30"/>
    <g id="text_21">
     <!-- 1.0 -->
     <g transform="translate(432.496 76.165887)scale(0.1 -0.1)">
      <use xlink:href="#DejaVuSans-31"/>
      <use x="63.623047" xlink:href="#DejaVuSans-2e"/>
      <use x="95.410156" xlink:href="#DejaVuSans-30"/>
     </g>
    </g>
    <g id="line2d_31">
     <path d="M 404.496 87.344012 
L 424.496 87.344012 
" style="fill:none;stroke:#2d1e3e;stroke-linecap:square;stroke-width:1.5;"/>
    </g>
    <g id="line2d_32"/>
    <g id="text_22">
     <!-- 5.0 -->
     <g transform="translate(432.496 90.844012)scale(0.1 -0.1)">
      <use xlink:href="#DejaVuSans-35"/>
      <use x="63.623047" xlink:href="#DejaVuSans-2e"/>
      <use x="95.410156" xlink:href="#DejaVuSans-30"/>
     </g>
    </g>
    <g id="text_23">
     <!-- Subset -->
     <g transform="translate(432.496 105.522137)scale(0.1 -0.1)">
      <use xlink:href="#DejaVuSans-53"/>
      <use x="63.476562" xlink:href="#DejaVuSans-75"/>
      <use x="126.855469" xlink:href="#DejaVuSans-62"/>
      <use x="190.332031" xlink:href="#DejaVuSans-73"/>
      <use x="242.431641" xlink:href="#DejaVuSans-65"/>
      <use x="303.955078" xlink:href="#DejaVuSans-74"/>
     </g>
    </g>
    <g id="line2d_33">
     <path d="M 404.496 116.700262 
L 424.496 116.700262 
" style="fill:none;stroke:#333333;stroke-linecap:square;stroke-width:1.5;"/>
    </g>
    <g id="line2d_34"/>
    <g id="text_24">
     <!-- Train -->
     <g transform="translate(432.496 120.200262)scale(0.1 -0.1)">
      <defs>
       <path d="M -19 4666 
L 3928 4666 
L 3928 4134 
L 2272 4134 
L 2272 0 
L 1638 0 
L 1638 4134 
L -19 4134 
L -19 4666 
z
" id="DejaVuSans-54" transform="scale(0.015625)"/>
      </defs>
      <use xlink:href="#DejaVuSans-54"/>
      <use x="46.333984" xlink:href="#DejaVuSans-72"/>
      <use x="87.447266" xlink:href="#DejaVuSans-61"/>
      <use x="148.726562" xlink:href="#DejaVuSans-69"/>
      <use x="176.509766" xlink:href="#DejaVuSans-6e"/>
     </g>
    </g>
    <g id="line2d_35">
     <path d="M 404.496 131.378387 
L 424.496 131.378387 
" style="fill:none;stroke:#333333;stroke-dasharray:6,2.25;stroke-dashoffset:0;stroke-width:1.5;"/>
    </g>
    <g id="line2d_36"/>
    <g id="text_25">
     <!-- Test -->
     <g transform="translate(432.496 134.878387)scale(0.1 -0.1)">
      <use xlink:href="#DejaVuSans-54"/>
      <use x="44.083984" xlink:href="#DejaVuSans-65"/>
      <use x="105.607422" xlink:href="#DejaVuSans-73"/>
      <use x="157.707031" xlink:href="#DejaVuSans-74"/>
     </g>
    </g>
   </g>
  </g>
 </g>
 <defs>
  <clipPath id="p0a870404a9">
   <rect height="217.44" width="334.8" x="54" y="34.56"/>
  </clipPath>
 </defs>
</svg>
